<?xml version="1.0" encoding="UTF-8"?>
<svg width="9px" height="9px" viewBox="0 0 9 9" version="1.1" xmlns="http://www.w3.org/2000/svg" xmlns:xlink="http://www.w3.org/1999/xlink">
    <!-- Generator: Sketch 47.1 (45422) - http://www.bohemiancoding.com/sketch -->
    <title>最大化</title>
    <desc>Created with Sketch.</desc>
    <defs></defs>
    <g id="Page-1" stroke="none" stroke-width="1" fill="none" fill-rule="evenodd">
        <g id="U-基本信息管理-疾病（或异常）管理-V1.0-1214-汤黎" transform="translate(-1530.000000, -5.000000)" fill="#95C9FF">
            <g id="Group">
                <g id="顶部导航">
                    <g id="Group-3" transform="translate(1488.000000, 0.000000)">
                        <path d="M48.517767,6 L42.5680195,6 C42.2918771,6 42.0680195,5.77614237 42.0680195,5.5 L42.0680195,5.5 L42.0680195,5.5 C42.0680195,5.22385763 42.2918771,5 42.5680195,5 L42.5680195,5 L49.5680195,5 C49.7060907,5 49.8310907,5.05596441 49.9215729,5.14644661 C50.0120551,5.23692881 50.0680195,5.36192881 50.0680195,5.5 L50.0680195,5.5 L50.0680195,12.5 C50.0680195,12.7761424 49.8441619,13 49.5680195,13 C49.2918771,13 49.0680195,12.7761424 49.0680195,12.5 L49.0680195,6.86396103 L42.8535534,13.0784271 C42.6582912,13.2736893 42.3417088,13.2736893 42.1464466,13.0784271 L42.1464466,13.0784271 L42.1464466,13.0784271 C41.9511845,12.883165 41.9511845,12.5665825 42.1464466,12.3713203 L42.1464466,12.3713203 L48.517767,6 Z" id="最大化"></path>
                    </g>
                </g>
            </g>
        </g>
    </g>
</svg>