<?xml version="1.0" encoding="UTF-8"?>
<svg width="36px" height="36px" viewBox="0 0 36 36" version="1.1" xmlns="http://www.w3.org/2000/svg" xmlns:xlink="http://www.w3.org/1999/xlink">
    <!-- Generator: Sketch 47 (45396) - http://www.bohemiancoding.com/sketch -->
    <title>体检</title>
    <desc>Created with Sketch.</desc>
    <defs>
        <linearGradient x1="50%" y1="0%" x2="50%" y2="100%" id="linearGradient-2">
            <stop stop-color="#FAFEFF" offset="0%"></stop>
            <stop stop-color="#EDF2F2" offset="100%"></stop>
        </linearGradient>
        <path d="M18,33 C9.163444,33 2,25.836556 2,17 C2,8.163444 9.163444,1 18,1 C26.836556,1 34,8.163444 34,17 C34,25.836556 26.836556,33 18,33 Z M18.3683374,28 C20.002415,28 21.3319482,26.600692 21.3319482,24.8808569 L21.3319482,21.6826769 C21.3319482,20.8971041 21.9392536,20.2579269 22.6856548,20.2579269 C23.4318578,20.2579269 24.038965,20.8971041 24.038965,21.6826769 L24.038965,23.0811508 C23.2275733,23.4258685 22.6886269,24.2604484 22.6886269,25.1857434 C22.6886269,26.436779 23.6555601,27.4544576 24.8442144,27.4544576 C26.0328686,27.4544576 27,26.436779 27,25.1857434 C27,24.2606569 26.4606573,23.4258685 25.6492656,23.0811508 L25.6492656,21.6826769 C25.6492656,19.9628418 24.3197323,18.5635338 22.6854566,18.5635338 C21.051379,18.5635338 19.7218458,19.9628418 19.7218458,21.6826769 L19.7218458,24.8808569 C19.7218458,25.6664297 19.1147385,26.3053984 18.3685355,26.3053984 C17.6221344,26.3053984 17.014829,25.6664297 17.014829,24.8808569 L17.014829,20.6322575 L17.0364264,20.6322575 C17.291039,20.6322575 17.4982956,20.4141239 17.4982956,20.1461491 L17.4982956,19.9403194 C18.6197797,19.8024741 19.5096357,19.41292 20.2166065,18.7508034 C21.4024868,17.6396986 22.1157982,15.7826437 22.4617542,12.906242 C22.8027567,10.0684203 22.596689,8.37673823 21.7936192,7.42099626 C21.1235027,6.62353666 20.1799502,6.48569126 19.253438,6.46525428 C19.0156675,6.16870942 18.6726836,6 18.3037431,6 C17.6177753,6 17.0598072,6.58725058 17.0598072,7.30921845 C17.0598072,8.03139485 17.6177753,8.61885397 18.3037431,8.61885397 C18.6695133,8.61885397 19.0097232,8.45306413 19.2470974,8.1613157 C19.9069105,8.17737334 20.3394546,8.24890279 20.5873303,8.54377933 C20.8970264,8.91247926 21.1962209,9.93140907 20.8639366,12.6935305 C20.5738567,15.1063463 20.0119258,16.6735296 19.1458468,17.4845443 C18.8371415,17.7739988 18.4000401,18.08535 17.4980974,18.2273662 L17.4980974,17.9746149 C17.4980974,17.7066401 17.291039,17.4885066 17.0362283,17.4885066 L15.3833272,17.4885066 C15.1285165,17.4885066 14.9214581,17.7066401 14.9214581,17.9746149 L14.9214581,18.1942083 C14.3262393,18.0715863 13.8516891,17.8384378 13.4738322,17.4845443 C12.6077532,16.673321 12.0458223,15.1061377 11.7559405,12.6935305 C11.4234581,9.93140907 11.7228508,8.91247926 12.0323487,8.54377933 C12.2802244,8.24911133 12.7129667,8.17737334 13.3727797,8.1613157 C13.6099558,8.45306413 13.9503638,8.61885397 14.3161341,8.61885397 C15.0023,8.61885397 15.5602681,8.03139485 15.5602681,7.30942699 C15.5602681,6.58745912 15.0023,6 14.3161341,6 C13.9469954,6 13.6040115,6.16870942 13.3666373,6.46525428 C12.4399269,6.48569126 11.4965725,6.62353666 10.8264561,7.42099626 C10.02299,8.37694677 9.81692229,10.0688374 10.1579248,12.9064505 C10.5042771,15.7832693 11.2175885,17.6403242 12.4034688,18.7508034 C13.0702168,19.3753827 13.8946859,19.7559695 14.9214581,19.9130006 L14.9214581,20.1461491 C14.9214581,20.4141239 15.1285165,20.6322575 15.3835254,20.6322575 L15.4047266,20.6322575 L15.4047266,24.8808569 C15.4047266,26.600692 16.7342598,28 18.3683374,28 Z" id="path-2"></path>
        <filter x="-10.9%" y="-7.8%" width="121.9%" height="121.9%" filterUnits="objectBoundingBox" id="filter-2">
            <feOffset dx="0" dy="1" in="SourceAlpha" result="shadowOffsetOuter1"></feOffset>
            <feGaussianBlur stdDeviation="1" in="shadowOffsetOuter1" result="shadowBlurOuter1"></feGaussianBlur>
            <feColorMatrix values="0 0 0 0 0.0938796525   0 0 0 0 0.235086435   0 0 0 0 0.266661352  0 0 0 0.3 0" type="matrix" in="shadowBlurOuter1"></feColorMatrix>
        </filter>
    </defs>
    <g id="Symbols" stroke="none" stroke-width="1" fill="none" fill-rule="evenodd">
        <g id="顶部图标" transform="translate(-111.000000, 1.000000)">
            <g id="Group-5" transform="translate(0.000000, -2.000000)">
                <g id="体检" transform="translate(111.000000, 1.000000)">
                    <text id="体-检" font-family="MicrosoftYaHei, Microsoft YaHei" font-size="12" font-weight="normal" letter-spacing="0.950769186" fill="#FFFFFF">
                        <tspan x="0" y="48">体  检</tspan>
                    </text>
                    <g id="Combined-Shape-Copy">
                        <use fill="black" fill-opacity="1" filter="url(#filter-2)" xlink:href="#path-2"></use>
                        <use fill="url(#linearGradient-2)" fill-rule="evenodd" xlink:href="#path-2"></use>
                    </g>
                </g>
            </g>
        </g>
    </g>
</svg>