<?xml version="1.0" encoding="UTF-8"?>
<svg width="36px" height="36px" viewBox="0 0 36 36" version="1.1" xmlns="http://www.w3.org/2000/svg" xmlns:xlink="http://www.w3.org/1999/xlink">
    <!-- Generator: Sketch 47 (45396) - http://www.bohemiancoding.com/sketch -->
    <title>系统设置</title>
    <desc>Created with Sketch.</desc>
    <defs>
        <linearGradient x1="50%" y1="0%" x2="50%" y2="100%" id="linearGradient-6">
            <stop stop-color="#FAFEFF" offset="0%"></stop>
            <stop stop-color="#EDF2F2" offset="100%"></stop>
        </linearGradient>
        <path d="M24,24 C20.1378367,24 17,20.8619381 17,16.9999764 C17,13.1378262 20.1378367,10 24,10 C27.8621633,10 31,13.1378262 31,16.9999764 C31,20.8619381 27.8621633,24 24,24 M38.7992922,14.5080568 C38.5985843,13.3230456 37.6956147,12.4341811 36.3912294,12.3354655 C35.5885156,12.2367499 34.7859979,11.7429792 34.3845822,11.0516229 C33.9832841,10.360421 33.9832841,9.47167226 34.2842871,8.68160047 C34.7859979,7.59530481 34.4848382,6.31146227 33.5818685,5.52139049 C32.2776399,4.53396471 30.8728027,3.74389293 29.3678664,3.1514066 C28.2641889,2.75631284 26.9597644,3.1514066 26.2575025,4.13883238 C25.755831,4.83018859 24.9531172,5.22516661 24.0501476,5.22516661 C23.247473,5.22516661 22.4447593,4.83018859 21.9430485,4.13883238 C21.1405308,3.1514066 19.8361062,2.75631284 18.7324288,3.1514066 C17.2274924,3.74389293 15.8226552,4.53396471 14.5184266,5.52139049 C13.5150051,6.31146227 13.2140413,7.59530481 13.7157129,8.78031605 C14.117011,9.57034925 14.0167159,10.459098 13.615457,11.1504542 C13.2140413,11.8416561 12.5117795,12.3354655 11.6086531,12.4341811 C10.4046804,12.5330124 9.40125888,13.4217611 9.20070783,14.6067724 C9.10029512,15.3968056 9,16.1868774 9,16.9769106 C9,17.7669824 9.10029512,18.6557311 9.40125888,19.4458029 C9.60196671,20.6307756 10.5049364,21.5196787 11.8093609,21.6183942 C12.6120354,21.7170712 13.4147491,22.2108806 13.816008,22.9022368 C14.2174237,23.5934387 14.2174237,24.4821875 13.9164207,25.2722207 C13.4147491,26.3585163 13.7157129,27.6423974 14.6186826,28.4324307 C15.9231071,29.419895 17.3277483,30.2099282 18.8327239,30.8024531 C19.1337268,30.9012844 19.4346906,31 19.7358503,31 C20.5383681,31 21.4414945,30.605022 21.8427926,29.7161575 C22.3444642,29.0249556 23.1471779,28.6298232 24.0501476,28.6298232 C24.8528221,28.6298232 25.6555358,29.0249556 26.1572466,29.7161575 C26.9597644,30.7037375 28.2641889,31.098677 29.3678664,30.7037375 C30.8728027,30.1112512 32.3778959,29.321218 33.5818685,28.3335993 C34.4848382,27.6423974 34.7859979,26.2598393 34.2842871,25.1735437 C33.8828714,24.3835105 33.9832841,23.4947231 34.3845822,22.8033669 C34.7859979,22.112165 35.4882597,21.6183942 36.3912294,21.5196787 C37.5953588,21.4208088 38.5985843,20.53206 38.7992922,19.3470873 C38.8995873,18.5570156 39,17.7669824 39,16.9769106 C39,16.1868774 38.8995873,15.2981286 38.7992922,14.5080568 M24,12 C21.2857191,12 19,14.2857318 19,16.9999721 C19,19.7142682 21.2857191,22 24,22 C26.7142809,22 29,19.7142682 29,16.9999721 C29,14.2857318 26.7142809,12 24,12" id="path-6"></path>
        <filter x="-11.7%" y="-8.9%" width="123.3%" height="125.0%" filterUnits="objectBoundingBox" id="filter-6">
            <feOffset dx="0" dy="1" in="SourceAlpha" result="shadowOffsetOuter1"></feOffset>
            <feGaussianBlur stdDeviation="1" in="shadowOffsetOuter1" result="shadowBlurOuter1"></feGaussianBlur>
            <feColorMatrix values="0 0 0 0 0.0938796525   0 0 0 0 0.235086435   0 0 0 0 0.266661352  0 0 0 0.3 0" type="matrix" in="shadowBlurOuter1"></feColorMatrix>
        </filter>
    </defs>
    <g id="Symbols" stroke="none" stroke-width="1" fill="none" fill-rule="evenodd">
        <g id="顶部图标" transform="translate(-605.000000, 1.000000)">
            <g id="Group-5" transform="translate(0.000000, -2.000000)">
                <g id="系统设置" transform="translate(599.000000, 1.000000)">
                    <text font-family="MicrosoftYaHei, Microsoft YaHei" font-size="12" font-weight="normal" fill="#FFFFFF">
                        <tspan x="0" y="48">系统设置</tspan>
                    </text>
                    <g id="Fill-3">
                        <use fill="black" fill-opacity="1" filter="url(#filter-6)" xlink:href="#path-6"></use>
                        <use fill="url(#linearGradient-6)" fill-rule="evenodd" xlink:href="#path-6"></use>
                    </g>
                </g>
            </g>
        </g>
    </g>
</svg>