<?xml version="1.0" encoding="UTF-8"?>
<svg width="13px" height="13px" viewBox="0 0 13 13" version="1.1" xmlns="http://www.w3.org/2000/svg" xmlns:xlink="http://www.w3.org/1999/xlink">
    <!-- Generator: Sketch 47.1 (45422) - http://www.bohemiancoding.com/sketch -->
    <title>收起</title>
    <desc>Created with Sketch.</desc>
    <defs>
        <path d="M243,739 L1262,739 L1262,739 C1266.41828,739 1270,735.418278 1270,731 L1270,129 L1270,129 C1270,124.581722 1266.41828,121 1262,121 L243,121 L243,121 C238.581722,121 235,124.581722 235,129 L235,731 L235,731 C235,735.418278 238.581722,739 243,739 Z" id="path-1"></path>
        <filter x="-2.3%" y="-3.5%" width="104.5%" height="107.6%" filterUnits="objectBoundingBox" id="filter-3">
            <feOffset dx="0" dy="2" in="SourceAlpha" result="shadowOffsetOuter1"></feOffset>
            <feGaussianBlur stdDeviation="7.5" in="shadowOffsetOuter1" result="shadowBlurOuter1"></feGaussianBlur>
            <feComposite in="shadowBlurOuter1" in2="SourceAlpha" operator="out" result="shadowBlurOuter1"></feComposite>
            <feColorMatrix values="0 0 0 0 0.807843137   0 0 0 0 0.835294118   0 0 0 0 0.949019608  0 0 0 0.7 0" type="matrix" in="shadowBlurOuter1"></feColorMatrix>
        </filter>
        <rect id="path-4" x="0" y="0" width="13" height="13"></rect>
    </defs>
    <g id="待讨论" stroke="none" stroke-width="1" fill="none" fill-rule="evenodd">
        <g id="部门管理-copy-9" transform="translate(-272.000000, -370.000000)">
            <g id="框架"></g>
            <mask id="mask-2" fill="white">
                <use xlink:href="#path-1"></use>
            </mask>
            <g id="Stroke-10">
                <use fill="black" fill-opacity="1" filter="url(#filter-3)" xlink:href="#path-1"></use>
                <use fill="#FFFFFF" fill-rule="evenodd" xlink:href="#path-1"></use>
                <path stroke="#D9D9D9" stroke-width="1" d="M243,738.5 L1262,738.5 C1266.14214,738.5 1269.5,735.142136 1269.5,731 L1269.5,129 C1269.5,124.857864 1266.14214,121.5 1262,121.5 L243,121.5 C238.857864,121.5 235.5,124.857864 235.5,129 L235.5,731 C235.5,735.142136 238.857864,738.5 243,738.5 Z"></path>
            </g>
            <g id="Group-2" mask="url(#mask-2)">
                <g transform="translate(253.000000, 377.000000)"></g>
            </g>
            <g id="Group-13" mask="url(#mask-2)">
                <g transform="translate(236.000000, 122.000000)">
                    <path d="M0,0 L229,0 L229,616 L7,616 L7,616 C3.13400675,616 4.73447626e-16,612.865993 0,609 L0,0 Z" id="Rectangle-5" fill="#F2F7FF"></path>
                    <g id="Group-7" stroke-width="1" fill="none" transform="translate(10.000000, 50.000000)">
                        <g id="Group-11" transform="translate(26.000000, 194.000000)">
                            <g id="Group-4" transform="translate(0.000000, 4.000000)">
                                <g id="Rectangle-3">
                                    <use fill="#008CEE" fill-rule="evenodd" xlink:href="#path-4"></use>
                                    <rect stroke="#008CEE" stroke-width="1" x="0.5" y="0.5" width="12" height="12"></rect>
                                </g>
                                <path d="M3.5,6.5 L9.5,6.5" id="Line" stroke="#FFFFFF" stroke-linecap="square"></path>
                                <path d="M6.5,9.5 L6.5,3.5" id="Line" stroke="#FFFFFF" stroke-linecap="square"></path>
                            </g>
                        </g>
                    </g>
                </g>
            </g>
        </g>
    </g>
</svg>