<svg id="图层_1" data-name="图层 1" xmlns="http://www.w3.org/2000/svg" viewBox="0 0 24 24"><defs><style>.cls-1{fill:#9ca4b4;}</style></defs><title>未标题-1</title><path class="cls-1" d="M21.5,3a2.49,2.49,0,0,0-1.67,4.35l-1.47,3.44a3.31,3.31,0,0,1-4.55,1.8,3.9,3.9,0,0,1-1.65-5L13.28,5l.22,0a2.53,2.53,0,1,0-1.88-.87L10.49,6.77a6.07,6.07,0,0,0,1.72,7.1l0,0L9.25,20.26a3,3,0,1,1-5.44-2.52l.57-1.23A1.48,1.48,0,0,0,5,16.38a9.42,9.42,0,0,0,2.19-1.27,6.71,6.71,0,0,0,1.46-1.54,5,5,0,0,0,.85-2.37A3.5,3.5,0,0,0,6.52,7.33,3.05,3.05,0,0,0,5,7.54a3.07,3.07,0,0,0-3.73.18A3.67,3.67,0,0,0,0,10.24a5.12,5.12,0,0,0,.42,2.49A7,7,0,0,0,1.6,14.53a9.56,9.56,0,0,0,1,1L2,16.9a5,5,0,0,0,9.07,4.21L14,14.77a4.8,4.8,0,0,0,1.24.17A5.25,5.25,0,0,0,20,11.63L21.57,8a2.5,2.5,0,0,0-.07-5Zm-8-1a.5.5,0,1,1-.5.5A.5.5,0,0,1,13.5,2ZM2.28,11.94A3.15,3.15,0,0,1,2,10.41a1.66,1.66,0,0,1,.57-1.14A1.12,1.12,0,0,1,3.29,9H3.4a1.19,1.19,0,0,1,.76.41l.62.7.74-.57a1.12,1.12,0,0,1,.79-.24A1.52,1.52,0,0,1,7.47,11,3,3,0,0,1,7,12.46a4.74,4.74,0,0,1-1,1.08,7.37,7.37,0,0,1-1.49.89,7.8,7.8,0,0,1-1.33-1.21A5.07,5.07,0,0,1,2.28,11.94ZM21.5,6a.5.5,0,1,1,.5-.5A.5.5,0,0,1,21.5,6Z"/></svg>