<svg id="图层_1" data-name="图层 1" xmlns="http://www.w3.org/2000/svg" viewBox="0 0 24 24"><defs><style>.cls-1{fill:#9ca4b4;}</style></defs><title>未标题-1</title><path class="cls-1" d="M21,18V9H13V6a2,2,0,0,0,2-2V2a2,2,0,0,0-2-2H11A2,2,0,0,0,9,2V4a2,2,0,0,0,2,2V9H3v9a2,2,0,0,0-2,2v2a2,2,0,0,0,2,2H5a2,2,0,0,0,2-2V20a2,2,0,0,0-2-2V11h6v7a2,2,0,0,0-2,2v2a2,2,0,0,0,2,2h2a2,2,0,0,0,2-2V20a2,2,0,0,0-2-2V11h6v7a2,2,0,0,0-2,2v2a2,2,0,0,0,2,2h2a2,2,0,0,0,2-2V20A2,2,0,0,0,21,18ZM5,22H3V20H5Zm8,0H11V20h2ZM13,4H11V2h2Zm8,18H19V20h2Z"/></svg>