<svg id="图层_1" data-name="图层 1" xmlns="http://www.w3.org/2000/svg" viewBox="0 0 24 24"><defs><style>.cls-1{fill:#9ca4b4;}</style></defs><title>未标题-1</title><path class="cls-1" d="M18,2H17a2,2,0,0,0-2-2H9A2,2,0,0,0,7,2H6A4,4,0,0,0,2,6V20a4,4,0,0,0,4,4H18a4,4,0,0,0,4-4V6A4,4,0,0,0,18,2Zm2,18a2,2,0,0,1-2,2H6a2,2,0,0,1-2-2V6A2,2,0,0,1,6,4H18a2,2,0,0,1,2,2Z"/><polygon class="cls-1" points="9 12 11 12 11 10 13 10 13 8 11 8 11 6 9 6 9 8 7 8 7 10 9 10 9 12"/><rect class="cls-1" x="7" y="14" width="7" height="2"/><rect class="cls-1" x="7" y="18" width="10" height="2"/></svg>