<?xml version="1.0" encoding="UTF-8"?>
<svg width="9px" height="9px" viewBox="0 0 9 9" version="1.1" xmlns="http://www.w3.org/2000/svg" xmlns:xlink="http://www.w3.org/1999/xlink">
    <!-- Generator: Sketch 47.1 (45422) - http://www.bohemiancoding.com/sketch -->
    <title>关闭</title>
    <desc>Created with Sketch.</desc>
    <defs></defs>
    <g id="Page-1" stroke="none" stroke-width="1" fill="none" fill-rule="evenodd">
        <g id="关闭" fill="#95C9FF">
            <path d="M5.27817459,4.27817459 L5.27817459,-0.221825407 L5.27817459,-0.221825407 C5.27817459,-0.497967782 5.05431697,-0.721825407 4.77817459,-0.721825407 C4.50203222,-0.721825407 4.27817459,-0.497967782 4.27817459,-0.221825407 L4.27817459,4.27817459 L-0.221825407,4.27817459 L-0.221825407,4.27817459 C-0.497967782,4.27817459 -0.721825407,4.50203222 -0.721825407,4.77817459 C-0.721825407,5.05431697 -0.497967782,5.27817459 -0.221825407,5.27817459 L4.27817459,5.27817459 L4.27817459,9.77817459 C4.27817459,10.054317 4.50203222,10.2781746 4.77817459,10.2781746 C5.05431697,10.2781746 5.27817459,10.054317 5.27817459,9.77817459 L5.27817459,5.27817459 L9.77817459,5.27817459 C10.054317,5.27817459 10.2781746,5.05431697 10.2781746,4.77817459 C10.2781746,4.50203222 10.054317,4.27817459 9.77817459,4.27817459 L5.27817459,4.27817459 Z" transform="translate(4.778175, 4.778175) rotate(45.000000) translate(-4.778175, -4.778175) "></path>
        </g>
    </g>
</svg>