<?xml version="1.0" encoding="UTF-8"?>
<svg width="9px" height="9px" viewBox="0 0 9 9" version="1.1" xmlns="http://www.w3.org/2000/svg" xmlns:xlink="http://www.w3.org/1999/xlink">
    <!-- Generator: Sketch 47.1 (45422) - http://www.bohemiancoding.com/sketch -->
    <title>最大化</title>
    <desc>Created with Sketch.</desc>
    <defs></defs>
    <g id="Page-1" stroke="none" stroke-width="1" fill="none" fill-rule="evenodd">
        <g id="最大化" fill="#95C9FF">
            <path d="M6.51776695,1 L0.568019485,1 C0.29187711,1 0.0680194847,0.776142375 0.0680194847,0.5 L0.0680194847,0.5 L0.0680194847,0.5 C0.0680194847,0.223857625 0.29187711,5.07265313e-17 0.568019485,0 L0.568019485,0 L7.56801948,0 C7.70609067,-2.53632657e-17 7.83109067,0.0559644063 7.92157288,0.146446609 C8.01205508,0.236928813 8.06801948,0.361928813 8.06801948,0.5 L8.06801948,0.5 L8.06801948,7.5 C8.06801948,7.77614237 7.84416186,8 7.56801948,8 C7.29187711,8 7.06801948,7.77614237 7.06801948,7.5 L7.06801948,1.86396103 L0.853553391,8.07842712 C0.658291245,8.27368927 0.341708755,8.27368927 0.146446609,8.07842712 L0.146446609,8.07842712 L0.146446609,8.07842712 C-0.0488155365,7.88316498 -0.0488155365,7.56658249 0.146446609,7.37132034 L0.146446609,7.37132034 L6.51776695,1 Z"></path>
        </g>
    </g>
</svg>