<?xml version="1.0" encoding="UTF-8"?>
<svg width="10px" height="10px" viewBox="0 0 10 10" version="1.1" xmlns="http://www.w3.org/2000/svg" xmlns:xlink="http://www.w3.org/1999/xlink">
    <!-- Generator: Sketch 47.1 (45422) - http://www.bohemiancoding.com/sketch -->
    <title>关闭</title>
    <desc>Created with Sketch.</desc>
    <defs></defs>
    <g id="规范" stroke="none" stroke-width="1" fill="none" fill-rule="evenodd">
        <g transform="translate(-62.000000, -432.000000)" fill-rule="nonzero" fill="#737373">
            <g transform="translate(62.000000, 432.000000)">
                <g>
                    <path d="M9.27492448,9.90936556 L0.0906344375,0.725075525 C-0.0302114792,0.604229608 -0.0302114792,0.422960726 0.0906344375,0.302114809 L0.302114809,0.0906344375 C0.422960726,-0.0302114792 0.604229608,-0.0302114792 0.725075525,0.0906344375 L9.90936556,9.27492448 C10.0302115,9.39577039 10.0302115,9.57703927 9.90936556,9.69788519 L9.69788519,9.90936556 C9.60725075,10.0302115 9.39577039,10.0302115 9.27492448,9.90936556 Z"></path>
                    <path d="M0.0872035368,9.27492448 L9.27467343,0.0906344375 C9.39556119,-0.0302114792 9.57689283,-0.0302114792 9.69778059,0.0906344375 L9.90933418,0.302114809 C10.0302219,0.422960726 10.0302219,0.604229608 9.90933418,0.725075525 L0.752086235,9.90936556 C0.631198479,10.0302115 0.449866836,10.0302115 0.328979065,9.90936556 L0.117425487,9.69788519 C-0.0336842201,9.57703927 -0.0336842201,9.39577039 0.0872035368,9.27492448 Z"></path>
                </g>
            </g>
        </g>
    </g>
</svg>