<?xml version="1.0" encoding="UTF-8"?>
<svg width="9px" height="9px" viewBox="0 0 9 9" version="1.1" xmlns="http://www.w3.org/2000/svg" xmlns:xlink="http://www.w3.org/1999/xlink">
    <!-- Generator: Sketch 47.1 (45422) - http://www.bohemiancoding.com/sketch -->
    <title>关闭</title>
    <desc>Created with Sketch.</desc>
    <defs></defs>
    <g id="前" stroke="none" stroke-width="1" fill="none" fill-rule="evenodd">
        <g id="U-基础信息管理-职业危害类别-v1.0-1215-陈江" transform="translate(-1258.000000, -5.000000)" fill="#95C9FF">
            <g id="顶部导航">
                <g id="Group-2" transform="translate(1079.000000, 0.000000)">
                    <g id="Group-3" transform="translate(117.000000, 0.000000)">
                        <path d="M67.2781746,9.27817459 L67.2781746,4.77817459 L67.2781746,4.77817459 C67.2781746,4.50203222 67.054317,4.27817459 66.7781746,4.27817459 C66.5020322,4.27817459 66.2781746,4.50203222 66.2781746,4.77817459 L66.2781746,9.27817459 L61.7781746,9.27817459 L61.7781746,9.27817459 C61.5020322,9.27817459 61.2781746,9.50203222 61.2781746,9.77817459 C61.2781746,10.054317 61.5020322,10.2781746 61.7781746,10.2781746 L66.2781746,10.2781746 L66.2781746,14.7781746 C66.2781746,15.054317 66.5020322,15.2781746 66.7781746,15.2781746 C67.054317,15.2781746 67.2781746,15.054317 67.2781746,14.7781746 L67.2781746,10.2781746 L71.7781746,10.2781746 C72.054317,10.2781746 72.2781746,10.054317 72.2781746,9.77817459 C72.2781746,9.50203222 72.054317,9.27817459 71.7781746,9.27817459 L67.2781746,9.27817459 Z" id="关闭" transform="translate(66.778175, 9.778175) rotate(45.000000) translate(-66.778175, -9.778175) "></path>
                    </g>
                </g>
            </g>
        </g>
    </g>
</svg>