<?xml version="1.0" encoding="UTF-8"?>
<svg width="24px" height="20px" viewBox="0 0 24 20" version="1.1" xmlns="http://www.w3.org/2000/svg" xmlns:xlink="http://www.w3.org/1999/xlink">
    <!-- Generator: Sketch 47.1 (45422) - http://www.bohemiancoding.com/sketch -->
    <title>Combined Shape</title>
    <desc>Created with Sketch.</desc>
    <defs></defs>
    <g id="Page-1" stroke="none" stroke-width="1" fill="none" fill-rule="evenodd">
        <path d="M22.2,16.636716 C22.2,17.0583044 21.8943915,17.4 21.5180636,17.4 L2.48193636,17.4 C2.10687136,17.4 1.8,17.0583044 1.8,16.636716 L1.8,5.22801765 C1.8,4.80642925 2.10687136,4.46473369 2.48193636,4.46473369 L6.61143989,4.46473369 C6.91831125,4.46473369 7.19234864,4.27667822 7.29716479,3.9964387 C7.87554785,2.44405925 8.50065618,1.8 8.70649994,1.8 L15.2935001,1.8 C15.5675375,1.8 16.1762288,2.47478727 16.6750526,3.97308541 C16.7722917,4.26684526 17.0526433,4.46473369 17.3683546,4.46473369 L21.5180636,4.46473369 C21.8943915,4.46473369 22.2,4.80642925 22.2,5.22801765 L22.2,16.636716 Z M21.7978551,2.77504 C23.0133247,2.77504 24,3.7952 24,5.04832 L24,16.92928 C24,18.1824 23.0133247,19.2 21.7978551,19.2 L2.20214495,19.2 C0.987975301,19.2 0,18.1824 0,16.92928 L0,5.04832 C0,3.7952 0.987975301,2.77504 2.20214495,2.77504 L5.93955151,2.77504 C6.50113747,1.4144 7.3838154,0 8.60968476,0 L15.3903152,0 C16.6889828,0 17.5417615,1.40928 18.0604485,2.77504 L21.7978551,2.77504 Z M19.2,6 C18.5365685,6 18,6.53703382 18,7.19895924 C18,7.8650477 18.5365685,8.4 19.2,8.4 C19.8613518,8.4 20.4,7.8650477 20.4,7.19895924 C20.4,6.53703382 19.8613518,6 19.2,6 Z M12,6 C9.35244149,6 7.2,8.15459272 7.2,10.8 C7.2,13.4467938 9.35244149,15.6 12,15.6 C14.6461716,15.6 16.8,13.4467938 16.8,10.8 C16.8,8.15459272 14.6461716,6 12,6 Z M12,13.8 C10.3453206,13.8 9,12.4543879 9,10.7993499 C9,9.14561213 10.3453206,7.8 12,7.8 C13.6533795,7.8 15,9.14561213 15,10.7993499 C15,12.4543879 13.6533795,13.8 12,13.8" id="Combined-Shape" fill="#FFFFFF"></path>
    </g>
</svg>