<?xml version="1.0" encoding="UTF-8"?>
<svg width="17px" height="18px" viewBox="0 0 17 18" version="1.1" xmlns="http://www.w3.org/2000/svg" xmlns:xlink="http://www.w3.org/1999/xlink">
    <!-- Generator: Sketch 47.1 (45422) - http://www.bohemiancoding.com/sketch -->
    <title>Group 11</title>
    <desc>Created with Sketch.</desc>
    <defs></defs>
    <g id="主检、分检、采样" stroke="none" stroke-width="1" fill="none" fill-rule="evenodd">
        <g id="U-采样台-0206-汤梨" transform="translate(-1222.000000, -669.000000)" fill-rule="nonzero" fill="#FF6262">
            <g id="02" transform="translate(235.000000, 226.000000)">
                <g id="icon" transform="translate(892.000000, 325.000000)">
                    <g id="Group-11" transform="translate(95.000000, 118.000000)">
                        <path d="M6.75289742,15.7917038 L2.98807421,15.7917038 C2.017954,15.7904645 1.23185228,15.0679539 1.23050396,14.1763108 L1.23050396,2.74369322 C1.23050396,1.85275225 2.01871793,1.12830024 2.98807421,1.12830026 L6.05525464,1.12830026 L6.05525464,6.28045893 C6.05525464,6.59206329 6.33063995,6.84517152 6.66966986,6.8451715 L12.2752909,6.8451715 L12.2752909,9.02977678 C12.2752909,9.34134829 12.5501,9.59392691 12.8890942,9.59392691 C13.2280883,9.59392691 13.5028974,9.34134829 13.5028974,9.02977678 L13.5028974,6.28045893 C13.5028974,6.25458565 13.4906581,6.23321205 13.4869863,6.20733876 C13.4729575,6.08494761 13.4152963,5.97025319 13.322979,5.88111038 L7.10416669,0.166488979 C7.00729484,0.0812994182 6.88251524,0.0279112663 6.74922563,0.0146240332 C6.7198512,0.0112492617 6.69659643,0 6.66844594,0 L2.98807421,0 C1.33996603,0.00124061604 0.00424723234,1.22890748 0.00289742466,2.74369322 L0.00289742466,14.1763108 C0.00492281721,15.6910961 1.34118935,16.9182597 2.98929815,16.9188791 L6.75289742,16.9188791 C6.97196958,16.9188791 7.17440061,16.8114599 7.2839367,16.6370853 C7.39347278,16.4627107 7.39347278,16.2478723 7.2839367,16.0734976 C7.17440061,15.899123 6.97196958,15.7917038 6.75289742,15.7917038 Z M7.28286116,5.71687126 L7.28286116,1.92587242 L11.4075212,5.71687126 L7.28286116,5.71687126 L7.28286116,5.71687126 Z" id="Shape"></path>
                        <path d="M14.0854041,14.3742977 L16.8313152,11.712724 C17.058858,11.4921699 17.058858,11.1345811 16.8313152,10.9140269 C16.6037724,10.6934728 16.2348526,10.6934728 16.0073098,10.9140269 L13.2625592,13.5778505 L10.5154876,10.9151519 C10.2882653,10.6949084 9.91986505,10.6949084 9.69264272,10.9151519 C9.46542038,11.1353953 9.46542038,11.4924806 9.69264272,11.712724 L12.4397144,14.3742977 L9.69264272,17.0358714 C9.54544831,17.1785449 9.48796235,17.386496 9.54183924,17.5813916 C9.59571612,17.7762873 9.75277068,17.9285181 9.95384196,17.9807402 C10.1549132,18.0329623 10.3694538,17.977242 10.5166481,17.8345685 L13.2625592,15.1718699 L16.0084703,17.8334435 C16.1173831,17.9395787 16.2654523,17.9992528 16.4198928,17.9992528 C16.5743332,17.9992528 16.7224025,17.9395787 16.8313152,17.8334435 C16.9405277,17.7277285 17.001895,17.5842623 17.001895,17.4346575 C17.001895,17.2850526 16.9405277,17.1415864 16.8313152,17.0358714 L14.0854041,14.3742977 L14.0854041,14.3742977 Z" id="Shape"></path>
                    </g>
                    <g id="Group-11" transform="translate(95.000000, 118.000000)">
                        <path d="M6.75289742,15.7917038 L2.98807421,15.7917038 C2.017954,15.7904645 1.23185228,15.0679539 1.23050396,14.1763108 L1.23050396,2.74369322 C1.23050396,1.85275225 2.01871793,1.12830024 2.98807421,1.12830026 L6.05525464,1.12830026 L6.05525464,6.28045893 C6.05525464,6.59206329 6.33063995,6.84517152 6.66966986,6.8451715 L12.2752909,6.8451715 L12.2752909,9.02977678 C12.2752909,9.34134829 12.5501,9.59392691 12.8890942,9.59392691 C13.2280883,9.59392691 13.5028974,9.34134829 13.5028974,9.02977678 L13.5028974,6.28045893 C13.5028974,6.25458565 13.4906581,6.23321205 13.4869863,6.20733876 C13.4729575,6.08494761 13.4152963,5.97025319 13.322979,5.88111038 L7.10416669,0.166488979 C7.00729484,0.0812994182 6.88251524,0.0279112663 6.74922563,0.0146240332 C6.7198512,0.0112492617 6.69659643,0 6.66844594,0 L2.98807421,0 C1.33996603,0.00124061604 0.00424723234,1.22890748 0.00289742466,2.74369322 L0.00289742466,14.1763108 C0.00492281721,15.6910961 1.34118935,16.9182597 2.98929815,16.9188791 L6.75289742,16.9188791 C6.97196958,16.9188791 7.17440061,16.8114599 7.2839367,16.6370853 C7.39347278,16.4627107 7.39347278,16.2478723 7.2839367,16.0734976 C7.17440061,15.899123 6.97196958,15.7917038 6.75289742,15.7917038 Z M7.28286116,5.71687126 L7.28286116,1.92587242 L11.4075212,5.71687126 L7.28286116,5.71687126 L7.28286116,5.71687126 Z" id="Shape"></path>
                        <path d="M14.0854041,14.3742977 L16.8313152,11.712724 C17.058858,11.4921699 17.058858,11.1345811 16.8313152,10.9140269 C16.6037724,10.6934728 16.2348526,10.6934728 16.0073098,10.9140269 L13.2625592,13.5778505 L10.5154876,10.9151519 C10.2882653,10.6949084 9.91986505,10.6949084 9.69264272,10.9151519 C9.46542038,11.1353953 9.46542038,11.4924806 9.69264272,11.712724 L12.4397144,14.3742977 L9.69264272,17.0358714 C9.54544831,17.1785449 9.48796235,17.386496 9.54183924,17.5813916 C9.59571612,17.7762873 9.75277068,17.9285181 9.95384196,17.9807402 C10.1549132,18.0329623 10.3694538,17.977242 10.5166481,17.8345685 L13.2625592,15.1718699 L16.0084703,17.8334435 C16.1173831,17.9395787 16.2654523,17.9992528 16.4198928,17.9992528 C16.5743332,17.9992528 16.7224025,17.9395787 16.8313152,17.8334435 C16.9405277,17.7277285 17.001895,17.5842623 17.001895,17.4346575 C17.001895,17.2850526 16.9405277,17.1415864 16.8313152,17.0358714 L14.0854041,14.3742977 L14.0854041,14.3742977 Z" id="Shape"></path>
                    </g>
                </g>
            </g>
        </g>
    </g>
</svg>