<?xml version="1.0" encoding="UTF-8"?>
<svg width="16px" height="16px" viewBox="0 0 16 16" version="1.1" xmlns="http://www.w3.org/2000/svg" xmlns:xlink="http://www.w3.org/1999/xlink">
    <!-- Generator: Sketch 47.1 (45422) - http://www.bohemiancoding.com/sketch -->
    <title>关闭</title>
    <desc>Created with Sketch.</desc>
    <defs>
        <path d="M8,212 L530,212 L530,212 C534.418278,212 538,208.418278 538,204 L538,8 L538,8 C538,3.581722 534.418278,8.0701597e-15 530,8.8817842e-15 L8,4.93038066e-32 L8,0 C3.581722,8.11624501e-16 -5.41083001e-16,3.581722 0,8 L4.88268559e-16,204 L0,204 C5.41083001e-16,208.418278 3.581722,212 8,212 Z" id="path-1"></path>
    </defs>
    <g id="体检收费（新）" stroke="none" stroke-width="1" fill="none" fill-rule="evenodd">
        <g id="U-单位结算-弹框费用清单-V2.1-0223-汤黎-Copy" transform="translate(-1034.000000, -1052.000000)">
            <g id="Group-29-Copy-3" transform="translate(512.000000, 162.000000)">
                <g id="Group-Copy-7">
                    <g id="Group-11" transform="translate(20.000000, 873.000000)">
                        <g id="01">
                            <g id="Stroke-10">
                                <use fill="#FFFFFF" fill-rule="evenodd" xlink:href="#path-1"></use>
                                <path stroke="#D9D9D9" stroke-width="1" d="M8,211.5 L530,211.5 C534.142136,211.5 537.5,208.142136 537.5,204 L537.5,8 C537.5,3.85786438 534.142136,0.5 530,0.5 L8,0.5 C3.85786438,0.5 0.5,3.85786438 0.5,8 L0.5,204 C0.5,208.142136 3.85786438,211.5 8,211.5 Z"></path>
                            </g>
                            <g id="关闭" transform="translate(502.000000, 17.000000)">
                                <circle id="Oval" fill="#FF6262" cx="8" cy="8" r="8"></circle>
                                <path d="M11.4199396,11.9274924 L4.07250755,4.58006042 C3.97583082,4.48338369 3.97583082,4.33836858 4.07250755,4.24169185 L4.24169185,4.07250755 C4.33836858,3.97583082 4.48338369,3.97583082 4.58006042,4.07250755 L11.9274924,11.4199396 C12.0241692,11.5166163 12.0241692,11.6616314 11.9274924,11.7583082 L11.7583082,11.9274924 C11.6858006,12.0241692 11.5166163,12.0241692 11.4199396,11.9274924 Z" id="Shape" fill="#FFFFFF" fill-rule="nonzero"></path>
                                <path d="M4.06976283,11.4199396 L11.4197387,4.07250755 C11.516449,3.97583082 11.6615143,3.97583082 11.7582245,4.07250755 L11.9274673,4.24169185 C12.0241776,4.33836858 12.0241776,4.48338369 11.9274673,4.58006042 L4.60166899,11.9274924 C4.50495878,12.0241692 4.35989347,12.0241692 4.26318325,11.9274924 L4.09394039,11.7583082 C3.97305262,11.6616314 3.97305262,11.5166163 4.06976283,11.4199396 Z" id="Shape" fill="#FFFFFF" fill-rule="nonzero"></path>
                            </g>
                            <g id="关闭" transform="translate(502.000000, 17.000000)">
                                <circle id="Oval" fill="#FF6262" cx="8" cy="8" r="8"></circle>
                                <path d="M11.4199396,11.9274924 L4.07250755,4.58006042 C3.97583082,4.48338369 3.97583082,4.33836858 4.07250755,4.24169185 L4.24169185,4.07250755 C4.33836858,3.97583082 4.48338369,3.97583082 4.58006042,4.07250755 L11.9274924,11.4199396 C12.0241692,11.5166163 12.0241692,11.6616314 11.9274924,11.7583082 L11.7583082,11.9274924 C11.6858006,12.0241692 11.5166163,12.0241692 11.4199396,11.9274924 Z" id="Shape" fill="#FFFFFF" fill-rule="nonzero"></path>
                                <path d="M4.06976283,11.4199396 L11.4197387,4.07250755 C11.516449,3.97583082 11.6615143,3.97583082 11.7582245,4.07250755 L11.9274673,4.24169185 C12.0241776,4.33836858 12.0241776,4.48338369 11.9274673,4.58006042 L4.60166899,11.9274924 C4.50495878,12.0241692 4.35989347,12.0241692 4.26318325,11.9274924 L4.09394039,11.7583082 C3.97305262,11.6616314 3.97305262,11.5166163 4.06976283,11.4199396 Z" id="Shape" fill="#FFFFFF" fill-rule="nonzero"></path>
                            </g>
                        </g>
                    </g>
                </g>
            </g>
        </g>
    </g>
</svg>