<?xml version="1.0" encoding="UTF-8"?>
<svg width="16px" height="16px" viewBox="0 0 16 16" version="1.1" xmlns="http://www.w3.org/2000/svg" xmlns:xlink="http://www.w3.org/1999/xlink">
    <!-- Generator: Sketch 47.1 (45422) - http://www.bohemiancoding.com/sketch -->
    <title>关闭</title>
    <desc>Created with Sketch.</desc>
    <g id="关闭">
        <circle id="Oval" fill="#B3B3B3" cx="8" cy="8" r="8"></circle>
        <path d="M11.4199396,11.9274924 L4.07250755,4.58006042 C3.97583082,4.48338369 3.97583082,4.33836858 4.07250755,4.24169185 L4.24169185,4.07250755 C4.33836858,3.97583082 4.48338369,3.97583082 4.58006042,4.07250755 L11.9274924,11.4199396 C12.0241692,11.5166163 12.0241692,11.6616314 11.9274924,11.7583082 L11.7583082,11.9274924 C11.6858006,12.0241692 11.5166163,12.0241692 11.4199396,11.9274924 Z" id="Shape" fill="#FFFFFF" fill-rule="nonzero"></path>
        <path d="M4.06976283,11.4199396 L11.4197387,4.07250755 C11.516449,3.97583082 11.6615143,3.97583082 11.7582245,4.07250755 L11.9274673,4.24169185 C12.0241776,4.33836858 12.0241776,4.48338369 11.9274673,4.58006042 L4.60166899,11.9274924 C4.50495878,12.0241692 4.35989347,12.0241692 4.26318325,11.9274924 L4.09394039,11.7583082 C3.97305262,11.6616314 3.97305262,11.5166163 4.06976283,11.4199396 Z" id="Shape" fill="#FFFFFF" fill-rule="nonzero"></path>
    </g>
</svg>