<?xml version="1.0" encoding="UTF-8"?>
<svg width="14px" height="14px" viewBox="0 0 14 14" version="1.1" xmlns="http://www.w3.org/2000/svg" xmlns:xlink="http://www.w3.org/1999/xlink">
    <!-- Generator: Sketch 47.1 (45422) - http://www.bohemiancoding.com/sketch -->
    <title>Oval Copy</title>
    <desc>Created with Sketch.</desc>
    <defs></defs>
    <g id="规范" stroke="none" stroke-width="1" fill="none" fill-rule="evenodd">
        <g id="icon" transform="translate(-147.000000, -216.000000)">
            <circle id="Oval-Copy" fill="#B3B3B3" cx="154" cy="223" r="7"></circle>
            <path d="M156.564955,225.945619 L151.054381,220.435045 C150.981873,220.362538 150.981873,220.253776 151.054381,220.181269 L151.181269,220.054381 C151.253776,219.981873 151.362538,219.981873 151.435045,220.054381 L156.945619,225.564955 C157.018127,225.637462 157.018127,225.746224 156.945619,225.818731 L156.818731,225.945619 C156.76435,226.018127 156.637462,226.018127 156.564955,225.945619 Z" id="Shape-Copy" fill="#FFFFFF" fill-rule="nonzero"></path>
            <path d="M151.052322,225.564955 L156.564804,220.054381 C156.637337,219.981873 156.746136,219.981873 156.818668,220.054381 L156.945601,220.181269 C157.018133,220.253776 157.018133,220.362538 156.945601,220.435045 L151.451252,225.945619 C151.378719,226.018127 151.26992,226.018127 151.197387,225.945619 L151.070455,225.818731 C150.979789,225.746224 150.979789,225.637462 151.052322,225.564955 Z" id="Shape-Copy-2" fill="#FFFFFF" fill-rule="nonzero"></path>
        </g>
    </g>
</svg>