<?xml version="1.0" encoding="UTF-8"?>
<svg width="13px" height="13px" viewBox="0 0 13 13" version="1.1" xmlns="http://www.w3.org/2000/svg" xmlns:xlink="http://www.w3.org/1999/xlink">
    <!-- Generator: Sketch 47.1 (45422) - http://www.bohemiancoding.com/sketch -->
    <title>Group 5</title>
    <desc>Created with Sketch.</desc>
    <defs></defs>
    <g id="Page-1" stroke="none" stroke-width="1" fill="none" fill-rule="evenodd">
        <g id="Group-5" fill="#49A50E">
            <path d="M9.53412784,12.5396201 L1.35789093,12.5396201 C0.606717217,12.5396201 -1.25411927e-08,11.9871159 0,11.303063 L0,3.01549936 C0,2.33144648 0.60671723,1.77894224 1.35789093,1.77894224 L2.71397616,1.77894224 C2.97399783,1.77894224 2.17623691,1.96311032 2.17623691,2.19989786 C2.17623691,2.43668539 2.97399784,2.62085348 2.71397616,2.62085346 L1.35789093,2.62085346 C1.09786926,2.62085346 0.895630178,2.80502154 0.895630191,3.04180908 L0.895630191,11.3293727 C0.895630191,11.5661603 1.09786926,11.7503284 1.35789093,11.7503284 L9.53412784,11.7503284 C9.79414951,11.7503284 9.99638859,11.5661603 9.99638859,11.3293727 L9.99638859,10.0098388 C9.99638859,10.0114388 10.1986277,10.4783543 10.4586493,10.4783543 C10.718671,10.4783543 10.9209101,9.9152202 10.9209101,10.0098388 L10.9209101,11.303063 C10.9209101,11.9871159 10.2853016,12.5396201 9.53412784,12.5396201 Z" id="Path"></path>
            <path d="M11.5341278,10.7606779 L3.35789093,10.7606779 C2.60671722,10.7606779 1.99999999,10.2081737 2,9.52412078 L2,1.23655712 C2,0.552504247 2.60671723,0 3.35789093,0 L9.71397616,0 C9.97399783,0 10.1762369,0.184168079 10.1762369,0.420955619 C10.1762369,0.657743149 9.97399784,0.672985513 9.71397616,0.672985501 L3.30296479,0.672985501 C3.04294313,0.672985501 2.89563018,1.02607931 2.89563019,1.26286685 L2.89563019,9.55043051 C2.89563019,9.78721804 3.09786926,9.97138613 3.35789093,9.97138613 L11.5341278,9.97138613 C11.7941495,9.97138613 11.9963886,9.78721805 11.9963886,9.55043051 L11.9963886,2.89406985 C11.9963886,2.65728232 12.1986277,2.47311423 12.4586493,2.47311423 C12.718671,2.47311423 12.9209101,2.65728231 12.9209101,2.89406985 L12.9209101,9.52412078 C12.9209101,10.2081737 12.2853016,10.7606779 11.5341278,10.7606779 Z" id="Path"></path>
            <path d="M11.5341278,0 C12.2853016,1.5800181e-15 12.9209101,0.552504247 12.9209101,1.23655712 L12.9209101,7.86660805 C12.9209101,8.10339559 12.718671,8.28756367 12.4586493,8.28756367 C12.1986277,8.28756367 11.9963886,8.10339558 11.9963886,7.86660805 L11.9963886,1.2102474 C11.9963886,0.973459855 11.7941495,0.789291777 11.5341278,0.789291777 L3.35789093,0.789291777 C3.09786926,0.789291777 2.89563019,0.973459866 2.89563019,1.2102474 L2.89563019,9.49781106 C2.89563018,9.7345986 3.09786926,9.91876667 3.35789093,9.91876667 L9.77514648,9.97317592 C10.0351682,9.9731759 10.1762369,10.1029348 10.1762369,10.3397223 C10.1762369,10.5765098 9.97399783,10.7606779 9.71397616,10.7606779 L3.35789093,10.7606779 C2.60671723,10.7606779 2,10.2081737 2,9.52412078 L2,1.23655712 C1.99999999,0.552504247 2.60671722,0 3.35789093,0 L11.5341278,0 Z" id="Path"></path>
            <path d="M5.52072609,4.94653015 C5.22781766,4.94653015 4.99999999,4.73947668 5,4.47326508 C5,4.20705348 5.22781766,4 5.52072609,4 L9.41884909,4 C9.71175752,4 9.9395752,4.20705347 9.9395752,4.47326508 C9.90702981,4.70989761 9.67921215,4.94653016 9.38630371,4.94653015 L5.52072609,4.94653015 Z" id="Path" fill-rule="nonzero"></path>
            <path d="M5.52072609,6.94653015 C5.22781766,6.94653015 4.99999999,6.73947668 5,6.47326508 C5,6.20705348 5.22781766,6 5.52072609,6 L9.41884909,6 C9.71175752,6 9.9395752,6.20705347 9.9395752,6.47326508 C9.90702981,6.70989761 9.67921215,6.94653016 9.38630371,6.94653015 L5.52072609,6.94653015 Z" id="Path" fill-rule="nonzero"></path>
        </g>
    </g>
</svg>