<?xml version="1.0" encoding="UTF-8"?>
<svg width="12px" height="11px" viewBox="0 0 12 11" version="1.1" xmlns="http://www.w3.org/2000/svg" xmlns:xlink="http://www.w3.org/1999/xlink">
    <!-- Generator: Sketch 47.1 (45422) - http://www.bohemiancoding.com/sketch -->
    <title>向下-2</title>
    <desc>Created with Sketch.</desc>
    <defs></defs>
    <g id="Page-1" stroke="none" stroke-width="1" fill="none" fill-rule="evenodd">
        <g id="U-经济类型管理-经济类型列表1-V2.1-0119-张宇" transform="translate(-330.000000, -176.000000)" fill-rule="nonzero" fill="#008CEE">
            <g id="Group-13" transform="translate(236.000000, 122.000000)">
                <g id="Group-7" transform="translate(10.000000, 50.000000)">
                    <g id="Group-17" transform="translate(1.000000, 0.000000)">
                        <g id="Group-16">
                            <g id="向上-2" transform="translate(88.351412, 9.351412) scale(1, -1) rotate(90.000000) translate(-88.351412, -9.351412) translate(83.351412, 3.351412)">
                                <path d="M3.71099601,10.0471677 C3.4752783,10.2789378 3.4752783,10.6778654 3.71099601,10.918403 C3.9554826,11.1633513 4.3434339,11.1633513 4.58499154,10.918403 L9.51127234,5.99014601 C9.74697208,5.7451977 9.74699005,5.35210301 9.51127234,5.11156543 L4.58497357,0.180409939 C4.34487142,-0.0601456478 3.95546463,-0.0601276448 3.71099601,0.180409939 C3.4752783,0.425358249 3.4752783,0.811107729 3.71099601,1.05603804 L8.20100678,5.54572488 L3.71099601,10.0471497 L3.71099601,10.0471677 Z" id="Shape" transform="translate(6.611131, 5.551057) scale(-1, 1) translate(-6.611131, -5.551057) "></path>
                                <path d="M0.176806247,10.0471677 C-0.0589114571,10.2789378 -0.0589114571,10.6778654 0.176806247,10.918403 C0.421292837,11.1633513 0.809244144,11.1633513 1.05078381,10.918403 L5.97706461,5.99014601 C6.21276435,5.7451977 6.21278232,5.35210301 5.97706461,5.11156543 L1.05076584,0.180409939 C0.810663697,-0.0601456478 0.421256899,-0.0601276448 0.176788278,0.180409939 C-0.0589294261,0.425358249 -0.0589294261,0.811107729 0.176788278,1.05603804 L4.66681703,5.54574288 L0.176788278,10.0471857 L0.176806247,10.0471677 Z" id="Shape" transform="translate(3.076923, 5.551057) scale(-1, 1) translate(-3.076923, -5.551057) "></path>
                            </g>
                        </g>
                    </g>
                </g>
            </g>
        </g>
    </g>
</svg>