<?xml version="1.0" encoding="UTF-8"?>
<svg width="14px" height="15px" viewBox="0 0 14 15" version="1.1" xmlns="http://www.w3.org/2000/svg" xmlns:xlink="http://www.w3.org/1999/xlink">
    <!-- Generator: Sketch 47.1 (45422) - http://www.bohemiancoding.com/sketch -->
    <title>Shape</title>
    <desc>Created with Sketch.</desc>
    <defs></defs>
    <g id="综合管理_个人体检" stroke="none" stroke-width="1" fill="none" fill-rule="evenodd">
        <g id="图标" transform="translate(-147.000000, -114.000000)" fill-rule="nonzero" fill="#008CEE">
            <path d="M147.198716,125.129441 C147.045855,125.375894 146.966423,125.792035 147.013505,126.071484 L147.420762,128.488689 C147.468104,128.769678 147.724848,128.929929 147.994794,128.850059 L150.329807,128.159198 C150.601242,128.078888 150.939679,127.819352 151.08905,127.578525 L155.713899,120.122012 C155.866759,119.875558 155.791306,119.564422 155.553162,119.414503 L152.525223,117.508323 C152.281664,117.354995 151.972936,117.4321 151.823564,117.672928 L147.198716,125.129441 Z M152.973391,115.819094 C152.820983,116.064817 152.894817,116.378566 153.132961,116.528485 L156.160899,118.434664 C156.404458,118.587992 156.713709,118.510045 156.863726,118.268178 L157.839813,116.694459 C157.992221,116.448736 157.918388,116.134987 157.680244,115.985068 L154.652305,114.078889 C154.408746,113.925561 154.099495,114.003508 153.949479,114.245375 L152.973391,115.819094 Z M148.342218,124.921059 C148.218656,125.120276 148.276786,125.392618 148.478215,125.519423 C148.673752,125.64252 148.945336,125.583924 149.071656,125.380262 L152.868375,119.258919 C152.991938,119.059702 152.933807,118.78736 152.732378,118.660555 C152.536841,118.537458 152.265257,118.596054 152.138937,118.799716 L148.342218,124.921059 Z M153.85011,129 C154.418153,129 154.871523,128.539287 154.871523,127.970968 C154.871523,127.398687 154.41422,126.941936 153.85011,126.941936 C153.282066,126.941936 152.828697,127.402649 152.828697,127.970968 C152.828697,128.543249 153.285999,129 153.85011,129 Z M156.914348,129 C157.482392,129 157.935761,128.539287 157.935761,127.970968 C157.935761,127.398687 157.478459,126.941936 156.914348,126.941936 C156.346305,126.941936 155.892935,127.402649 155.892935,127.970968 C155.892935,128.543249 156.350238,129 156.914348,129 Z M159.978587,129 C160.546631,129 161,128.539287 161,127.970968 C161,127.398687 160.542698,126.941936 159.978587,126.941936 C159.410543,126.941936 158.957174,127.402649 158.957174,127.970968 C158.957174,128.543249 159.414476,129 159.978587,129 Z" id="Shape"></path>
        </g>
    </g>
</svg>