<?xml version="1.0" encoding="UTF-8"?>
<svg width="14px" height="14px" viewBox="0 0 14 14" version="1.1" xmlns="http://www.w3.org/2000/svg" xmlns:xlink="http://www.w3.org/1999/xlink">
    <!-- Generator: Sketch 47.1 (45422) - http://www.bohemiancoding.com/sketch -->
    <title>感叹号黄</title>
    <desc>Created with Sketch.</desc>
    <defs></defs>
    <g id="综合管理_个人体检" stroke="none" stroke-width="1" fill="none" fill-rule="evenodd">
        <g id="图标" transform="translate(-44.000000, -93.000000)" fill="#F5A623">
            <path d="M51,107 C47.1340068,107 44,103.865993 44,100 C44,96.1340068 47.1340068,93 51,93 C54.8659932,93 58,96.1340068 58,100 C58,103.865993 54.8659932,107 51,107 Z M51.999206,96.1666667 C52.0214382,95.5223345 51.5740784,95 51,95 C50.4259216,95 49.9785618,95.5223345 50.000794,96.1666667 L50.1618139,100.833333 C50.1840461,101.477666 50.5593148,102 51,102 C51.4406852,102 51.8159539,101.477666 51.8381861,100.833333 L51.999206,96.1666667 Z M51,105 C51.5522847,105 52,104.552285 52,104 C52,103.447715 51.5522847,103 51,103 C50.4477153,103 50,103.447715 50,104 C50,104.552285 50.4477153,105 51,105 Z" id="Combined-Shape-Copy"></path>
        </g>
    </g>
</svg>