<?xml version="1.0" encoding="UTF-8"?>
<svg width="18px" height="18px" viewBox="0 0 18 18" version="1.1" xmlns="http://www.w3.org/2000/svg" xmlns:xlink="http://www.w3.org/1999/xlink">
    <!-- Generator: Sketch 47.1 (45422) - http://www.bohemiancoding.com/sketch -->
    <title>Group 2</title>
    <desc>Created with Sketch.</desc>
    <defs></defs>
    <g id="主检、分检、采样" stroke="none" stroke-width="1" fill="none" fill-rule="evenodd">
        <g id="U-采样台-0206-汤梨" transform="translate(-1127.000000, -670.000000)">
            <g id="02" transform="translate(235.000000, 226.000000)">
                <g id="icon" transform="translate(892.000000, 325.000000)">
                    <g id="Group-2" transform="translate(0.000000, 119.000000)">
                        <path d="M16.4784894,4.07049978e-05 L1.49022637,4.07049978e-05 C1.09805401,-0.00265249662 0.72072341,0.131180523 0.441249139,0.372095851 C0.161774868,0.613011178 0.00305187917,0.941272665 0,1.28466119 L0,16.6978592 C0.00305187917,17.0412478 0.161774868,17.3695093 0.441249139,17.6104246 C0.72072341,17.8513399 1.09805401,17.9851729 1.49022637,17.9824797 L16.4797729,17.9824797 C16.8719453,17.9851729 17.2492759,17.8513399 17.5287502,17.6104246 C17.8082244,17.3695093 17.9669474,17.0412478 17.9699993,16.6978592 L17.9699993,1.28466119 C17.9629395,0.569408886 17.2953605,-0.00556927792 16.4784894,4.07049978e-05 Z M16.7787677,16.6978592 C16.7759592,16.8411655 16.6421004,16.9558691 16.4784134,16.9552329 L1.4902195,16.9552329 C1.41158097,16.9558316 1.33589195,16.9290513 1.27980466,16.8807838 C1.22371737,16.8325164 1.19182665,16.7667159 1.19114875,16.6978592 L1.19114875,1.28466119 C1.19326104,1.14153506 1.32674862,1.02665861 1.4902195,1.02728753 L16.4796969,1.02728753 C16.6431678,1.02665861 16.7766554,1.14153506 16.7787677,1.28466119 L16.7787677,16.6978592 L16.7787677,16.6978592 Z M3.36807577,8.54619485 L3.36807577,8.54619485 L3.36807577,8.54619485 C3.36807577,8.79199767 3.56733832,8.99126022 3.81314113,8.99126022 L14.1542082,8.99126022 L14.1542082,8.99126022 C14.400011,8.99126022 14.5992735,8.79199767 14.5992735,8.54619485 L14.5992735,8.54619485 L14.5992735,8.54619485 C14.5992735,8.30039204 14.400011,8.10112949 14.1542082,8.10112949 L3.81314113,8.10112949 L3.81314113,8.10112949 C3.56733832,8.10112949 3.36807577,8.30039204 3.36807577,8.54619485 Z M3.81314113,6.74345534 L14.1542082,6.74345534 L14.1542082,6.74345534 C14.400011,6.74345534 14.5992735,6.54419279 14.5992735,6.29838997 L14.5992735,6.29838997 L14.5992735,6.29838997 C14.5992735,6.05258716 14.400011,5.85332461 14.1542082,5.85332461 L3.81314113,5.85332461 L3.81314113,5.85332461 C3.56733832,5.85332461 3.36807577,6.05258716 3.36807577,6.29838997 L3.36807577,6.29838997 L3.36807577,6.29838997 C3.36807577,6.54419279 3.56733832,6.74345534 3.81314113,6.74345534 Z M3.36807577,4.0505851 L3.36807577,4.0505851 L3.36807577,4.0505851 C3.36807577,4.29638791 3.56733832,4.49565046 3.81314113,4.49565046 L14.1542082,4.49565046 L14.1542082,4.49565046 C14.400011,4.49565046 14.5992735,4.29638791 14.5992735,4.0505851 L14.5992735,4.0505851 L14.5992735,4.0505851 C14.5992735,3.80478228 14.400011,3.60551973 14.1542082,3.60551973 L3.81314113,3.60551973 L3.81314113,3.60551973 C3.56733832,3.60551973 3.36807577,3.80478228 3.36807577,4.0505851 Z" id="Shape" fill="#008CEE" fill-rule="nonzero"></path>
                        <polyline id="Path-2" stroke="#008CEE" stroke-linecap="round" stroke-linejoin="round" points="6 12.81125 8.10608698 14.9977778 11.9283432 10.9652151"></polyline>
                    </g>
                    <g id="Group-2" transform="translate(0.000000, 119.000000)">
                        <path d="M16.4784894,4.07049978e-05 L1.49022637,4.07049978e-05 C1.09805401,-0.00265249662 0.72072341,0.131180523 0.441249139,0.372095851 C0.161774868,0.613011178 0.00305187917,0.941272665 0,1.28466119 L0,16.6978592 C0.00305187917,17.0412478 0.161774868,17.3695093 0.441249139,17.6104246 C0.72072341,17.8513399 1.09805401,17.9851729 1.49022637,17.9824797 L16.4797729,17.9824797 C16.8719453,17.9851729 17.2492759,17.8513399 17.5287502,17.6104246 C17.8082244,17.3695093 17.9669474,17.0412478 17.9699993,16.6978592 L17.9699993,1.28466119 C17.9629395,0.569408886 17.2953605,-0.00556927792 16.4784894,4.07049978e-05 Z M16.7787677,16.6978592 C16.7759592,16.8411655 16.6421004,16.9558691 16.4784134,16.9552329 L1.4902195,16.9552329 C1.41158097,16.9558316 1.33589195,16.9290513 1.27980466,16.8807838 C1.22371737,16.8325164 1.19182665,16.7667159 1.19114875,16.6978592 L1.19114875,1.28466119 C1.19326104,1.14153506 1.32674862,1.02665861 1.4902195,1.02728753 L16.4796969,1.02728753 C16.6431678,1.02665861 16.7766554,1.14153506 16.7787677,1.28466119 L16.7787677,16.6978592 L16.7787677,16.6978592 Z M3.36807577,8.54619485 L3.36807577,8.54619485 L3.36807577,8.54619485 C3.36807577,8.79199767 3.56733832,8.99126022 3.81314113,8.99126022 L14.1542082,8.99126022 L14.1542082,8.99126022 C14.400011,8.99126022 14.5992735,8.79199767 14.5992735,8.54619485 L14.5992735,8.54619485 L14.5992735,8.54619485 C14.5992735,8.30039204 14.400011,8.10112949 14.1542082,8.10112949 L3.81314113,8.10112949 L3.81314113,8.10112949 C3.56733832,8.10112949 3.36807577,8.30039204 3.36807577,8.54619485 Z M3.81314113,6.74345534 L14.1542082,6.74345534 L14.1542082,6.74345534 C14.400011,6.74345534 14.5992735,6.54419279 14.5992735,6.29838997 L14.5992735,6.29838997 L14.5992735,6.29838997 C14.5992735,6.05258716 14.400011,5.85332461 14.1542082,5.85332461 L3.81314113,5.85332461 L3.81314113,5.85332461 C3.56733832,5.85332461 3.36807577,6.05258716 3.36807577,6.29838997 L3.36807577,6.29838997 L3.36807577,6.29838997 C3.36807577,6.54419279 3.56733832,6.74345534 3.81314113,6.74345534 Z M3.36807577,4.0505851 L3.36807577,4.0505851 L3.36807577,4.0505851 C3.36807577,4.29638791 3.56733832,4.49565046 3.81314113,4.49565046 L14.1542082,4.49565046 L14.1542082,4.49565046 C14.400011,4.49565046 14.5992735,4.29638791 14.5992735,4.0505851 L14.5992735,4.0505851 L14.5992735,4.0505851 C14.5992735,3.80478228 14.400011,3.60551973 14.1542082,3.60551973 L3.81314113,3.60551973 L3.81314113,3.60551973 C3.56733832,3.60551973 3.36807577,3.80478228 3.36807577,4.0505851 Z" id="Shape" fill="#008CEE" fill-rule="nonzero"></path>
                        <polyline id="Path-2" stroke="#008CEE" stroke-linecap="round" stroke-linejoin="round" points="6 12.81125 8.10608698 14.9977778 11.9283432 10.9652151"></polyline>
                    </g>
                </g>
            </g>
        </g>
    </g>
</svg>