<?xml version="1.0" encoding="UTF-8"?>
<svg width="18px" height="14px" viewBox="0 0 18 14" version="1.1" xmlns="http://www.w3.org/2000/svg" xmlns:xlink="http://www.w3.org/1999/xlink">
    <!-- Generator: Sketch 47.1 (45422) - http://www.bohemiancoding.com/sketch -->
    <title>Group 12</title>
    <desc>Created with Sketch.</desc>
    <defs></defs>
    <g id="主检、采样" stroke="none" stroke-width="1" fill="none" fill-rule="evenodd">
        <g id="U-主检（职业）-0205-汤梨" transform="translate(-637.000000, -566.000000)" fill="#1AD4AA">
            <g id="05" transform="translate(234.000000, 462.000000)">
                <g id="Group-50">
                    <g id="图片-copy-9" transform="translate(403.000000, 104.000000)">
                        <g id="Group-12">
                            <path d="M5.4599902,4.99946386 C6.07373182,5.01582444 6.63551176,4.65650037 6.87797979,4.09244634 C7.1205072,3.52840716 6.99477479,2.87349401 6.56064241,2.43935962 C6.12651003,2.00522523 5.47158507,1.87949224 4.9075485,2.12202078 C4.34351194,2.36448992 3.98418953,2.92627247 4.00053518,3.54001694 C4.02182463,4.3370682 4.66294263,4.97818917 5.4599902,4.99946386 Z M5.4757653,3.00059623 C5.75021809,2.98730116 5.98399143,3.19794927 5.99922294,3.47236658 C6.0144048,3.74672181 5.80530974,3.98194906 5.53104317,3.9990179 C5.25677659,4.01608674 5.02014811,3.80864136 5.00119251,3.53448475 C4.99191954,3.40040435 5.03701823,3.26826049 5.126297,3.16783363 C5.21556336,3.06736954 5.34154922,3.00713826 5.4757653,3.00059623 Z M15.0881722,4.11304664 L10.5503816,9.11970671 L7.24909436,6.83097476 C7.13370028,6.72073776 6.9765941,6.66440565 6.81695565,6.67600035 C6.65724686,6.66440565 6.50014068,6.72073776 6.3847466,6.83097476 L3.16748145,11.0508887 C3.06038758,11.1540885 3,11.2960364 3,11.444253 C3,11.5924697 3.06038758,11.7343477 3.16748145,11.8376174 C3.39127071,12.0541275 3.74805684,12.0541275 3.97179334,11.8376174 L6.94898533,7.9515227 L10.2022474,10.2402721 C10.4386101,10.4483831 10.7942356,10.4483831 11.0305982,10.2402721 L15.8324658,4.94753364 C15.9395421,4.84426393 16,4.7023161 16,4.5541693 C16,4.40595264 15.9395421,4.26400481 15.8324658,4.1607351 C15.6296029,3.96605232 15.3145816,3.94586636 15.0881722,4.11304664 Z" id="Fill-1"></path>
                            <path d="M16.6500222,5.01189869e-05 L1.34997775,5.01189869e-05 C0.993029118,-0.00309440942 0.649593776,0.141844424 0.396087737,0.402515575 C0.142581698,0.663203815 0,1.01809119 0,1.38832523 L0,12.5999191 C0.00611394011,13.3704994 0.606977472,13.9936117 1.34997775,13.999952 L16.6500222,13.999952 C17.0070368,14.0030282 17.3504721,13.8581577 17.6039782,13.5974011 C17.8574677,13.3367128 18.0000659,12.9818426 18,12.6116085 L18,1.38832523 C17.987838,0.622359126 17.3887048,0.00625372665 16.6500222,5.01189869e-05 Z M17,12.0399965 C17.000067,12.56557 16.5976253,12.9934785 16.0971471,13 L1.90283617,13 C1.40237474,12.9934785 1,12.56557 1,12.0399965 L1,1.96002109 C1,1.4344476 1.40237474,1.00659186 1.90283617,1 L16.0971471,1 C16.5976253,1.00659186 17.000067,1.4344476 17,1.96002109 L17,12.0399965 Z" id="Fill-2"></path>
                        </g>
                        <g id="Group-12">
                            <path d="M5.4599902,4.99946386 C6.07373182,5.01582444 6.63551176,4.65650037 6.87797979,4.09244634 C7.1205072,3.52840716 6.99477479,2.87349401 6.56064241,2.43935962 C6.12651003,2.00522523 5.47158507,1.87949224 4.9075485,2.12202078 C4.34351194,2.36448992 3.98418953,2.92627247 4.00053518,3.54001694 C4.02182463,4.3370682 4.66294263,4.97818917 5.4599902,4.99946386 Z M5.4757653,3.00059623 C5.75021809,2.98730116 5.98399143,3.19794927 5.99922294,3.47236658 C6.0144048,3.74672181 5.80530974,3.98194906 5.53104317,3.9990179 C5.25677659,4.01608674 5.02014811,3.80864136 5.00119251,3.53448475 C4.99191954,3.40040435 5.03701823,3.26826049 5.126297,3.16783363 C5.21556336,3.06736954 5.34154922,3.00713826 5.4757653,3.00059623 Z M15.0881722,4.11304664 L10.5503816,9.11970671 L7.24909436,6.83097476 C7.13370028,6.72073776 6.9765941,6.66440565 6.81695565,6.67600035 C6.65724686,6.66440565 6.50014068,6.72073776 6.3847466,6.83097476 L3.16748145,11.0508887 C3.06038758,11.1540885 3,11.2960364 3,11.444253 C3,11.5924697 3.06038758,11.7343477 3.16748145,11.8376174 C3.39127071,12.0541275 3.74805684,12.0541275 3.97179334,11.8376174 L6.94898533,7.9515227 L10.2022474,10.2402721 C10.4386101,10.4483831 10.7942356,10.4483831 11.0305982,10.2402721 L15.8324658,4.94753364 C15.9395421,4.84426393 16,4.7023161 16,4.5541693 C16,4.40595264 15.9395421,4.26400481 15.8324658,4.1607351 C15.6296029,3.96605232 15.3145816,3.94586636 15.0881722,4.11304664 Z" id="Fill-1"></path>
                            <path d="M16.6500222,5.01189869e-05 L1.34997775,5.01189869e-05 C0.993029118,-0.00309440942 0.649593776,0.141844424 0.396087737,0.402515575 C0.142581698,0.663203815 0,1.01809119 0,1.38832523 L0,12.5999191 C0.00611394011,13.3704994 0.606977472,13.9936117 1.34997775,13.999952 L16.6500222,13.999952 C17.0070368,14.0030282 17.3504721,13.8581577 17.6039782,13.5974011 C17.8574677,13.3367128 18.0000659,12.9818426 18,12.6116085 L18,1.38832523 C17.987838,0.622359126 17.3887048,0.00625372665 16.6500222,5.01189869e-05 Z M17,12.0399965 C17.000067,12.56557 16.5976253,12.9934785 16.0971471,13 L1.90283617,13 C1.40237474,12.9934785 1,12.56557 1,12.0399965 L1,1.96002109 C1,1.4344476 1.40237474,1.00659186 1.90283617,1 L16.0971471,1 C16.5976253,1.00659186 17.000067,1.4344476 17,1.96002109 L17,12.0399965 Z" id="Fill-2"></path>
                        </g>
                    </g>
                </g>
            </g>
        </g>
    </g>
</svg>