<?xml version="1.0" encoding="UTF-8"?>
<svg width="9px" height="12px" viewBox="0 0 9 12" version="1.1" xmlns="http://www.w3.org/2000/svg" xmlns:xlink="http://www.w3.org/1999/xlink">
    <!-- Generator: Sketch 47.1 (45422) - http://www.bohemiancoding.com/sketch -->
    <title>Group</title>
    <desc>Created with Sketch.</desc>
    <defs></defs>
    <g id="综合管理_个人体检" stroke="none" stroke-width="1" fill="none" fill-rule="evenodd">
        <g id="图标" transform="translate(-177.000000, -115.000000)">
            <g id="Group" transform="translate(177.000000, 115.000000)">
                <path d="M7.71428571,4.60606061 L7.71428571,2.3030303 C7.71428571,1.03030303 6.6302521,6.30808537e-17 5.30672269,6.30808537e-17 L3.69327731,0 C2.35714286,0 1.28571429,1.03030303 1.28571429,2.3030303 L1.28571429,4.60606061 C0.579831933,4.60606061 0,5.15151515 0,5.84242424 L0,10.7636364 C0,11.4424242 0.579831933,12 1.28571429,12 L7.71428571,12 C8.42016807,12 9,11.4545455 9,10.7636364 L9,5.83030303 C9,5.15151515 8.42016807,4.60606061 7.71428571,4.60606061 Z M6.42857143,4.60606061 L2.57142857,4.60606061 L2.57142857,2.60606061 C2.57142857,1.84242424 3.21428571,1.22424242 4.0210084,1.22424242 L4.9789916,1.22424242 C5.77310924,1.22424242 6.42857143,1.84242424 6.42857143,2.60606061 L6.42857143,4.60606061 Z" id="Shape" fill="#CCCCCC" fill-rule="nonzero"></path>
                <path d="M5.45798319,9.83030303 C5.45798319,10 5.31932773,10.1333333 5.14285714,10.1333333 L3.85714286,10.1333333 C3.68067227,10.1333333 3.54201681,10 3.54201681,9.83030303 L4.1092437,8.20606061 C3.78151261,8.06060606 3.54201681,7.74545455 3.54201681,7.36969697 C3.54201681,6.86060606 3.97058824,6.44848485 4.5,6.44848485 C5.02941176,6.44848485 5.45798319,6.86060606 5.45798319,7.36969697 C5.45798319,7.74545455 5.23109244,8.06060606 4.8907563,8.20606061 L5.45798319,9.83030303 Z" id="Path" fill="#FFFFFF"></path>
            </g>
        </g>
    </g>
</svg>