<?xml version="1.0" encoding="UTF-8"?>
<svg width="12px" height="16px" viewBox="0 0 12 16" version="1.1" xmlns="http://www.w3.org/2000/svg" xmlns:xlink="http://www.w3.org/1999/xlink">
    <!-- Generator: Sketch 47.1 (45422) - http://www.bohemiancoding.com/sketch -->
    <title>Shape</title>
    <desc>Created with Sketch.</desc>
    <defs></defs>
    <g id="主检分检" stroke="none" stroke-width="1" fill="none" fill-rule="evenodd">
        <g id="U-主检-已审核下拉效果-0205-汤梨" transform="translate(-706.000000, -530.000000)">
            <g id="Group-56" transform="translate(583.000000, 177.000000)">
                <g id="Group-Copy" transform="translate(123.000000, 353.000000)">
                    <path d="M10.2857143,6.14141414 L10.2857143,3.07070707 C10.2857143,1.37373737 8.84033613,8.41078049e-17 7.07563025,8.41078049e-17 L4.92436975,0 C3.14285714,0 1.71428571,1.37373737 1.71428571,3.07070707 L1.71428571,6.14141414 C0.773109244,6.14141414 0,6.86868687 0,7.78989899 L0,14.3515152 C0,15.2565657 0.773109244,16 1.71428571,16 L10.2857143,16 C11.2268908,16 12,15.2727273 12,14.3515152 L12,7.77373737 C12,6.86868687 11.2268908,6.14141414 10.2857143,6.14141414 Z M8.57142857,6.14141414 L3.42857143,6.14141414 L3.42857143,3.47474747 C3.42857143,2.45656566 4.28571429,1.63232323 5.36134454,1.63232323 L6.63865546,1.63232323 C7.69747899,1.63232323 8.57142857,2.45656566 8.57142857,3.47474747 L8.57142857,6.14141414 Z" id="Shape" fill="#B3B3B3" fill-rule="nonzero"></path>
                    <path d="M10.2857143,6.14141414 L10.2857143,3.07070707 C10.2857143,1.37373737 8.84033613,8.41078049e-17 7.07563025,8.41078049e-17 L4.92436975,0 C3.14285714,0 1.71428571,1.37373737 1.71428571,3.07070707 L1.71428571,6.14141414 C0.773109244,6.14141414 0,6.86868687 0,7.78989899 L0,14.3515152 C0,15.2565657 0.773109244,16 1.71428571,16 L10.2857143,16 C11.2268908,16 12,15.2727273 12,14.3515152 L12,7.77373737 C12,6.86868687 11.2268908,6.14141414 10.2857143,6.14141414 Z M8.57142857,6.14141414 L3.42857143,6.14141414 L3.42857143,3.47474747 C3.42857143,2.45656566 4.28571429,1.63232323 5.36134454,1.63232323 L6.63865546,1.63232323 C7.69747899,1.63232323 8.57142857,2.45656566 8.57142857,3.47474747 L8.57142857,6.14141414 Z" id="Shape" fill="#B3B3B3" fill-rule="nonzero"></path>
                    <path d="M7.27731092,13.1070707 C7.27731092,13.3333333 7.09243697,13.5111111 6.85714286,13.5111111 L5.14285714,13.5111111 C4.90756303,13.5111111 4.72268908,13.3333333 4.72268908,13.1070707 L5.4789916,10.9414141 C5.04201681,10.7474747 4.72268908,10.3272727 4.72268908,9.82626263 C4.72268908,9.14747475 5.29411765,8.5979798 6,8.5979798 C6.70588235,8.5979798 7.27731092,9.14747475 7.27731092,9.82626263 C7.27731092,10.3272727 6.97478992,10.7474747 6.5210084,10.9414141 L7.27731092,13.1070707 Z" id="Path" fill="#FFFFFF"></path>
                </g>
            </g>
        </g>
    </g>
</svg>