<?xml version="1.0" encoding="UTF-8"?>
<svg width="11px" height="11px" viewBox="0 0 11 11" version="1.1" xmlns="http://www.w3.org/2000/svg" xmlns:xlink="http://www.w3.org/1999/xlink">
    <!-- Generator: Sketch 47.1 (45422) - http://www.bohemiancoding.com/sketch -->
    <title>Shape</title>
    <desc>Created with Sketch.</desc>
    <defs></defs>
    <g id="前台登记" stroke="none" stroke-width="1" fill="none" fill-rule="evenodd">
        <g id="U_前台登记_个人信息_拍照_V1.0_0103_张宇" transform="translate(-965.000000, -546.000000)" fill-rule="nonzero" fill="#008CEE">
            <g id="Group-8" transform="translate(473.000000, 223.000000)">
                <g id="Group">
                    <g id="select-disable" transform="translate(103.000000, 313.000000)">
                        <g id="实体按钮" transform="translate(389.000000, 7.000000)">
                            <g id="Group-2">
                                <g id="文件" transform="translate(0.000000, 3.000000)">
                                    <path d="M10.4982308,3.64175 L0.501769232,3.64175 L0.501769232,1.23874999 C0.501769232,0.925249991 0.709711535,0.611999997 1.01559615,0.611999997 L3.51175,0.611999997 C4.28259615,0.611999997 4.28259615,1.85075 5.50613462,1.85075 L9.99667308,1.85075 C10.2536923,1.85075 10.5107115,2.1045 10.5107115,2.4775 L10.5107115,3.64175 L10.4982308,3.64175 Z M10.4982308,9.68675 C10.4982308,10 10.2902885,10.3135 9.98440385,10.3135 L1.01559615,10.3135 C0.758576919,10.3135 0.501557687,10.05975 0.501557697,9.68650001 L0.501557697,4.25375 L10.4982308,4.25375 L10.4982308,9.68650001 L10.4982308,9.68675 Z M9.98461538,1.2385 L5.50634615,1.2385 C4.49053846,1.23874999 4.49053846,0 3.51153846,0 L1.01538462,0 C0.452692303,0 0,0.567249998 0,1.23874999 L0,9.76125001 C0,10.4475 0.452692303,11 1.01538462,11 L9.98461538,11 C10.5473077,11 11,10.43275 11,9.76125001 L11,2.418 C10.9631923,1.73125 10.5473077,1.23875001 9.98461538,1.23874999 L9.98461538,1.2385 Z" id="Shape"></path>
                                </g>
                            </g>
                        </g>
                    </g>
                </g>
            </g>
        </g>
    </g>
</svg>