<?xml version="1.0" encoding="UTF-8"?>
<svg width="14px" height="14px" viewBox="0 0 14 14" version="1.1" xmlns="http://www.w3.org/2000/svg" xmlns:xlink="http://www.w3.org/1999/xlink">
    <!-- Generator: Sketch 47.1 (45422) - http://www.bohemiancoding.com/sketch -->
    <title>感叹号红</title>
    <desc>Created with Sketch.</desc>
    <defs></defs>
    <g id="综合管理_个人体检" stroke="none" stroke-width="1" fill="none" fill-rule="evenodd">
        <g id="图标" transform="translate(-22.000000, -93.000000)" fill="#FF6262">
            <path d="M29,107 C25.1340068,107 22,103.865993 22,100 C22,96.1340068 25.1340068,93 29,93 C32.8659932,93 36,96.1340068 36,100 C36,103.865993 32.8659932,107 29,107 Z M29.999206,96.1666667 C30.0214382,95.5223345 29.5740784,95 29,95 C28.4259216,95 27.9785618,95.5223345 28.000794,96.1666667 L28.1618139,100.833333 C28.1840461,101.477666 28.5593148,102 29,102 C29.4406852,102 29.8159539,101.477666 29.8381861,100.833333 L29.999206,96.1666667 Z M29,105 C29.5522847,105 30,104.552285 30,104 C30,103.447715 29.5522847,103 29,103 C28.4477153,103 28,103.447715 28,104 C28,104.552285 28.4477153,105 29,105 Z" id="Combined-Shape"></path>
        </g>
    </g>
</svg>