<?xml version="1.0" encoding="UTF-8"?>
<svg width="19px" height="15px" viewBox="0 0 19 15" version="1.1" xmlns="http://www.w3.org/2000/svg" xmlns:xlink="http://www.w3.org/1999/xlink">
    <!-- Generator: Sketch 47.1 (45422) - http://www.bohemiancoding.com/sketch -->
    <title>拍照</title>
    <desc>Created with Sketch.</desc>
    <defs></defs>
    <g id="综合管理_个人体检" stroke="none" stroke-width="1" fill="none" fill-rule="evenodd">
        <g id="图标" transform="translate(-91.000000, -93.000000)" fill="#008CEE">
            <path d="M108.812371,106.226 C108.812371,106.569 108.563319,106.847 108.256635,106.847 L92.7433647,106.847 C92.4377099,106.847 92.1876286,106.569 92.1876286,106.226 L92.1876286,96.944 C92.1876286,96.601 92.4377099,96.323 92.7433647,96.323 L96.1086556,96.323 C96.3587369,96.323 96.5820604,96.17 96.6674791,95.942 C97.1388257,94.679 97.6482505,94.155 97.8160004,94.155 L103.184,94.155 C103.407323,94.155 103.903369,94.704 104.30988,95.923 C104.389124,96.162 104.617593,96.323 104.874878,96.323 L108.256635,96.323 C108.563319,96.323 108.812371,96.601 108.812371,96.944 L108.812371,106.226 Z M108.256635,95.168 C109.218882,95.168 110,95.965 110,96.944 L110,106.226 C110,107.205 109.218882,108 108.256635,108 L92.7433647,108 C91.7821471,108 91,107.205 91,106.226 L91,96.944 C91,95.965 91.7821471,95.168 92.7433647,95.168 L95.7021449,95.168 C96.1467338,94.105 96.8455205,93 97.8160004,93 L103.184,93 C104.212111,93 104.887228,94.101 105.297855,95.168 L108.256635,95.168 Z M105.844123,97.0395 C105.515827,97.0395 105.250309,97.2975 105.250309,97.6155 C105.250309,97.9355 105.515827,98.1925 105.844123,98.1925 C106.17139,98.1925 106.437937,97.9355 106.437937,97.6155 C106.437937,97.2975 106.17139,97.0395 105.844123,97.0395 Z M100.500412,97.6152 C98.5357816,97.6152 96.9385549,99.1692 96.9385549,101.0772 C96.9385549,102.9862 98.5357816,104.5392 100.500412,104.5392 C102.464013,104.5392 104.062268,102.9862 104.062268,101.0772 C104.062268,99.1692 102.464013,97.6152 100.500412,97.6152 Z M100.500412,103.3852 C99.1903152,103.3852 98.1251544,102.3502 98.1251544,101.0772 C98.1251544,99.8052 99.1903152,98.7702 100.500412,98.7702 C101.809479,98.7702 102.875669,99.8052 102.875669,101.0772 C102.875669,102.3502 101.809479,103.3852 100.500412,103.3852" id="Combined-Shape"></path>
        </g>
    </g>
</svg>