<?xml version="1.0" encoding="UTF-8"?>
<svg width="18px" height="18px" viewBox="0 0 18 18" version="1.1" xmlns="http://www.w3.org/2000/svg" xmlns:xlink="http://www.w3.org/1999/xlink">
    <!-- Generator: Sketch 47.1 (45422) - http://www.bohemiancoding.com/sketch -->
    <title>Shape</title>
    <desc>Created with Sketch.</desc>
    <defs></defs>
    <g id="主检、分检、采样" stroke="none" stroke-width="1" fill="none" fill-rule="evenodd">
        <g id="U-采样台-0206-汤梨" transform="translate(-1035.000000, -590.000000)" fill-rule="nonzero" fill="#008CEE">
            <g id="02" transform="translate(235.000000, 226.000000)">
                <g id="icon" transform="translate(800.000000, 325.000000)">
                    <path d="M14.6219056,42.9322626 L14.6219056,40 L14.6219056,40 C14.6219056,39.4477153 14.1741904,39 13.6219056,39 L4.37429213,39 L4.37429213,39 C3.82200739,39 3.37429213,39.4477153 3.37429213,40 L3.37429213,42.9322424 L2.24953483,42.9322424 C1.00888989,42.9322424 0,43.9399798 0,45.1792323 L0,51.482 L0,51.482 C-9.13419418e-16,52.0342847 0.44771525,52.482 1,52.482 L3.37425169,52.482 L3.37425169,55.9759798 L3.37425169,55.9759798 C3.37425169,56.5282645 3.82196694,56.9759798 4.37425169,56.9759798 L13.6218854,56.9759798 L13.6218854,56.9759798 C14.1741701,56.9759798 14.6218854,56.5282645 14.6218854,55.9759798 L14.6218854,52.482 L16.9961775,52.482 L16.9961775,52.482 C17.5484623,52.482 17.9961775,52.0342847 17.9961775,51.482 L17.9961775,45.1792525 C17.9961775,43.9399798 16.9872876,42.9322626 15.7466831,42.9322626 L14.6219056,42.9322626 Z M4.49904944,40.1234949 L13.4971685,40.1234949 L13.4971685,42.9322424 L4.49904944,42.9322424 L4.49904944,40.1234949 Z M13.4971685,55.8524848 L4.49904944,55.8524848 L4.49904944,50.7967273 L13.4971685,50.7967273 L13.4971685,55.8524848 Z M16.8714202,51.3585051 L14.6219056,51.3585051 L14.6219056,49.6732525 L3.37429213,49.6732525 L3.37429213,51.3585051 L1.1247573,51.3585051 L1.1247573,45.1792525 C1.1247573,44.559899 1.62946517,44.0557374 2.24953483,44.0557374 L15.7467034,44.0557374 C16.3667124,44.0557374 16.8714404,44.559899 16.8714404,45.1792525 L16.8714404,51.3584848 L16.8714202,51.3585051 Z M8.99807865,45.7409697 L3.93670112,45.7409697 C3.62584719,45.7409697 3.37431236,45.9922424 3.37431236,46.3027273 C3.37431236,46.6132323 3.62586742,46.8644848 3.93670112,46.8644848 L8.99813933,46.8644848 C9.30895281,46.8644848 9.56050787,46.6132121 9.56050787,46.3027273 C9.56050787,45.9922222 9.30893258,45.7409697 8.99809888,45.7409697 L8.99807865,45.7409697 Z" id="Shape"></path>
                    <path d="M14.6219056,42.9322626 L14.6219056,40 L14.6219056,40 C14.6219056,39.4477153 14.1741904,39 13.6219056,39 L4.37429213,39 L4.37429213,39 C3.82200739,39 3.37429213,39.4477153 3.37429213,40 L3.37429213,42.9322424 L2.24953483,42.9322424 C1.00888989,42.9322424 0,43.9399798 0,45.1792323 L0,51.482 L0,51.482 C-9.13419418e-16,52.0342847 0.44771525,52.482 1,52.482 L3.37425169,52.482 L3.37425169,55.9759798 L3.37425169,55.9759798 C3.37425169,56.5282645 3.82196694,56.9759798 4.37425169,56.9759798 L13.6218854,56.9759798 L13.6218854,56.9759798 C14.1741701,56.9759798 14.6218854,56.5282645 14.6218854,55.9759798 L14.6218854,52.482 L16.9961775,52.482 L16.9961775,52.482 C17.5484623,52.482 17.9961775,52.0342847 17.9961775,51.482 L17.9961775,45.1792525 C17.9961775,43.9399798 16.9872876,42.9322626 15.7466831,42.9322626 L14.6219056,42.9322626 Z M4.49904944,40.1234949 L13.4971685,40.1234949 L13.4971685,42.9322424 L4.49904944,42.9322424 L4.49904944,40.1234949 Z M13.4971685,55.8524848 L4.49904944,55.8524848 L4.49904944,50.7967273 L13.4971685,50.7967273 L13.4971685,55.8524848 Z M16.8714202,51.3585051 L14.6219056,51.3585051 L14.6219056,49.6732525 L3.37429213,49.6732525 L3.37429213,51.3585051 L1.1247573,51.3585051 L1.1247573,45.1792525 C1.1247573,44.559899 1.62946517,44.0557374 2.24953483,44.0557374 L15.7467034,44.0557374 C16.3667124,44.0557374 16.8714404,44.559899 16.8714404,45.1792525 L16.8714404,51.3584848 L16.8714202,51.3585051 Z M8.99807865,45.7409697 L3.93670112,45.7409697 C3.62584719,45.7409697 3.37431236,45.9922424 3.37431236,46.3027273 C3.37431236,46.6132323 3.62586742,46.8644848 3.93670112,46.8644848 L8.99813933,46.8644848 C9.30895281,46.8644848 9.56050787,46.6132121 9.56050787,46.3027273 C9.56050787,45.9922222 9.30893258,45.7409697 8.99809888,45.7409697 L8.99807865,45.7409697 Z" id="Shape"></path>
                </g>
            </g>
        </g>
    </g>
</svg>