<?xml version="1.0" encoding="UTF-8"?>
<svg width="18px" height="18px" viewBox="0 0 18 18" version="1.1" xmlns="http://www.w3.org/2000/svg" xmlns:xlink="http://www.w3.org/1999/xlink">
    <!-- Generator: Sketch 47.1 (45422) - http://www.bohemiancoding.com/sketch -->
    <title>Shape</title>
    <desc>Created with Sketch.</desc>
    <defs></defs>
    <g id="主检、分检、采样" stroke="none" stroke-width="1" fill="none" fill-rule="evenodd">
        <g id="U-采样台-0206-汤梨" transform="translate(-1035.000000, -551.000000)" fill-rule="nonzero" fill="#B3B3B3">
            <g id="02" transform="translate(235.000000, 226.000000)">
                <g id="icon" transform="translate(800.000000, 325.000000)">
                    <path d="M14.6219056,3.93226263 L14.6219056,1 L14.6219056,1 C14.6219056,0.44771525 14.1741904,-1.01453063e-16 13.6219056,0 L4.37429213,0 L4.37429213,0 C3.82200739,5.91980459e-16 3.37429213,0.44771525 3.37429213,1 L3.37429213,3.93224242 L2.24953483,3.93224242 C1.00888989,3.93224242 0,4.9399798 0,6.17923232 L0,12.482 L0,12.482 C-9.13419418e-16,13.0342847 0.44771525,13.482 1,13.482 L3.37425169,13.482 L3.37425169,16.9759798 L3.37425169,16.9759798 C3.37425169,17.5282645 3.82196694,17.9759798 4.37425169,17.9759798 L13.6218854,17.9759798 L13.6218854,17.9759798 C14.1741701,17.9759798 14.6218854,17.5282645 14.6218854,16.9759798 L14.6218854,13.482 L16.9961775,13.482 L16.9961775,13.482 C17.5484623,13.482 17.9961775,13.0342847 17.9961775,12.482 L17.9961775,6.17925253 C17.9961775,4.9399798 16.9872876,3.93226263 15.7466831,3.93226263 L14.6219056,3.93226263 Z M4.49904944,1.12349495 L13.4971685,1.12349495 L13.4971685,3.93224242 L4.49904944,3.93224242 L4.49904944,1.12349495 Z M13.4971685,16.8524848 L4.49904944,16.8524848 L4.49904944,11.7967273 L13.4971685,11.7967273 L13.4971685,16.8524848 Z M16.8714202,12.3585051 L14.6219056,12.3585051 L14.6219056,10.6732525 L3.37429213,10.6732525 L3.37429213,12.3585051 L1.1247573,12.3585051 L1.1247573,6.17925253 C1.1247573,5.55989899 1.62946517,5.05573737 2.24953483,5.05573737 L15.7467034,5.05573737 C16.3667124,5.05573737 16.8714404,5.55989899 16.8714404,6.17925253 L16.8714404,12.3584848 L16.8714202,12.3585051 Z M8.99807865,6.7409697 L3.93670112,6.7409697 C3.62584719,6.7409697 3.37431236,6.99224242 3.37431236,7.30272727 C3.37431236,7.61323232 3.62586742,7.86448485 3.93670112,7.86448485 L8.99813933,7.86448485 C9.30895281,7.86448485 9.56050787,7.61321212 9.56050787,7.30272727 C9.56050787,6.99222222 9.30893258,6.7409697 8.99809888,6.7409697 L8.99807865,6.7409697 Z" id="Shape"></path>
                    <path d="M14.6219056,3.93226263 L14.6219056,1 L14.6219056,1 C14.6219056,0.44771525 14.1741904,-1.01453063e-16 13.6219056,0 L4.37429213,0 L4.37429213,0 C3.82200739,5.91980459e-16 3.37429213,0.44771525 3.37429213,1 L3.37429213,3.93224242 L2.24953483,3.93224242 C1.00888989,3.93224242 0,4.9399798 0,6.17923232 L0,12.482 L0,12.482 C-9.13419418e-16,13.0342847 0.44771525,13.482 1,13.482 L3.37425169,13.482 L3.37425169,16.9759798 L3.37425169,16.9759798 C3.37425169,17.5282645 3.82196694,17.9759798 4.37425169,17.9759798 L13.6218854,17.9759798 L13.6218854,17.9759798 C14.1741701,17.9759798 14.6218854,17.5282645 14.6218854,16.9759798 L14.6218854,13.482 L16.9961775,13.482 L16.9961775,13.482 C17.5484623,13.482 17.9961775,13.0342847 17.9961775,12.482 L17.9961775,6.17925253 C17.9961775,4.9399798 16.9872876,3.93226263 15.7466831,3.93226263 L14.6219056,3.93226263 Z M4.49904944,1.12349495 L13.4971685,1.12349495 L13.4971685,3.93224242 L4.49904944,3.93224242 L4.49904944,1.12349495 Z M13.4971685,16.8524848 L4.49904944,16.8524848 L4.49904944,11.7967273 L13.4971685,11.7967273 L13.4971685,16.8524848 Z M16.8714202,12.3585051 L14.6219056,12.3585051 L14.6219056,10.6732525 L3.37429213,10.6732525 L3.37429213,12.3585051 L1.1247573,12.3585051 L1.1247573,6.17925253 C1.1247573,5.55989899 1.62946517,5.05573737 2.24953483,5.05573737 L15.7467034,5.05573737 C16.3667124,5.05573737 16.8714404,5.55989899 16.8714404,6.17925253 L16.8714404,12.3584848 L16.8714202,12.3585051 Z M8.99807865,6.7409697 L3.93670112,6.7409697 C3.62584719,6.7409697 3.37431236,6.99224242 3.37431236,7.30272727 C3.37431236,7.61323232 3.62586742,7.86448485 3.93670112,7.86448485 L8.99813933,7.86448485 C9.30895281,7.86448485 9.56050787,7.61321212 9.56050787,7.30272727 C9.56050787,6.99222222 9.30893258,6.7409697 8.99809888,6.7409697 L8.99807865,6.7409697 Z" id="Shape"></path>
                </g>
            </g>
        </g>
    </g>
</svg>