<?xml version="1.0" encoding="UTF-8"?>
<svg width="15px" height="15px" viewBox="0 0 15 15" version="1.1" xmlns="http://www.w3.org/2000/svg" xmlns:xlink="http://www.w3.org/1999/xlink">
    <!-- Generator: Sketch 47.1 (45422) - http://www.bohemiancoding.com/sketch -->
    <title>Combined Shape</title>
    <desc>Created with Sketch.</desc>
    <defs></defs>
    <g id="主检分检" stroke="none" stroke-width="1" fill="none" fill-rule="evenodd">
        <g id="U-分检查询-V3.1-0307-汤梨" transform="translate(-1153.000000, -398.000000)" fill="#F1870C">
            <g id="表格" transform="translate(235.000000, 174.000000)">
                <g id="表格内容" transform="translate(918.000000, 223.000000)">
                    <path d="M14.3930165,5.58440452 C14.7816889,6.50398592 14.9812735,7.49239968 14.9799934,8.49076159 C14.9800666,12.3386079 12.0642917,15.5604162 8.23559187,15.9431637 C4.40680062,16.325966 0.910979546,13.7451363 0.149288331,9.9734371 C-0.612476032,6.2018111 1.60782497,2.4665397 5.28501677,1.33345727 C8.96228171,0.200374842 12.899771,2.03809296 14.3930165,5.58440452 Z M7.95770999,6.6101566 L5.81805216,6.6101566 L6.88785365,5.54042825 C7.06545913,5.35752057 7.06331996,5.06577149 6.88306338,4.88551491 C6.70273367,4.70516691 6.41098459,4.70302775 6.22807691,4.88072464 L4.36179329,6.74691684 C4.35638139,6.75234703 4.35109747,6.75799662 4.34594154,6.76370106 L4.33893897,6.77170921 L4.33109537,6.78092407 C4.32817002,6.78441621 4.32537265,6.78805462 4.32259356,6.79156504 L4.31709024,6.79869559 C4.31416489,6.80262653 4.31138581,6.80670374 4.30844217,6.81063468 L4.30394444,6.81719844 C4.30116536,6.82142192 4.29853254,6.82570025 4.2958083,6.82990544 L4.29167624,6.83648749 C4.28924454,6.84069268 4.28673971,6.84491616 4.28438114,6.84912135 L4.28030393,6.85641645 C4.27816477,6.86032911 4.27609874,6.86447946 4.27417898,6.86855667 L4.2699555,6.87711332 C4.26823685,6.88077001 4.26659134,6.88455469 4.26503725,6.8881931 C4.26339174,6.8918315 4.26209361,6.89490312 4.2606675,6.89826728 C4.25916826,6.90161315 4.25803469,6.90483104 4.25666343,6.9081952 C4.25538359,6.91154107 4.25366494,6.91591081 4.25231196,6.91996974 C4.25103212,6.92412009 4.25031907,6.92582045 4.24938661,6.92876408 C4.24852729,6.93168944 4.24653439,6.93746701 4.24518142,6.9418916 C4.24388329,6.94626135 4.24373702,6.94712067 4.24302397,6.94960722 C4.24223778,6.95203892 4.24039115,6.95904148 4.23903818,6.96417913 C4.23903818,6.96668397 4.23788632,6.9689694 4.23731953,6.97147423 C4.23616767,6.97639248 4.23496097,6.98140215 4.23410164,6.98602786 C4.23410164,6.9885327 4.23324232,6.99103753 4.2328218,6.99346923 C4.23188935,6.99846061 4.23103002,7.00339714 4.23031697,7.00804114 C4.22960391,7.01273999 4.23031697,7.01374558 4.22931138,7.01652466 C4.22825094,7.01932203 4.22810467,7.02581266 4.22768415,7.03109658 C4.22724535,7.03630736 4.22768415,7.03866593 4.22682483,7.0424506 C4.22596551,7.04623528 4.22682483,7.05001995 4.22596551,7.05380463 L4.22596551,7.09995207 C4.22596551,7.10373674 4.22596551,7.10752142 4.22682483,7.11130609 C4.22768415,7.11509077 4.22682483,7.11887544 4.22768415,7.12266012 C4.22852519,7.12644479 4.22867146,7.13202125 4.22931138,7.13723203 C4.22989645,7.14251595 4.22931138,7.14293647 4.23031697,7.14573384 C4.23132256,7.14843979 4.23188935,7.15558862 4.2328218,7.16030575 C4.2328218,7.16273745 4.23368112,7.165224 4.23410164,7.16772883 C4.23510723,7.17264708 4.23631394,7.17765675 4.23731953,7.18230075 C4.23731953,7.18480558 4.23832512,7.18709101 4.23903818,7.18957756 C4.24024488,7.19436783 4.24152473,7.19923123 4.24302397,7.20414947 C4.24445008,7.20915914 4.24445008,7.20943339 4.24518142,7.21186509 C4.24589447,7.21436993 4.2479605,7.22064115 4.24938661,7.2250109 C4.25088586,7.22936236 4.25132466,7.2308616 4.25231196,7.23378695 C4.25331755,7.23663917 4.25523732,7.24164884 4.25666343,7.24557978 C4.25816267,7.24951073 4.25916826,7.25214354 4.2606675,7.2555077 L4.26503725,7.26558188 C4.26646336,7.26892775 4.26838312,7.27300496 4.2699555,7.27664337 L4.27417898,7.28521831 C4.27624501,7.28927724 4.27831104,7.29320818 4.28030393,7.29735853 L4.28438114,7.30463534 C4.28673971,7.30885882 4.28924454,7.31306401 4.29167624,7.31728749 L4.2958083,7.32385125 C4.29838627,7.32805645 4.30101909,7.33235306 4.30394444,7.33655825 L4.30844217,7.3431403 C4.31123954,7.34719922 4.31401862,7.35113017 4.31709024,7.35506111 L4.32259356,7.36220994 C4.32537265,7.36584835 4.32817002,7.36934049 4.33109537,7.37285091 L4.33893897,7.38206577 L4.34594154,7.39005564 C4.35109747,7.39577836 4.35638139,7.40140967 4.36179329,7.40683985 L6.22807691,9.27303205 C6.41027153,9.45522668 6.70573216,9.45522668 6.88792678,9.27295892 C7.07002999,9.09078258 7.07002999,8.7953768 6.88785365,8.61320046 L5.81819843,7.54332584 L7.95770999,7.54332584 C8.9883666,7.54332584 9.82392047,8.37886143 9.82392047,9.40951804 C9.82392047,10.4402478 8.9883666,11.2757834 7.95770999,11.2757834 L5.62485089,11.2757834 C5.3672553,11.2757834 5.15834855,11.4846901 5.15834855,11.742304 C5.15834855,11.999991 5.3672553,12.2088978 5.62485089,12.2088978 L7.95770999,12.2088978 C9.50130892,12.2088978 10.7570897,10.953117 10.7570897,9.40951804 C10.7570897,7.86591911 9.50130892,6.6101566 7.95770999,6.6101566 Z" id="Combined-Shape"></path>
                    <path d="M14.3930165,5.58440452 C14.7816889,6.50398592 14.9812735,7.49239968 14.9799934,8.49076159 C14.9800666,12.3386079 12.0642917,15.5604162 8.23559187,15.9431637 C4.40680062,16.325966 0.910979546,13.7451363 0.149288331,9.9734371 C-0.612476032,6.2018111 1.60782497,2.4665397 5.28501677,1.33345727 C8.96228171,0.200374842 12.899771,2.03809296 14.3930165,5.58440452 Z M7.95770999,6.6101566 L5.81805216,6.6101566 L6.88785365,5.54042825 C7.06545913,5.35752057 7.06331996,5.06577149 6.88306338,4.88551491 C6.70273367,4.70516691 6.41098459,4.70302775 6.22807691,4.88072464 L4.36179329,6.74691684 C4.35638139,6.75234703 4.35109747,6.75799662 4.34594154,6.76370106 L4.33893897,6.77170921 L4.33109537,6.78092407 C4.32817002,6.78441621 4.32537265,6.78805462 4.32259356,6.79156504 L4.31709024,6.79869559 C4.31416489,6.80262653 4.31138581,6.80670374 4.30844217,6.81063468 L4.30394444,6.81719844 C4.30116536,6.82142192 4.29853254,6.82570025 4.2958083,6.82990544 L4.29167624,6.83648749 C4.28924454,6.84069268 4.28673971,6.84491616 4.28438114,6.84912135 L4.28030393,6.85641645 C4.27816477,6.86032911 4.27609874,6.86447946 4.27417898,6.86855667 L4.2699555,6.87711332 C4.26823685,6.88077001 4.26659134,6.88455469 4.26503725,6.8881931 C4.26339174,6.8918315 4.26209361,6.89490312 4.2606675,6.89826728 C4.25916826,6.90161315 4.25803469,6.90483104 4.25666343,6.9081952 C4.25538359,6.91154107 4.25366494,6.91591081 4.25231196,6.91996974 C4.25103212,6.92412009 4.25031907,6.92582045 4.24938661,6.92876408 C4.24852729,6.93168944 4.24653439,6.93746701 4.24518142,6.9418916 C4.24388329,6.94626135 4.24373702,6.94712067 4.24302397,6.94960722 C4.24223778,6.95203892 4.24039115,6.95904148 4.23903818,6.96417913 C4.23903818,6.96668397 4.23788632,6.9689694 4.23731953,6.97147423 C4.23616767,6.97639248 4.23496097,6.98140215 4.23410164,6.98602786 C4.23410164,6.9885327 4.23324232,6.99103753 4.2328218,6.99346923 C4.23188935,6.99846061 4.23103002,7.00339714 4.23031697,7.00804114 C4.22960391,7.01273999 4.23031697,7.01374558 4.22931138,7.01652466 C4.22825094,7.01932203 4.22810467,7.02581266 4.22768415,7.03109658 C4.22724535,7.03630736 4.22768415,7.03866593 4.22682483,7.0424506 C4.22596551,7.04623528 4.22682483,7.05001995 4.22596551,7.05380463 L4.22596551,7.09995207 C4.22596551,7.10373674 4.22596551,7.10752142 4.22682483,7.11130609 C4.22768415,7.11509077 4.22682483,7.11887544 4.22768415,7.12266012 C4.22852519,7.12644479 4.22867146,7.13202125 4.22931138,7.13723203 C4.22989645,7.14251595 4.22931138,7.14293647 4.23031697,7.14573384 C4.23132256,7.14843979 4.23188935,7.15558862 4.2328218,7.16030575 C4.2328218,7.16273745 4.23368112,7.165224 4.23410164,7.16772883 C4.23510723,7.17264708 4.23631394,7.17765675 4.23731953,7.18230075 C4.23731953,7.18480558 4.23832512,7.18709101 4.23903818,7.18957756 C4.24024488,7.19436783 4.24152473,7.19923123 4.24302397,7.20414947 C4.24445008,7.20915914 4.24445008,7.20943339 4.24518142,7.21186509 C4.24589447,7.21436993 4.2479605,7.22064115 4.24938661,7.2250109 C4.25088586,7.22936236 4.25132466,7.2308616 4.25231196,7.23378695 C4.25331755,7.23663917 4.25523732,7.24164884 4.25666343,7.24557978 C4.25816267,7.24951073 4.25916826,7.25214354 4.2606675,7.2555077 L4.26503725,7.26558188 C4.26646336,7.26892775 4.26838312,7.27300496 4.2699555,7.27664337 L4.27417898,7.28521831 C4.27624501,7.28927724 4.27831104,7.29320818 4.28030393,7.29735853 L4.28438114,7.30463534 C4.28673971,7.30885882 4.28924454,7.31306401 4.29167624,7.31728749 L4.2958083,7.32385125 C4.29838627,7.32805645 4.30101909,7.33235306 4.30394444,7.33655825 L4.30844217,7.3431403 C4.31123954,7.34719922 4.31401862,7.35113017 4.31709024,7.35506111 L4.32259356,7.36220994 C4.32537265,7.36584835 4.32817002,7.36934049 4.33109537,7.37285091 L4.33893897,7.38206577 L4.34594154,7.39005564 C4.35109747,7.39577836 4.35638139,7.40140967 4.36179329,7.40683985 L6.22807691,9.27303205 C6.41027153,9.45522668 6.70573216,9.45522668 6.88792678,9.27295892 C7.07002999,9.09078258 7.07002999,8.7953768 6.88785365,8.61320046 L5.81819843,7.54332584 L7.95770999,7.54332584 C8.9883666,7.54332584 9.82392047,8.37886143 9.82392047,9.40951804 C9.82392047,10.4402478 8.9883666,11.2757834 7.95770999,11.2757834 L5.62485089,11.2757834 C5.3672553,11.2757834 5.15834855,11.4846901 5.15834855,11.742304 C5.15834855,11.999991 5.3672553,12.2088978 5.62485089,12.2088978 L7.95770999,12.2088978 C9.50130892,12.2088978 10.7570897,10.953117 10.7570897,9.40951804 C10.7570897,7.86591911 9.50130892,6.6101566 7.95770999,6.6101566 Z" id="Combined-Shape"></path>
                </g>
            </g>
        </g>
    </g>
</svg>