<?xml version="1.0" encoding="UTF-8"?>
<svg width="16px" height="16px" viewBox="0 0 16 16" version="1.1" xmlns="http://www.w3.org/2000/svg" xmlns:xlink="http://www.w3.org/1999/xlink">
    <!-- Generator: Sketch 47.1 (45422) - http://www.bohemiancoding.com/sketch -->
    <title>Oval-5</title>
    <desc>Created with Sketch.</desc>
    <defs></defs>
    <g stroke="none" stroke-width="1" fill="none" fill-rule="evenodd">
        <circle id="Oval-5" stroke="#4A4A4A" cx="8" cy="8" r="7"></circle>
        <path d="M9.84960942,12.0703125 L6.14648437,12.0703125 L6.14648437,11.6425781 C6.24804738,11.6347656 6.34765576,11.6250001 6.4453125,11.6132813 C6.54296923,11.6015624 6.62695277,11.5820314 6.69726562,11.5546875 C6.82226625,11.5078123 6.91015599,11.4404301 6.9609375,11.3525391 C7.011719,11.264648 7.03710937,11.1484382 7.03710937,11.0039063 L7.03710937,7.59375 C7.03710937,7.45703057 7.00585968,7.33691458 6.94335937,7.23339844 C6.88085906,7.12988229 6.80273484,7.04687531 6.70898437,6.984375 C6.63867152,6.93749977 6.53222727,6.89257834 6.38964843,6.84960938 C6.24706959,6.80664041 6.11718808,6.77929693 6,6.76757812 L6,6.33984375 L8.87109374,6.1875 L8.95898437,6.27539062 L8.95898437,10.9277344 C8.95898437,11.0644538 8.98828095,11.1806636 9.046875,11.2763672 C9.10546904,11.3720708 9.18945257,11.4433591 9.29882812,11.4902344 C9.37695351,11.5253908 9.46289015,11.5566405 9.55664062,11.5839844 C9.65039109,11.6113283 9.74804636,11.6308593 9.84960942,11.6425781 L9.84960942,12.0703125 Z M8.99414062,4.078125 C8.99414062,4.37500148 8.87988395,4.62792864 8.65136718,4.83691406 C8.42285041,5.04589948 8.15234531,5.15039062 7.83984374,5.15039062 C7.52343591,5.15039062 7.2509777,5.04589948 7.02246093,4.83691406 C6.79394416,4.62792864 6.6796875,4.37500148 6.6796875,4.078125 C6.6796875,3.78124852 6.79394416,3.5273448 7.02246093,3.31640625 C7.2509777,3.1054677 7.52343591,3 7.83984374,3 C8.15625158,3 8.42773324,3.1054677 8.65429687,3.31640625 C8.8808605,3.5273448 8.99414062,3.78124852 8.99414062,4.078125 Z" fill="#4A4A4A" fill-rule="nonzero"></path>
    </g>
</svg>