<?xml version="1.0" encoding="UTF-8"?>
<svg width="14px" height="14px" viewBox="0 0 14 14" version="1.1" xmlns="http://www.w3.org/2000/svg" xmlns:xlink="http://www.w3.org/1999/xlink">
    <!-- Generator: Sketch 47.1 (45422) - http://www.bohemiancoding.com/sketch -->
    <title>Search Copy</title>
    <desc>Created with Sketch.</desc>
    <defs></defs>
    <g id="规范" stroke="none" stroke-width="1" fill="none" fill-rule="evenodd">
        <g id="icon" transform="translate(-392.000000, -356.000000)" fill="#33A3F1">
            <path d="M405.743223,368.574668 L401.910187,364.739981 C402.597264,363.802839 402.965328,362.669857 402.960197,361.507824 C402.947087,358.474532 400.493796,356.017575 397.460645,356.000056 C396.009112,355.993488 394.61524,356.56774 393.589545,357.594884 C392.56385,358.622028 391.991535,360.016742 392.000095,361.468322 C392.013204,364.50189 394.466719,366.95907 397.500146,366.97659 C398.666867,366.981647 399.803944,366.609272 400.741676,365.915038 L400.745676,365.912038 L404.575212,369.743725 C404.782262,369.960949 405.090782,370.048876 405.381234,369.973439 C405.671686,369.898001 405.898431,369.671053 405.973617,369.380525 C406.048803,369.089997 405.960615,368.781541 405.743223,368.574668 L405.743223,368.574668 Z M397.496146,365.878537 C395.069537,365.864577 393.106757,363.899043 393.096105,361.472322 C393.089555,360.311208 393.547445,359.195662 394.367847,358.374007 C395.188248,357.552352 396.303069,357.092786 397.464145,357.097609 C399.890754,357.111569 401.853534,359.077103 401.864186,361.503824 C401.870736,362.664937 401.412846,363.780484 400.592444,364.602139 C399.772043,365.423793 398.657222,365.88336 397.496146,365.878537 Z" id="Search-Copy"></path>
        </g>
    </g>
</svg>