<?xml version="1.0" encoding="UTF-8"?>
<svg width="17px" height="11px" viewBox="0 0 17 11" version="1.1" xmlns="http://www.w3.org/2000/svg" xmlns:xlink="http://www.w3.org/1999/xlink">
    <!-- Generator: Sketch 47.1 (45422) - http://www.bohemiancoding.com/sketch -->
    <title>table-hover-preview</title>
    <desc>Created with Sketch.</desc>
    <defs></defs>
    <g id="Page-1" stroke="none" stroke-width="1" fill="none" fill-rule="evenodd">
        <g id="table-hover-preview" fill-rule="nonzero" fill="#CCCCCC">
            <path d="M16.702757,4.36655669 C16.6730156,4.32155868 15.9582918,3.25203999 14.5953924,2.17894889 C13.7942133,1.54812519 12.9320955,1.04500876 12.0329801,0.683581601 C10.9045743,0.229981897 9.71625624,0 8.50101337,0 C7.28579438,0 6.09745241,0.229981897 4.96904671,0.683581601 C4.06995507,1.04500876 3.20783726,1.54812519 2.40665823,2.17894889 C1.04375876,3.25203999 0.329058848,4.32155868 0.299794873,4.36579962 C-0.130882116,5.01439067 -0.093216087,6.00377887 0.384937306,6.61756861 C0.419739006,6.662401 1.25359536,7.72820537 2.66070109,8.80262133 C3.49076219,9.43644963 4.350135,9.94235774 5.2149978,10.306269 C6.30895984,10.7666113 7.4145702,11 8.50101337,11 C9.58750428,11 10.6930669,10.7665877 11.7870528,10.306269 C12.6518917,9.94235774 13.5112646,9.43644963 14.3413734,8.80262133 C15.7484553,7.72818171 16.5823116,6.662401 16.6175907,6.61692984 C17.0923785,6.0031874 17.1299968,5.01500579 16.702757,4.36655669 Z M15.8420952,6.0260886 C15.8342183,6.03621434 15.0368822,7.05188684 13.7240132,8.05017056 C12.5358622,8.95358466 10.6653067,10.030532 8.50101337,10.030532 C6.33676779,10.030532 4.46616453,8.95360832 3.27801353,8.05017056 C1.96516836,7.05188686 1.16783232,6.036238 1.15966895,6.02573372 C0.936131289,5.73885372 0.915746766,5.20166941 1.11699032,4.89860718 C1.12360216,4.88867072 1.79225786,3.89438525 3.04149088,2.91734666 C4.6940942,1.62484891 6.53092213,0.969491614 8.50101337,0.969491614 C10.4711046,0.969491614 12.3079326,1.62482525 13.9605598,2.917323 C15.2098166,3.89433793 15.8784485,4.8886707 15.884201,4.89730597 C16.0842749,5.20095966 16.0638188,5.73942153 15.8420952,6.0260886 L15.8420952,6.0260886 Z M8.49609627,2.50760936 C7.69434437,2.50760936 6.94145328,2.81930685 6.3761047,3.38523596 C5.81223602,3.94972191 5.50167024,4.70044563 5.50167024,5.49917196 C5.50167024,6.29825316 5.8121644,7.04933176 6.37598535,7.61410161 C6.9413578,8.18043289 7.69427275,8.49234332 8.49609627,8.49234332 C10.1453817,8.49234332 11.4871806,7.14961909 11.4871806,5.49917196 C11.4871806,3.84962384 10.1453817,2.50760936 8.49609627,2.50760936 L8.49609627,2.50760936 Z M8.49609627,7.52287538 C7.38430371,7.52287538 6.47981759,6.61506084 6.47981757,5.49919562 C6.47981757,4.38420575 7.38430371,3.47710096 8.49609627,3.47710096 C9.60605087,3.47710096 10.5090571,4.38420575 10.5090571,5.49919562 C10.5090571,6.61506084 9.60605087,7.52287538 8.49609627,7.52287538 L8.49609627,7.52287538 Z" id="Shape"></path>
        </g>
    </g>
</svg>