<?xml version="1.0" encoding="UTF-8"?>
<svg width="12px" height="13px" viewBox="0 0 12 13" version="1.1" xmlns="http://www.w3.org/2000/svg" xmlns:xlink="http://www.w3.org/1999/xlink">
    <!-- Generator: Sketch 47.1 (45422) - http://www.bohemiancoding.com/sketch -->
    <title>Shape</title>
    <desc>Created with Sketch.</desc>
    <defs></defs>
    <g id="规范" stroke="none" stroke-width="1" fill="none" fill-rule="evenodd">
        <path d="M7.82417582,8.35608646 L2.31501831,8.35608646 C2.05128205,8.35608646 1.84615383,8.14903299 1.84615384,7.88282139 C1.84615384,7.61660979 2.05128205,7.40955631 2.31501831,7.40955631 L7.85347985,7.40955631 C8.11721611,7.40955631 8.32234433,7.61660978 8.32234433,7.88282139 C8.2930403,8.11945393 8.0879121,8.35608647 7.82417582,8.35608646 L7.82417582,8.35608646 Z M5.06959707,5.54607509 L2.31501831,5.54607509 C2.05128205,5.54607509 1.84615383,5.33902162 1.84615384,5.07281001 C1.84615384,4.80659841 2.05128205,4.59954493 2.31501831,4.59954494 L5.06959707,4.59954494 C5.33333333,4.59954494 5.53846155,4.80659841 5.53846153,5.07281001 C5.53846153,5.33902161 5.33333333,5.54607509 5.06959707,5.54607509 Z M6.97435897,5.54607509 C6.85714286,5.54607509 6.73992674,5.48691695 6.65201466,5.39817975 C6.47619048,5.22070535 6.47619048,4.92491467 6.65201466,4.74744028 L11.2234432,0.1331058 C11.3992674,-0.0443686 11.6923077,-0.0443686 11.8681319,0.1331058 C12.043956,0.3105802 12.043956,0.606370879 11.8681319,0.783845279 L7.2967033,5.39817975 C7.20879122,5.48691695 7.0915751,5.54607509 6.97435897,5.54607509 L6.97435897,5.54607509 Z M9.67032967,13 L1.37728937,13 C0.615384606,13 -1.27203525e-08,12.3788396 0,11.6097838 L0,2.2923777 C0,1.52332196 0.615384619,0.902161546 1.37728937,0.902161546 L7.82417582,0.902161546 C8.08791208,0.902161546 8.2930403,1.10921501 8.2930403,1.37542663 C8.2930403,1.64163822 8.0879121,1.8486917 7.82417582,1.84869169 L1.37728937,1.84869169 C1.11355311,1.84869169 0.908424895,2.05574516 0.908424908,2.32195677 L0.908424908,11.6393629 C0.908424908,11.9055745 1.11355311,12.112628 1.37728937,12.112628 L9.67032967,12.112628 C9.93406593,12.112628 10.1391941,11.9055745 10.1391941,11.6393629 L10.1391941,4.15585893 C10.1391941,3.88964733 10.3443223,3.68259385 10.6080586,3.68259385 C10.8717949,3.68259385 11.0769231,3.88964732 11.0769231,4.15585893 L11.0769231,11.6097838 C11.0769231,12.3788396 10.4322344,13 9.67032967,13 Z" id="Shape" fill="#0066D4" fill-rule="nonzero"></path>
    </g>
</svg>