<?xml version="1.0" encoding="UTF-8"?>
<svg width="12px" height="13px" viewBox="0 0 12 13" version="1.1" xmlns="http://www.w3.org/2000/svg" xmlns:xlink="http://www.w3.org/1999/xlink">
    <!-- Generator: Sketch 47.1 (45422) - http://www.bohemiancoding.com/sketch -->
    <title>Group 3</title>
    <desc>Created with Sketch.</desc>
    <defs></defs>
    <g id="规范" stroke="none" stroke-width="1" fill="none" fill-rule="evenodd">
        <path fill="#CCCCCC" d="M6.93242005,9.75004221 L6.93242005,4.64297773 C6.93242005,4.04781897 7.86443819,4.04781897 7.86443819,4.64297773 L7.86443819,9.75004221 C7.86443819,10.3452516 6.93242005,10.3452516 6.93242005,9.75004221 L6.93242005,9.75004221 L6.93242005,9.75004221 L6.93242005,9.75004221 Z M4.13543489,9.75004221 L4.13543489,4.64297773 C4.13543489,4.04781897 5.06790994,4.04781897 5.06790994,4.64297773 L5.06790994,9.75004221 C5.06792687,10.3452516 4.13543489,10.3452516 4.13543489,9.75004221 L4.13543489,9.75004221 L4.13543489,9.75004221 L4.13543489,9.75004221 Z M11.552217,2.32149731 L9.7293883,2.32149731 L9.7293883,1.39256412 C9.7293883,0.623537433 9.10259366,0 8.34533951,0 L3.66939198,0 C2.89729634,0 2.27095863,0.623537433 2.27095863,1.39256412 L2.27095863,2.32149731 L0.448112978,2.32149731 C-0.149370993,2.32149731 -0.149370993,3.24958639 0.448112978,3.24958639 L11.552217,3.24958639 C12.149261,3.24958639 12.149261,2.32149731 11.552217,2.32149731 L11.552217,2.32149731 L11.552217,2.32149731 L11.552217,2.32149731 Z M3.20343368,1.39264853 C3.20343368,1.14595156 3.42180827,0.928105967 3.6694089,0.928105967 L8.34535643,0.928105967 C8.59294014,0.928105967 8.79691324,1.11684696 8.79691324,1.39264853 L8.79691324,2.32149731 L3.20343368,2.32149731 L3.20343368,1.39264853 L3.20343368,1.39264853 L3.20343368,1.39264853 Z M9.26293923,13 L2.73693385,13 C1.96519359,13 1.33895742,12.3765639 1.33895742,11.6075203 L1.33895742,4.64297773 C1.33895742,4.36715928 1.557332,4.17850269 1.80493264,4.17850269 C2.05260096,4.17850269 2.27097555,4.36715928 2.27097555,4.64297773 L2.27097555,11.6075034 C2.27097555,11.8536602 2.48972244,12.0715057 2.73695077,12.0715057 L9.26295615,12.0715057 C9.51053987,12.0715057 9.7293883,11.8536602 9.7293883,11.6075034 L9.7293883,4.65734433 C9.7293883,4.04781897 10.6614064,4.04781897 10.6614064,4.65734433 L10.6614064,11.6075034 C10.6614064,12.3765639 10.0350687,13 9.26293923,13 L9.26293923,13 L9.26293923,13 Z" id="Shape"></path>
    </g>
</svg>