<?xml version="1.0" encoding="UTF-8"?>
<svg width="15px" height="3px" viewBox="0 0 15 3" version="1.1" xmlns="http://www.w3.org/2000/svg" xmlns:xlink="http://www.w3.org/1999/xlink">
    <!-- Generator: Sketch 49 (51002) - http://www.bohemiancoding.com/sketch -->
    <title>Combined Shape</title>
    <desc>Created with Sketch.</desc>
    <defs></defs>
    <g id="体检" stroke="none" stroke-width="1" fill="none" fill-rule="evenodd">
        <g id="U报告工作台-个人报告管理-报告生成-v2.0-0227-周省玲" transform="translate(-1688.000000, -653.000000)" fill="#D9D9D9">
            <path d="M1689.5,656 C1688.67157,656 1688,655.328427 1688,654.5 C1688,653.671573 1688.67157,653 1689.5,653 C1690.32843,653 1691,653.671573 1691,654.5 C1691,655.328427 1690.32843,656 1689.5,656 Z M1695.5,656 C1694.67157,656 1694,655.328427 1694,654.5 C1694,653.671573 1694.67157,653 1695.5,653 C1696.32843,653 1697,653.671573 1697,654.5 C1697,655.328427 1696.32843,656 1695.5,656 Z M1701.5,656 C1700.67157,656 1700,655.328427 1700,654.5 C1700,653.671573 1700.67157,653 1701.5,653 C1702.32843,653 1703,653.671573 1703,654.5 C1703,655.328427 1702.32843,656 1701.5,656 Z" id="Combined-Shape"></path>
        </g>
    </g>
</svg>