<?xml version="1.0" encoding="UTF-8"?>
<svg width="18px" height="19px" viewBox="0 0 18 19" version="1.1" xmlns="http://www.w3.org/2000/svg" xmlns:xlink="http://www.w3.org/1999/xlink">
    <!-- Generator: Sketch 47.1 (45422) - http://www.bohemiancoding.com/sketch -->
    <title>保存</title>
    <desc>Created with Sketch.</desc>
    <defs></defs>
    <g id="Page-1" stroke="none" stroke-width="1" fill="none" fill-rule="evenodd">
        <g id="U-检前准备-药品收费日结-v1_0-1220-张成阳" transform="translate(-911.000000, -182.000000)" fill-rule="nonzero" fill="#9B9B9B">
            <g id="保存" transform="translate(911.000000, 182.000000)">
                <path d="M17.8671,3.5743 L14.4453,0.1525 C14.36354,0.07062 14.2505,0.01998 14.12564,0.01998 C14.1256,0.01998 14.12556,0.01998 14.12552,0.01998 L1.1868,0.01998 C0.53166,0.02084 0.00082,0.55176 0.0001,1.20686 L0.0001,16.83302 C0.00082,17.48818 0.53166,18.0191 1.18672,18.01998 L16.81316,18.01998 C17.4683,18.01912 17.99914,17.4882 17.99986,16.8331 L17.99986,3.89406 C17.99986,3.89402 17.99986,3.89398 17.99986,3.89394 C17.99986,3.76908 17.94922,3.65606 17.86734,3.57428 L17.8671,3.5743 Z M12.34274,0.92356 L12.34274,4.9332 C12.34274,4.9332 12.34274,4.9332 12.34274,4.9332 C12.34274,4.94892 12.33006,4.96168 12.3144,4.96182 L11.0549,4.96182 L11.0549,0.92358 L12.34274,0.92356 Z M10.1503,0.92356 L10.1503,4.9618 L5.66304,4.9618 C5.64734,4.96166 5.6347,4.9489 5.6347,4.93318 C5.6347,4.93318 5.6347,4.93318 5.6347,4.93318 L5.6347,0.92354 L10.1503,0.92356 Z M4.19172,17.1154 L4.19172,11.51196 C4.19314,10.4575 5.04756,9.60308 6.1019,9.60166 L12.23204,9.60166 C13.2867,9.6028 14.14142,10.45734 14.14286,11.51184 L14.14286,17.1154 L4.19172,17.1154 Z M17.0958,16.83306 C17.09566,16.98886 16.96946,17.11514 16.8137,17.11544 L15.04718,17.11544 L15.04718,11.512 C15.04532,9.95798 13.78606,8.69872 12.23222,8.69686 L6.10154,8.69686 C4.54764,8.69886 3.2885,9.95808 3.28666,11.51182 L3.28666,17.11542 L1.18684,17.11542 C1.1867,17.11542 1.1865,17.11542 1.18634,17.11542 C1.03034,17.11542 0.90386,16.98902 0.90372,16.83306 L0.90372,1.20696 C0.90372,1.20674 0.90372,1.20648 0.90372,1.2062 C0.90372,1.0501 1.03024,0.92358 1.18634,0.92358 C1.1865,0.92358 1.1867,0.92358 1.18686,0.92358 L4.7301,0.92358 L4.7301,4.93322 C4.73054,5.44834 5.14792,5.86584 5.66298,5.8664 L12.31438,5.8664 C12.82944,5.86568 13.24676,5.44828 13.24732,4.93326 L13.24732,0.9236 L13.9383,0.9236 L17.09506,4.08134 L17.09506,16.8318 L17.0958,16.83306 Z" id="Shape"></path>
                <path d="M12.0049,14.01012 L6.41778,14.01012 C6.41778,14.01012 6.41778,14.01012 6.41778,14.01012 C6.16826,14.01012 5.96598,14.2124 5.96598,14.46192 C5.96598,14.71144 6.16826,14.91372 6.41778,14.91372 C6.41778,14.91372 6.41778,14.91372 6.41778,14.91372 L12.0049,14.91372 C12.0049,14.91372 12.0049,14.91372 12.0049,14.91372 C12.25442,14.91372 12.4567,14.71144 12.4567,14.46192 C12.4567,14.2124 12.25442,14.01012 12.0049,14.01012 C12.0049,14.01012 12.0049,14.01012 12.0049,14.01012 Z M12.0049,11.63948 L6.41778,11.63948 C6.41778,11.63948 6.41778,11.63948 6.41778,11.63948 C6.16826,11.63948 5.96598,11.84176 5.96598,12.09128 C5.96598,12.3408 6.16826,12.54308 6.41778,12.54308 C6.41778,12.54308 6.41778,12.54308 6.41778,12.54308 L12.0049,12.54308 C12.0049,12.54308 12.0049,12.54308 12.0049,12.54308 C12.25442,12.54308 12.4567,12.3408 12.4567,12.09128 C12.4567,11.84176 12.25442,11.63948 12.0049,11.63948 C12.0049,11.63948 12.0049,11.63948 12.0049,11.63948 Z" id="Shape"></path>
            </g>
        </g>
    </g>
</svg>