<?xml version="1.0" encoding="UTF-8"?>
<svg width="18px" height="18px" viewBox="0 0 18 18" version="1.1" xmlns="http://www.w3.org/2000/svg" xmlns:xlink="http://www.w3.org/1999/xlink">
    <!-- Generator: Sketch 47.1 (45422) - http://www.bohemiancoding.com/sketch -->
    <title>打印</title>
    <desc>Created with Sketch.</desc>
    <defs></defs>
    <g id="Page-1" stroke="none" stroke-width="1" fill="none" fill-rule="evenodd">
        <g id="打印" fill-rule="nonzero" fill="#9B9B9B">
            <path d="M14.047247,6.74290105 L15.1711668,6.74290105 L15.1711668,7.86661488 L14.047247,7.86661488 L14.047247,6.74290105 Z M10.1140425,6.74290105 L12.9235331,6.74290105 L12.9235331,7.86661488 L10.1140425,7.86661488 L10.1140425,6.74290105 Z M6.18063207,14.609516 L11.7996133,14.609516 L11.7996133,15.7332298 L6.18063207,15.7332298 L6.18063207,14.609516 Z M6.18063207,11.8000253 L11.7996133,11.8000253 L11.7996133,12.9237392 L6.18063207,12.9237392 L6.18063207,11.8000253 Z M2.80928456,12.9237392 L3.93299839,12.9237392 L3.93299839,10.6761055 L2.80928456,10.6761055 L2.80928456,9.55239167 L15.1711668,9.55239167 L15.1711668,10.6761055 L14.047247,10.6761055 L14.047247,12.9237392 L15.1711668,12.9237392 C16.3997524,12.9237392 16.8567376,12.466754 16.8567376,11.2381684 L16.8567376,6.74290107 C16.8567376,5.81327203 16.1005898,5.0571243 15.1711668,5.0571243 L2.80928456,5.0571243 C1.87965552,5.0571243 1.12412589,5.81327203 1.12412589,6.74290107 L1.12412589,11.2381684 C1.12412589,12.1461638 2.40875289,12.9237392 2.80928456,12.9237392 Z M17.9806574,6.74290105 L17.9806574,11.2381684 C17.9806574,13.5603867 16.4529093,14.047659 15.1711668,14.047659 L14.047247,14.047659 L14.047247,17.9808634 L3.93299839,17.9808634 L3.93299839,14.047659 L2.80928456,14.047659 C1.87265034,14.047659 0,12.8332899 0,11.2381684 L0,6.74290105 C0,5.19372536 1.26010887,3.93341046 2.80928456,3.93341046 L4.49506134,3.93341046 L4.49506134,0 L13.4853901,0 L13.4853901,3.93341046 L15.1711668,3.93341046 C16.7201365,3.93341046 17.9806574,5.19372536 17.9806574,6.74290105 Z M12.9235331,16.8571496 L12.9235331,10.6761055 L5.05691823,10.6761055 L5.05691823,16.8571496 L12.9235331,16.8571496 Z M12.3616762,3.93341046 L12.3616762,1.12391986 L5.61877514,1.12391986 L5.61877514,3.93341046 L12.3616762,3.93341046 Z" id="Shape"></path>
        </g>
    </g>
</svg>