<?xml version="1.0" encoding="UTF-8"?>
<svg width="12px" height="10px" viewBox="0 0 12 10" version="1.1" xmlns="http://www.w3.org/2000/svg" xmlns:xlink="http://www.w3.org/1999/xlink">
    <!-- Generator: Sketch 47.1 (45422) - http://www.bohemiancoding.com/sketch -->
    <title>向上-2</title>
    <desc>Created with Sketch.</desc>
    <defs></defs>
    <g id="Page-1" stroke="none" stroke-width="1" fill="none" fill-rule="evenodd">
        <g id="U-经济类型管理-经济类型列表1-V2.1-0119-张宇" transform="translate(-248.000000, -176.000000)" fill-rule="nonzero" fill="#737373">
            <g id="Group-13" transform="translate(236.000000, 122.000000)">
                <g id="Group-7" transform="translate(10.000000, 50.000000)">
                    <g id="Group-17" transform="translate(1.000000, 0.000000)">
                        <g id="Group-16">
                            <g id="向上-2" transform="translate(6.351412, 9.351412) rotate(90.000000) translate(-6.351412, -9.351412) translate(1.351412, 3.351412)">
                                <path d="M9.5112656,10.0471677 C9.74698331,10.2789378 9.74698331,10.6778654 9.5112656,10.918403 C9.26677901,11.1633513 8.87882771,11.1633513 8.63727007,10.918403 L3.71098927,5.99014601 C3.47528953,5.7451977 3.47527156,5.35210301 3.71098927,5.11156543 L8.63728804,0.180409939 C8.87739018,-0.0601456478 9.26679698,-0.0601276448 9.5112656,0.180409939 C9.74698331,0.425358249 9.74698331,0.811107729 9.5112656,1.05603804 L5.02125482,5.54572488 L9.5112656,10.0471497 L9.5112656,10.0471677 Z" id="Shape"></path>
                                <path d="M5.97703991,10.0471677 C6.21275761,10.2789378 6.21275761,10.6778654 5.97703991,10.918403 C5.73255332,11.1633513 5.34460201,11.1633513 5.10306234,10.918403 L0.17678154,5.99014601 C-0.0589181954,5.7451977 -0.0589361644,5.35210301 0.17678154,5.11156543 L5.10308031,0.180409939 C5.34318246,-0.0601456478 5.73258925,-0.0601276448 5.97705788,0.180409939 C6.21277558,0.425358249 6.21277558,0.811107729 5.97705788,1.05603804 L1.48702913,5.54574288 L5.97705788,10.0471857 L5.97703991,10.0471677 Z" id="Shape"></path>
                            </g>
                        </g>
                    </g>
                </g>
            </g>
        </g>
    </g>
</svg>