<?xml version="1.0" encoding="UTF-8"?>
<svg width="16px" height="15px" viewBox="0 0 16 15" version="1.1" xmlns="http://www.w3.org/2000/svg" xmlns:xlink="http://www.w3.org/1999/xlink">
    <!-- Generator: Sketch 47.1 (45422) - http://www.bohemiancoding.com/sketch -->
    <title>上传</title>
    <desc>Created with Sketch.</desc>
    <defs>
        <filter x="-2.5%" y="-2.6%" width="105.0%" height="106.0%" filterUnits="objectBoundingBox" id="filter-1">
            <feOffset dx="0" dy="2" in="SourceAlpha" result="shadowOffsetOuter1"></feOffset>
            <feGaussianBlur stdDeviation="5" in="shadowOffsetOuter1" result="shadowBlurOuter1"></feGaussianBlur>
            <feColorMatrix values="0 0 0 0 0.450980392   0 0 0 0 0.450980392   0 0 0 0 0.450980392  0 0 0 0.5 0" type="matrix" in="shadowBlurOuter1" result="shadowMatrixOuter1"></feColorMatrix>
            <feMerge>
                <feMergeNode in="shadowMatrixOuter1"></feMergeNode>
                <feMergeNode in="SourceGraphic"></feMergeNode>
            </feMerge>
        </filter>
    </defs>
    <g id="综合管理_个人体检" stroke="none" stroke-width="1" fill="none" fill-rule="evenodd">
        <g id="U_综合管理_个人体检_修改个人信息_拍照_V1.0_1220_张宇-Copy-2" transform="translate(-417.000000, -651.000000)" fill-rule="nonzero" fill="#008CEE">
            <g id="Group-4" filter="url(#filter-1)" transform="translate(390.000000, 149.000000)">
                <g id="Group-5" transform="translate(27.000000, 502.000000)">
                    <path d="M7.99989944,0.000635336538 C7.72756912,0.000635336538 7.48292166,0.119668486 7.31395398,0.308992428 L7.31389913,0.308900174 L4.5446652,3.41350294 L4.54472006,3.41357674 C4.39736474,3.57860331 4.30769725,3.79700293 4.30769725,4.03660047 C4.30769725,4.55095944 4.72094669,4.9679813 5.23072037,4.9679813 C5.50310552,4.9679813 5.74780786,4.84889281 5.91677553,4.65958733 L5.91683039,4.65962423 L7.07693117,3.35913366 L7.07693117,9.46963689 C7.07693117,9.4696738 7.07693117,9.4696738 7.07693117,9.4696738 C7.07693117,9.9840512 7.49018062,10.4010546 7.99989944,10.4010546 C8.50983768,10.4010546 8.92301399,9.98406965 8.92301399,9.4696738 C8.92301399,9.4696738 8.92301399,9.4696738 8.92301399,9.46963689 L8.92301397,3.35911522 L10.0830599,4.65960579 L10.0831696,4.65956888 C10.2521007,4.84887438 10.496803,4.96796286 10.7691699,4.96796286 C11.2789985,4.96796286 11.6922479,4.55094099 11.6922479,4.03658203 C11.6922479,3.79698447 11.6025438,3.57858487 11.4552251,3.41355829 L11.4552799,3.4134845 L8.68606429,0.308900174 L8.68600944,0.308992428 C8.51709664,0.119668486 8.27233945,0.000635336538 7.99989944,0.000635336538 Z M14.1538075,9.41113502 L14.1538075,13.1366399 L1.84615595,13.1366399 L1.84615595,9.41113502 C1.84615595,8.89672071 1.43285165,8.47975419 0.923077975,8.47975419 C0.413304301,8.47975419 0,8.89672071 0,9.41113502 L0,14.0680207 C0,14.5823981 0.413304301,14.9993647 0.923077975,14.9993647 L15.0768854,14.9993647 C15.5867688,14.9993647 16,14.5823981 16,14.0680207 L16,9.41113502 C16,8.89672071 15.5867506,8.47975419 15.0768854,8.47975419 C14.5671118,8.47975419 14.1538075,8.89672071 14.1538075,9.41113502 Z" id="Shape"></path>
                </g>
            </g>
        </g>
    </g>
</svg>