<?xml version="1.0" encoding="UTF-8"?>
<svg width="12px" height="12px" viewBox="0 0 12 12" version="1.1" xmlns="http://www.w3.org/2000/svg" xmlns:xlink="http://www.w3.org/1999/xlink">
    <!-- Generator: Sketch 47.1 (45422) - http://www.bohemiancoding.com/sketch -->
    <title>VIP蓝</title>
    <desc>Created with Sketch.</desc>
    <defs></defs>
    <g stroke="none" stroke-width="1" fill="none" fill-rule="evenodd">
        <g transform="translate(-94.000000, -116.000000)" fill-rule="nonzero">
            <g transform="translate(94.000000, 116.000000)">
                <polygon id="Shape" fill="#165A89" points="0.00298564593 4.56588246 6 11.0320942 11.9970144 4.56588246"></polygon>
                <polygon id="Shape" fill="#2E74A4" points="0.0103349282 4.56588246 6 4.61032378 3.00149282 0.010647399"></polygon>
                <polygon id="Shape" fill="#007CD2" points="0.0103349282 3.13635341 6 11.0320942 3.00149282 0.010647399"></polygon>
                <polygon id="Shape" fill="#2E74A4" points="11.9970144 4.56588246 6.00734928 4.61032378 9.00585646 0.010647399"></polygon>
                <polygon id="Shape" fill="#007CD2" points="11.9970144 3.13635341 6.00734928 11.0320942 9.00585646 0.010647399"></polygon>
                <polygon id="Shape" fill="#1B679C" points="0.0103349282 4.56588246 6 11.0320942 0.0103349282 3.13635341"></polygon>
                <polygon id="Shape" fill="#1B679C" points="11.9970144 4.56588246 6.00734928 11.0320942 11.9970144 3.13635341"></polygon>
                <polygon id="Shape" fill="#3290D2" points="3.00149282 0.010647399 6 4.61032378 8.99850718 0.010647399"></polygon>
                <polygon id="Shape" fill="#2A9EF0" points="1.11272727 4.61032378 6 0.010647399 10.894622 4.61032378"></polygon>
                <path d="M8.74863158,3.39559443 C8.55020096,3.39559443 8.41056459,3.4104082 8.32237321,3.44003575 C8.2415311,3.46966329 8.18273684,3.51410461 8.160689,3.56595281 L6.4997512,7.44716122 L5.53699522,7.44716122 L3.94220096,3.5733597 C3.91280383,3.51410461 3.85400957,3.46966329 3.7584689,3.44003575 C3.66292823,3.4104082 3.54533971,3.39559443 3.39835407,3.39559443 L3.39835407,3.04747077 L5.82361722,3.04747077 L5.82361722,3.39559443 L5.24302392,3.39559443 C5.11808612,3.39559443 5.05194258,3.43262886 5.05194258,3.49929084 C5.05194258,3.5215115 5.05929187,3.55113904 5.07399043,3.5733597 L6.34541627,6.73610014 L7.61684211,3.61780102 C7.63154067,3.58817347 7.63888995,3.56595281 7.63888995,3.53632527 C7.63888995,3.44003575 7.536,3.39559443 7.33756938,3.39559443 L6.92600957,3.39559443 L6.92600957,3.04747077 L8.73393301,3.04747077 L8.74863158,3.39559443 L8.74863158,3.39559443 Z" id="Shape" fill="#FFFFFF"></path>
            </g>
        </g>
    </g>
</svg>