<?xml version="1.0" encoding="UTF-8"?>
<svg width="11px" height="16px" viewBox="0 0 11 16" version="1.1" xmlns="http://www.w3.org/2000/svg" xmlns:xlink="http://www.w3.org/1999/xlink">
    <!-- Generator: Sketch 47.1 (45422) - http://www.bohemiancoding.com/sketch -->
    <title>Triangle 2 Copy</title>
    <desc>Created with Sketch.</desc>
    <defs></defs>
    <g id="单位管理" stroke="none" stroke-width="1" fill="none" fill-rule="evenodd">
        <g id="U-检前准备-综合管理-单位体检-升级VIP-V1.1-1226-汤黎" transform="translate(-651.000000, -468.000000)">
            <g id="Group-3" transform="translate(630.000000, 265.000000)">
                <g id="Group">
                    <g id="Group-2">
                        <g id="Group-6">
                            <path d="M8,1.41517097e-14 L380,2.06146952e-15 L380,1.77635684e-15 C384.418278,3.23584857e-14 388,3.581722 388,8 L388,324 L388,324 C388,328.418278 384.418278,332 380,332 L8,332 L8,332 C3.581722,332 -3.47095419e-16,328.418278 -8.8817842e-16,324 L1.38898264e-14,8 L1.42108547e-14,8 C1.36697717e-14,3.581722 3.581722,2.92333339e-14 8,2.84217094e-14 Z" id="Rectangle-19" fill="#FFFFFF"></path>
                            <path d="M30.1562689,212.536443 L23.2803688,218.266359 L23.2803688,218.266359 C22.431815,218.973487 21.1706856,218.858839 20.4635574,218.010286 C20.1640324,217.650856 20,217.19779 20,216.729917 L20,205.270083 L20,205.270083 C20,204.165514 20.8954305,203.270083 22,203.270083 C22.467873,203.270083 22.9209388,203.434116 23.2803688,203.733641 L30.1562689,209.463557 L30.1562689,209.463557 C31.0048227,210.170686 31.1194709,211.431815 30.4123427,212.280369 C30.3349042,212.373295 30.2491951,212.459004 30.1562689,212.536443 Z" id="Triangle-2-Copy" fill="#CCCCCC" transform="translate(26.000000, 211.000000) rotate(-180.000000) translate(-26.000000, -211.000000) "></path>
                            <path d="M30.1562689,212.536443 L23.2803688,218.266359 L23.2803688,218.266359 C22.431815,218.973487 21.1706856,218.858839 20.4635574,218.010286 C20.1640324,217.650856 20,217.19779 20,216.729917 L20,205.270083 L20,205.270083 C20,204.165514 20.8954305,203.270083 22,203.270083 C22.467873,203.270083 22.9209388,203.434116 23.2803688,203.733641 L30.1562689,209.463557 L30.1562689,209.463557 C31.0048227,210.170686 31.1194709,211.431815 30.4123427,212.280369 C30.3349042,212.373295 30.2491951,212.459004 30.1562689,212.536443 Z" id="Triangle-2-Copy" fill="#CCCCCC" transform="translate(26.000000, 211.000000) rotate(-180.000000) translate(-26.000000, -211.000000) "></path>
                        </g>
                    </g>
                </g>
            </g>
        </g>
    </g>
</svg>