<?xml version="1.0" encoding="UTF-8"?>
<svg width="11px" height="16px" viewBox="0 0 11 16" version="1.1" xmlns="http://www.w3.org/2000/svg" xmlns:xlink="http://www.w3.org/1999/xlink">
    <!-- Generator: Sketch 47.1 (45422) - http://www.bohemiancoding.com/sketch -->
    <title>Triangle 2 Copy</title>
    <desc>Created with Sketch.</desc>
    <defs></defs>
    <g id="单位管理" stroke="none" stroke-width="1" fill="none" fill-rule="evenodd">
        <g id="U-检前准备-综合管理-单位体检-升级VIP-V1.1-1226-汤黎" transform="translate(-986.000000, -468.000000)">
            <g id="Group-3" transform="translate(630.000000, 265.000000)">
                <g id="Group">
                    <g id="Group-2">
                        <g id="Group-6">
                            <path d="M8,1.41517097e-14 L380,2.06146952e-15 L380,1.77635684e-15 C384.418278,3.23584857e-14 388,3.581722 388,8 L388,324 L388,324 C388,328.418278 384.418278,332 380,332 L8,332 L8,332 C3.581722,332 -3.47095419e-16,328.418278 -8.8817842e-16,324 L1.38898264e-14,8 L1.42108547e-14,8 C1.36697717e-14,3.581722 3.581722,2.92333339e-14 8,2.84217094e-14 Z" id="Rectangle-19" fill="#FFFFFF"></path>
                            <path d="M366.156269,212.536443 L359.280369,218.266359 L359.280369,218.266359 C358.431815,218.973487 357.170686,218.858839 356.463557,218.010286 C356.164032,217.650856 356,217.19779 356,216.729917 L356,205.270083 L356,205.270083 C356,204.165514 356.895431,203.270083 358,203.270083 C358.467873,203.270083 358.920939,203.434116 359.280369,203.733641 L366.156269,209.463557 L366.156269,209.463557 C367.004823,210.170686 367.119471,211.431815 366.412343,212.280369 C366.334904,212.373295 366.249195,212.459004 366.156269,212.536443 Z" id="Triangle-2-Copy" fill="#CCCCCC" transform="translate(362.000000, 211.000000) scale(-1, 1) rotate(-180.000000) translate(-362.000000, -211.000000) "></path>
                            <path d="M366.156269,212.536443 L359.280369,218.266359 L359.280369,218.266359 C358.431815,218.973487 357.170686,218.858839 356.463557,218.010286 C356.164032,217.650856 356,217.19779 356,216.729917 L356,205.270083 L356,205.270083 C356,204.165514 356.895431,203.270083 358,203.270083 C358.467873,203.270083 358.920939,203.434116 359.280369,203.733641 L366.156269,209.463557 L366.156269,209.463557 C367.004823,210.170686 367.119471,211.431815 366.412343,212.280369 C366.334904,212.373295 366.249195,212.459004 366.156269,212.536443 Z" id="Triangle-2-Copy" fill="#CCCCCC" transform="translate(362.000000, 211.000000) scale(-1, 1) rotate(-180.000000) translate(-362.000000, -211.000000) "></path>
                        </g>
                    </g>
                </g>
            </g>
        </g>
    </g>
</svg>