<?xml version="1.0" encoding="UTF-8"?>
<svg width="12px" height="11px" viewBox="0 0 12 11" version="1.1" xmlns="http://www.w3.org/2000/svg" xmlns:xlink="http://www.w3.org/1999/xlink">
    <!-- Generator: Sketch 47.1 (45422) - http://www.bohemiancoding.com/sketch -->
    <title>VIP黄</title>
    <desc>Created with Sketch.</desc>
    <defs></defs>
    <g stroke="none" stroke-width="1" fill="none" fill-rule="evenodd">
        <g transform="translate(-71.000000, -116.000000)" fill-rule="nonzero">
            <g transform="translate(71.000000, 116.000000)">
                <polygon id="Shape" fill="#FC8614" points="9.00585646 0.0102842625 2.99414354 0.0102842625 0.0103349282 3.02938603 0.0103349282 4.41016006 6 10.6558374 11.9896651 4.41016006 11.9896651 3.02938603"></polygon>
                <polygon id="Shape" fill="#F68508" points="0.00298564593 4.41016006 6 10.6558374 11.9970144 4.41016006"></polygon>
                <polygon id="Shape" fill="#F59900" points="0.0103349282 4.41016006 6 4.45308567 3.00149282 0.0102842625"></polygon>
                <polygon id="Shape" fill="#FFA200" points="0.0103349282 3.02938603 6 10.6558374 3.00149282 0.0102842625"></polygon>
                <polygon id="Shape" fill="#F59900" points="11.9970144 4.41016006 6.00734928 4.45308567 9.00585646 0.0102842625"></polygon>
                <polygon id="Shape" fill="#FFA200" points="11.9970144 3.02938603 6.00734928 10.6558374 9.00585646 0.0102842625"></polygon>
                <polygon id="Shape" fill="#F59900" points="0.0103349282 4.41016006 6 10.6558374 0.0103349282 3.02938603"></polygon>
                <polygon id="Shape" fill="#F59900" points="11.9970144 4.41016006 6.00734928 10.6558374 11.9970144 3.02938603"></polygon>
                <polygon id="Shape" fill="#F6AE2D" points="3.00149282 0.0102842625 6 4.45308567 8.99850718 0.0102842625"></polygon>
                <polygon id="Shape" fill="#FCB81D" points="1.11272727 4.45308567 6 0.0102842625 10.894622 4.45308567"></polygon>
                <path d="M8.74863158,3.27978546 C8.55020096,3.27978546 8.41056459,3.294094 8.32237321,3.32271108 C8.2415311,3.35132816 8.18273684,3.39425378 8.160689,3.44433366 L6.4997512,7.19317092 L5.53699522,7.19317092 L3.94220096,3.45148793 C3.91280383,3.39425378 3.85400957,3.35132816 3.7584689,3.32271108 C3.66292823,3.294094 3.54533971,3.27978546 3.39835407,3.27978546 L3.39835407,2.94353479 L5.82361722,2.94353479 L5.82361722,3.27978546 L5.24302392,3.27978546 C5.11808612,3.27978546 5.05194258,3.31555681 5.05194258,3.37994524 C5.05194258,3.40140805 5.05929187,3.43002512 5.07399043,3.45148793 L6.34541627,6.50636104 L7.61684211,3.49441355 C7.63154067,3.46579647 7.63888995,3.44433366 7.63888995,3.41571658 C7.63888995,3.32271108 7.536,3.27978546 7.33756938,3.27978546 L6.92600957,3.27978546 L6.92600957,2.94353479 L8.73393301,2.94353479 L8.74863158,3.27978546 L8.74863158,3.27978546 Z" id="Shape" fill="#FFFFFF"></path>
            </g>
        </g>
    </g>
</svg>