<?xml version="1.0" encoding="UTF-8"?>
<svg width="18px" height="16px" viewBox="0 0 18 16" version="1.1" xmlns="http://www.w3.org/2000/svg" xmlns:xlink="http://www.w3.org/1999/xlink">
    <!-- Generator: Sketch 47.1 (45422) - http://www.bohemiancoding.com/sketch -->
    <title>微信支付</title>
    <desc>Created with Sketch.</desc>
    <defs></defs>
    <g id="综合管理_个人体检" stroke="none" stroke-width="1" fill="none" fill-rule="evenodd">
        <g id="图标" transform="translate(-140.000000, -60.000000)" fill-rule="nonzero" fill="#00B700">
            <g id="微信支付" transform="translate(140.000000, 60.000000)">
                <path d="M6.54456308,10.1191432 C6.25825072,10.2658443 5.90802104,10.1585746 5.75125298,9.87616527 L5.71202877,9.78924632 L4.07441708,6.16828212 C4.05615186,6.12829582 4.04646193,6.08487981 4.04597952,6.04086684 C4.04597952,5.87394382 4.18032336,5.73862597 4.34604488,5.73862597 C4.41081586,5.73826318 4.47389508,5.75944203 4.52549576,5.7988766 L6.45826978,7.18167799 C6.695083,7.33835716 6.99169443,7.37244901 7.2574635,7.27353551 L16.3476792,3.19822229 C14.7179124,1.26427577 12.0330137,2.1604931e-07 8.99313576,2.1604931e-07 C4.02832862,-0.00098751186 0,3.38490047 0,7.55602209 C0,9.82776722 1.21202876,11.8802396 3.10852037,13.2640287 C3.26719014,13.377634 3.36117222,13.5618041 3.36053606,13.7578863 C3.35917706,13.8248771 3.34861702,13.8913558 3.32915667,13.9554294 L2.92318589,15.4784863 C2.89805212,15.5499232 2.88190966,15.6242523 2.8751362,15.6997345 C2.87621436,15.8658856 3.01024293,16.0000035 3.17520157,16 C3.23709145,15.9976384 3.29714128,15.9781602 3.34876879,15.9437002 L5.31880583,14.7989382 C5.46272454,14.7102497 5.62766184,14.6621496 5.79636085,14.6596704 C5.88612184,14.6598561 5.97535498,14.6735046 6.06112442,14.7001667 C7.01771555,14.975891 8.00795505,15.1151972 9.00294181,15.1140194 C13.9716714,15.1140194 18,11.73307 18,7.56194838 C17.9950432,6.32114319 17.6396232,5.10737987 16.9752669,4.06247314 L6.6151667,10.0875363 L6.54946611,10.1260572 L6.54456308,10.1191432 Z" id="Shape"></path>
            </g>
        </g>
    </g>
</svg>