<?xml version="1.0" encoding="UTF-8"?>
<svg width="16px" height="16px" viewBox="0 0 16 16" version="1.1" xmlns="http://www.w3.org/2000/svg" xmlns:xlink="http://www.w3.org/1999/xlink">
    <!-- Generator: Sketch 47.1 (45422) - http://www.bohemiancoding.com/sketch -->
    <title>现金支付</title>
    <desc>Created with Sketch.</desc>
    <defs></defs>
    <g id="综合管理_个人体检" stroke="none" stroke-width="1" fill="none" fill-rule="evenodd">
        <g id="图标" transform="translate(-53.000000, -57.000000)" fill-rule="nonzero" fill="#24A6E7">
            <path d="M64.2,64.9094106 C64.1934419,64.6161236 64.3443808,64.3422245 64.5944704,64.1935907 C64.8445599,64.044957 65.1546127,64.0448786 65.4047757,64.1933858 C65.6549387,64.341893 65.8060131,64.6157158 65.7996,64.9090061 C65.7899861,65.348681 65.4348537,65.7000683 64.9999956,65.7001782 C64.5651374,65.7002882 64.2098313,65.3490806 64.2,64.9094106 Z M69,71.6529169 C69,72.3968466 68.3328,73 67.5124,73 L54.4876,73 C53.6672,73 53,72.3968466 53,71.6529169 L53,61.4021401 C53,60.658615 53.6672,60.055057 54.4876,60.055057 L67.5124,60.055057 C68.3328,60.055057 69,60.658615 69,61.4021401 L69,63.2912927 L65,63.2912927 C64.1163444,63.2912927 63.4,64.0157488 63.4,64.9094106 C63.4,65.8030725 64.1163444,66.5275285 65,66.5275285 L69,66.5275285 L69,71.6529169 L69,71.6529169 Z M63.6648,57.179257 C64.4084,56.8188213 65.3004,57.0190633 65.6552,57.6262621 L66.6,59.2459981 L59.4,59.2459981 L63.6648,57.179257 Z" id="Shape"></path>
        </g>
    </g>
</svg>