<?xml version="1.0" encoding="UTF-8"?>
<svg width="27px" height="16px" viewBox="0 0 27 16" version="1.1" xmlns="http://www.w3.org/2000/svg" xmlns:xlink="http://www.w3.org/1999/xlink">
    <!-- Generator: Sketch 47.1 (45422) - http://www.bohemiancoding.com/sketch -->
    <title>银联支付</title>
    <desc>Created with Sketch.</desc>
    <defs></defs>
    <g id="综合管理_个人体检" stroke="none" stroke-width="1" fill="none" fill-rule="evenodd">
        <g id="图标" transform="translate(-96.000000, -60.000000)" fill-rule="nonzero">
            <g id="Group-18" transform="translate(96.000000, 60.000000)">
                <path d="M5.33333333,0 L12.3333333,0 C12.9373981,0 13.5096436,0.726526464 13.3333333,2 L10.3333333,14 C10.0240597,15.2734735 9.10499286,16 8.33333333,16 L1.33333333,16 C0.729299215,16 0.157021243,15.2734735 0.333333333,14 L3.33333333,2 C3.64257267,0.726526464 4.54430171,1.79815597e-15 5.33333333,0 Z" id="Shape" fill="#DE3030"></path>
                <path d="M11.3333333,0 L18.3333333,0 C19.6747027,0 19.2662196,0.726526464 19.3333333,2 L16.3333333,14 C15.8620561,15.2734735 15.930126,16 15.3333333,16 L7.33333333,16 C6.72195289,16 6.16028072,15.2734735 6.33333333,14 L9.33333333,2 C9.58146176,0.726526464 10.4835152,1.79815597e-15 11.3333333,0 L11.3333333,0 Z" id="Shape" fill="#004686"></path>
                <path d="M18.3333333,0 L25.3333333,0 C25.9379056,0 26.5093885,0.726526464 26.3333333,2 L23.3333333,14 C23.0285145,15.2734735 22.11064,16 21.3333333,16 L14.3333333,16 C13.7287611,16 13.1572782,15.2734735 13.3333333,14 L16.3333333,2 C16.6381846,0.726526464 17.5560591,1.79815597e-15 18.3333333,0 Z" id="Shape" fill="#008087"></path>
                <path d="M17.1441738,12.2711175 L17.7614517,12.2711175 L17.9329142,11.6666889 L17.3156684,11.6666889 L17.1441738,12.2711175 Z M17.6242753,10.5999933 L17.4185267,11.3111015 C17.4185267,11.3111015 17.6414504,11.1866476 17.7785947,11.1510988 C17.8986281,11.1155501 18.0872337,11.0977757 18.0872337,11.0977757 L18.241521,10.5999933 L17.6242753,10.5999933 L17.6242753,10.5999933 Z M17.9329142,9.56887986 L17.7271656,10.2622136 C17.7271656,10.2622136 17.9500572,10.1555341 18.0700906,10.1200186 C18.190124,10.0844699 18.3787296,10.0666622 18.3787296,10.0666622 L18.5158739,9.56887986 L17.9329142,9.56887986 L17.9329142,9.56887986 Z M19.2874391,9.56887986 L18.4987309,12.2711175 L18.7044794,12.2711175 L18.5330169,12.822223 L18.3272683,12.822223 L18.2758071,13 L17.5213849,13 L17.572814,12.822223 L16.0467945,12.822223 L16.201114,12.3066662 L16.3554334,12.3066662 L17.1613169,9.55110549 L17.3156363,9 L18.0872016,9 L18.0014864,9.28445658 C18.0014864,9.28445658 18.207235,9.12445391 18.3958405,9.0710975 C18.5844461,9.01777438 19.6989684,9 19.6989684,9 L19.5274738,9.55110549 L19.2874391,9.56887986 L19.2874391,9.56887986 Z" id="Shape" fill="#FFFFFF"></path>
                <path d="M19.4588689,9 L20.272986,9 L20.2899434,9.31855914 C20.2899434,9.37167995 20.3238583,9.38937584 20.4256349,9.38937584 L20.5952413,9.38937584 L20.4425923,9.90265604 L20.0016348,9.90265604 C19.6285071,9.93804782 19.4758582,9.76108893 19.4928156,9.56636787 L19.4588689,9 Z M19.5776029,11.4778884 L18.8143901,11.4778884 L18.9500815,11.0176959 L19.8320284,11.0176959 L19.9676881,10.5929283 L19.1027305,10.5929283 L19.2553476,10.0796481 L21.6467945,10.0796481 L21.4941456,10.5929283 L20.6800603,10.5929283 L20.5444006,11.0176959 L21.3584859,11.0176959 L21.2228262,11.4778884 L20.3408793,11.4778884 L20.1882304,11.6725763 L20.5444006,11.6725763 L20.6291879,12.2566401 C20.6461454,12.3097278 20.6461454,12.3451195 20.6631029,12.3805445 C20.6800603,12.3982404 20.7818369,12.4159362 20.849635,12.4159362 L20.9514115,12.4159362 L20.7818051,12.9823041 L20.5104222,12.9823041 C20.4595498,12.9823041 20.4086457,12.9823041 20.3238583,12.9646082 C20.239071,12.9646082 20.1881986,12.9115206 20.120337,12.8761288 C20.0694646,12.8583997 20.001603,12.7876493 19.9846773,12.6814409 L19.8998583,12.0973771 L19.4928156,12.6637781 C19.3571559,12.8407701 19.1875495,12.9823372 18.8991774,12.9823372 L18.3394859,12.9823372 L18.4921348,12.469057 L18.7126453,12.469057 C18.7804752,12.469057 18.8313793,12.4513612 18.8652942,12.4159694 C18.9161666,12.3982404 18.9500815,12.3805776 18.9840282,12.3097609 L19.5776029,11.4778884 L19.5776029,11.4778884 Z M11.1312303,10.2035524 L13.166507,10.2035524 L13.013858,10.7168326 L12.199741,10.7168326 L12.0640496,11.1416003 L12.895124,11.1416003 L12.7424751,11.6725763 L11.9114006,11.6725763 L11.7078793,12.3805445 C11.6909219,12.4513612 11.9114006,12.4690239 11.9792622,12.4690239 L12.4032941,12.4159362 L12.2336559,13 L11.3008367,13 C11.2329751,13 11.165177,12.982271 11.0803579,12.9646082 C10.9955389,12.9469123 10.9616239,12.9115206 10.927709,12.8583997 C10.8937941,12.8053121 10.8429217,12.7522244 10.8768366,12.6283201 L11.1481878,11.6902391 L10.6902728,11.6902391 L10.8429217,11.1592961 L11.3008367,11.1592961 L11.4195707,10.7344954 L10.9616557,10.7344954 L11.1312303,10.2035524 L11.1312303,10.2035524 Z M12.5050389,9.30089639 L13.3361133,9.30089639 L13.1834644,9.83187248 L12.0471239,9.83187248 L11.9283899,9.93804782 C11.8775175,9.99116862 11.8605282,9.9734396 11.7926984,10.0088645 C11.7248685,10.0442563 11.5891771,10.115073 11.4195707,10.115073 L11.046443,10.115073 L11.1990919,9.60175965 L11.3008367,9.60175965 C11.4026132,9.60175965 11.4534856,9.58406376 11.4874006,9.56636787 C11.5213155,9.54867198 11.5721879,9.49558431 11.6061345,9.40710487 L11.8096559,9.01769589 L12.6576878,9.01769589 L12.5050389,9.30089639 L12.5050389,9.30089639 Z M14.0993262,10.1681607 C14.0993262,10.1681607 14.3198367,9.95577685 14.7099219,9.88496015 C14.8116667,9.86726426 15.3713582,9.86726426 15.3713582,9.86726426 L15.4561455,9.56633473 L14.2689326,9.56633473 L14.0993262,10.1681607 Z M15.2187093,10.3805445 L14.0484221,10.3805445 L13.9805604,10.6283201 L14.9981988,10.6283201 C15.1169328,10.610591 15.1508477,10.6283201 15.1508477,10.6283201 L15.2187093,10.3805445 L15.2187093,10.3805445 Z M13.6922836,9 L14.404624,9 L14.3028475,9.37167995 C14.3028475,9.37167995 14.523358,9.17699203 14.676007,9.12390436 C14.8286241,9.07078356 15.1847944,9 15.1847944,9 L16.3381241,9 L15.948039,10.3628486 C15.8801774,10.5929283 15.8123475,10.7522244 15.7614751,10.823008 C15.7106027,10.8937915 15.6596986,10.9469123 15.5579538,11.0176628 C15.4561773,11.0707836 15.37139,11.1061422 15.2865709,11.1061422 C15.2187093,11.1061422 15.1000071,11.1238712 14.9304007,11.1238712 L13.8449325,11.1238712 L13.5226772,12.2035193 C13.4887623,12.3096946 13.471773,12.3628154 13.505688,12.3981741 C13.5226772,12.4159031 13.5565921,12.4512949 13.6074645,12.4512949 L14.0993262,12.3981741 L13.9297198,12.9999669 L13.386954,12.9999669 C13.2173476,12.9999669 13.0816879,12.9999669 12.9968688,12.9822378 C12.9120497,12.9822378 12.8272307,12.9822378 12.7594326,12.9291502 C12.7085284,12.8760625 12.6237411,12.8229748 12.6237411,12.7521581 C12.6237411,12.6990705 12.657656,12.592862 12.6916027,12.4689576 L13.6922836,9 L13.6922836,9 Z" id="Shape" fill="#FFFFFF"></path>
                <path d="M15.8269396,11.0239534 L15.7596602,11.3486651 C15.7260206,11.4512174 15.7091692,11.5195642 15.62507,11.5879111 C15.5409708,11.65629 15.4568401,11.7246049 15.2381506,11.7246049 L14.8512312,11.7417236 L14.8512312,12.1006087 C14.8512312,12.203129 14.868051,12.1860423 14.8848394,12.203129 C14.9016907,12.2202477 14.9184791,12.2202477 14.9353304,12.2373024 L15.0531008,12.2373024 L15.4232004,12.2202157 L15.2717903,12.75 L14.8343799,12.75 C14.5315912,12.75 14.3128702,12.75 14.228771,12.6816211 C14.1614601,12.630361 14.1446718,12.5791008 14.1446718,12.4765485 L14.1783115,11.0751816 L14.868051,11.0751816 L14.8512312,11.3657198 L15.0194611,11.3657198 C15.0699207,11.3657198 15.1203802,11.3657198 15.1372315,11.3486331 C15.1540514,11.3315463 15.1708712,11.3144596 15.1876911,11.2802542 L15.2550019,11.0580948 L15.8269396,11.0239534 L15.8269396,11.0239534 Z M6.0191754,4.01708672 C6.00232406,4.13672575 5.54812529,6.20457072 5.54812529,6.20457072 C5.44717473,6.61471597 5.37986386,6.92234091 5.14435455,7.11035881 C5.0097958,7.21287913 4.85838571,7.281258 4.67333593,7.281258 C4.38733559,7.281258 4.21910566,7.12744553 4.18543447,6.85399403 L4.18543447,6.75147372 L4.26953369,6.187516 C4.26953369,6.187516 4.72376396,4.30762494 4.80789468,4.05129215 L4.80789468,4.01711872 C3.89946563,4.03420544 3.74805554,4.01711872 3.7312357,4 C3.7312357,4.01711872 3.69759601,4.13672575 3.69759601,4.13672575 L3.2265459,6.25586287 L3.17608637,6.44384878 L3.14244668,7.04201194 C3.14244668,7.21291112 3.17608637,7.36672359 3.24336574,7.48636262 C3.4620867,7.86233444 4.06769557,7.93071331 4.42097528,7.93071331 C4.87520555,7.93071331 5.29576464,7.828161 5.56494513,7.65726181 C6.05281509,7.36675559 6.18740534,6.90531818 6.30517574,6.49514094 L6.35563527,6.29006831 C6.35563527,6.29006831 6.82668539,4.34183037 6.91078461,4.08546559 L6.91078461,4.05132415 C6.27150456,4.03417344 6.08642328,4.03417344 6.0191754,4.01708672 L6.0191754,4.01708672 Z M8.66033182,7.89647588 C8.3406918,7.89647588 8.2229214,7.89647588 7.85285334,7.91359459 L7.836002,7.87942115 C7.86964168,7.7426954 7.90331287,7.58891493 7.93695256,7.45215719 L7.98741209,7.24708456 C8.05472296,6.93945962 8.12200233,6.58057453 8.13882218,6.47805422 C8.13882218,6.40967534 8.17246186,6.25586287 7.98741209,6.25586287 C7.90331287,6.25586287 7.836002,6.29003631 7.75190278,6.32424175 C7.70144325,6.49514094 7.61734403,6.93945962 7.5668845,7.16165097 C7.46593394,7.60600165 7.46593394,7.65726181 7.43229425,7.87942115 L7.39865456,7.91359459 C7.0621947,7.91359459 6.96124414,7.91359459 6.57435623,7.93068131 L6.55750489,7.89650787 C6.62481577,7.64017509 6.69209514,7.36672359 6.74255467,7.11039081 C6.91078461,6.39262062 6.94442429,6.11916912 6.97806398,5.76028403 L7.01170367,5.74319731 C7.38180322,5.69190516 7.46590244,5.67481844 7.86964168,5.58938484 L7.90328137,5.62355828 L7.8359705,5.84571762 C7.90328137,5.81154419 7.97056075,5.76028403 8.03787162,5.72607859 C8.2228899,5.640645 8.44161086,5.60643956 8.55938126,5.60643956 C8.7276112,5.60643956 8.92948082,5.65773172 9.01358004,5.86280434 C9.08089091,6.05075825 9.03043138,6.27294959 8.94630066,6.71730028 L8.89580963,6.93945962 C8.79489057,7.43510247 8.77803923,7.52053606 8.71079135,7.86230244 L8.66033182,7.89647588 L8.66033182,7.89647588 Z M9.95571177,7.89647588 L9.51830134,7.89647588 C9.40053093,7.89647588 9.28279203,7.89647588 9.09771075,7.91359459 L9.08089091,7.89647588 L9.06403957,7.87938916 C9.1145306,7.69140325 9.13135044,7.62302438 9.16499013,7.5546775 C9.18180997,7.48629863 9.21544966,7.41795175 9.24908935,7.22996584 C9.29954888,6.97360106 9.33318856,6.80270188 9.36685975,6.64888941 C9.38371109,6.49507694 9.40049944,6.37543791 9.41731928,6.23874416 L9.43417062,6.22165744 L9.45099047,6.20453872 C9.63604024,6.17036528 9.77063049,6.15327857 9.88840089,6.13615985 C10.0229911,6.11907313 10.1407615,6.08489969 10.3426312,6.05072625 L10.3426312,6.08489969 L10.2416806,6.5463371 L10.1407615,7.00774251 C10.0734507,7.33245416 10.039811,7.45209319 10.0229911,7.53752679 C10.0061398,7.62296038 10.0061398,7.67425254 9.97250011,7.82803301 L9.95568027,7.84515172 L9.95568027,7.89647588 L9.95571177,7.89647588 L9.95571177,7.89647588 Z M11.9912908,6.75147372 C11.974471,6.83690731 11.9071916,7.14453225 11.8062725,7.281258 C11.7389617,7.38377831 11.6548624,7.43507047 11.5707632,7.43507047 C11.5539119,7.43507047 11.3857135,7.43507047 11.3857135,7.1958244 C11.3857135,7.07618537 11.4025648,6.95657834 11.436173,6.81982059 C11.5203037,6.44384878 11.6212228,6.11913713 11.8735834,6.11913713 C12.0586017,6.13622384 12.0754215,6.37546991 11.9912908,6.75147372 L11.9912908,6.75147372 Z M12.832472,6.78564716 C12.9502424,6.29000432 12.8660802,6.05075825 12.7483728,5.9140645 C12.5801113,5.69187316 12.2941425,5.62355828 11.9913223,5.62355828 C11.806304,5.62355828 11.3688936,5.640645 11.0324337,5.96532466 C10.7801046,6.187516 10.679154,6.51222765 10.6118747,6.80273388 C10.5445638,7.11035881 10.4604646,7.65722981 10.9651544,7.86230244 C11.116533,7.93068131 11.3352539,7.94773603 11.486664,7.94773603 C11.8567636,7.94773603 12.2268631,7.84521572 12.5128635,7.53759078 C12.6978502,7.29834472 12.7988008,6.93945962 12.832472,6.78564716 Z M20.6383283,7.93068131 C20.2514089,7.93068131 20.1504269,7.93068131 19.7803588,7.94776803 L19.763539,7.91362659 C19.864458,7.53762278 19.9654086,7.16165097 20.0495078,6.78571115 C20.1672782,6.29006831 20.1840666,6.08499568 20.2177378,5.79448946 L20.2513774,5.77737075 C20.6382968,5.72611059 20.7392474,5.70902387 21.1430181,5.62359028 L21.159838,5.65776372 C21.0925271,5.96535665 21.0084279,6.27298159 20.941117,6.58057453 C20.7897384,7.23002984 20.7392474,7.5547095 20.6887879,7.89650787 L20.6383283,7.93068131 L20.6383283,7.93068131 Z" id="Shape" fill="#FFFFFF"></path>
                <path d="M20.0938443,6.81038557 C20.0769814,6.89657688 20.0095299,7.20693017 19.9083526,7.34486855 C19.8408695,7.44829813 19.689072,7.50004519 19.5878947,7.50004519 C19.5710002,7.50004519 19.4023714,7.50004519 19.4023714,7.25867724 C19.4023714,7.13797712 19.4192343,7.01730928 19.4529601,6.87933862 C19.5372745,6.50003228 19.6384833,6.18967899 19.8914582,6.18967899 C20.0938443,6.20694954 20.1781587,6.43107923 20.0938443,6.81038557 L20.0938443,6.81038557 Z M20.8528003,6.86210036 C20.9708721,6.3620939 20.5154795,6.81038557 20.448028,6.65520893 C20.3468507,6.39657043 20.3974394,5.87935799 19.9589413,5.68967254 C19.7902809,5.62068721 19.385477,5.7069108 19.0481562,6.03447007 C18.8120442,6.25863204 18.6939725,6.56898533 18.6264894,6.87930634 C18.5590378,7.18965963 18.4747234,7.74138087 18.9806731,7.93103404 C19.1324706,8.00001937 19.2842681,8.01722535 19.4192027,8.01722535 C19.9251839,7.98274882 20.2962305,7.22413615 20.5829626,6.91378286 C20.7853488,6.67244719 20.8191061,7.00003874 20.8528003,6.86210036 L20.8528003,6.86210036 Z M15.0171695,7.93106632 C14.6967116,7.93106632 14.5786398,7.93106632 14.2076248,7.94833686 L14.1907619,7.91386034 C14.2244877,7.77592196 14.2582135,7.62077759 14.2919392,7.48280693 L14.3425279,7.2759155 C14.410011,6.96556221 14.4774625,6.60349414 14.4943254,6.50006456 C14.4943254,6.43107923 14.5280512,6.27590259 14.3425279,6.27590259 C14.2582135,6.27590259 14.1738675,6.31037911 14.1064475,6.34488792 C14.0558273,6.51730283 13.9715129,6.96556221 13.9209243,7.18972419 C13.8366098,7.63801586 13.8197154,7.68973064 13.7859896,7.91386034 L13.7522954,7.9310986 C13.4149746,7.9310986 13.3137973,7.9310986 12.9258563,7.94836914 L12.9089619,7.91389262 C12.976445,7.65525412 13.0270336,7.37940964 13.0944851,7.12077114 C13.2462827,6.39663499 13.2968713,6.12079051 13.3305971,5.75872243 L13.3643228,5.74145189 C13.7353694,5.6897371 13.8196838,5.67249884 14.2244877,5.58627524 L14.2581819,5.63802231 L14.2075932,5.86215201 C14.2750764,5.82767548 14.3424963,5.77596069 14.4099794,5.74145189 C14.5955027,5.65526058 14.8147517,5.62075177 14.9328235,5.62075177 C15.1015155,5.62075177 15.3039016,5.67249884 15.388216,5.87939027 C15.4556991,6.06901116 15.4050789,6.29317313 15.3207329,6.7414648 L15.2701443,6.96559449 C15.1689354,7.46563323 15.1520725,7.55182454 15.1014839,7.89662208 L15.0171695,7.93106632 L15.0171695,7.93106632 Z M17.8000818,4.01727054 L17.5302126,4.01727054 C16.8386765,4.03450881 16.5519759,4.01727054 16.4507987,4 C16.4339042,4.05174707 16.4170729,4.13793838 16.4170729,4.13793838 L16.1640665,5.3103662 C16.1640665,5.3103662 15.5737393,7.8103662 15.5400451,7.93103404 L16.5013873,7.93103404 C16.5182502,7.81033392 16.6700477,7.12067429 16.6700477,7.12067429 C16.6700477,7.12067429 16.7881195,6.60342957 16.8049823,6.58619131 C16.8049823,6.58619131 16.8387081,6.53447652 16.8724654,6.51720598 L16.9230541,6.51720598 C17.4459297,6.51720598 18.0361938,6.51720598 18.4916179,6.17240845 C18.8120758,5.93104049 19.014462,5.5861784 19.1156708,5.15515727 C19.1325337,5.05169542 19.1662595,4.9309953 19.1662595,4.7930892 C19.1662595,4.62067429 19.1325337,4.46549765 19.0481877,4.34482981 C18.8120127,4.01727054 18.3397888,4.01727054 17.8000818,4.01727054 L17.8000818,4.01727054 Z M18.1542339,5.24141315 C18.1036453,5.50001937 17.9349849,5.72418134 17.7157359,5.82761092 C17.5302442,5.91380223 17.3278264,5.93107278 17.1085774,5.93107278 L16.9567799,5.93107278 L16.9736743,5.87935799 L17.2435436,4.70693017 L17.2435436,4.60346831 L17.3447209,4.62073886 C17.3447209,4.62073886 17.8844594,4.67245364 17.9012907,4.67245364 C18.1205398,4.74143898 18.2048542,4.94833041 18.1542339,5.24141315 Z M23.8380989,5.65519601 L23.8043731,5.62071949 C23.3996008,5.7069108 23.3321177,5.7069108 22.977934,5.75865787 L22.9442082,5.79310211 L22.9442082,5.81037266 C22.6743389,6.44831749 22.6743389,6.31037911 22.4550899,6.81038557 L22.4550899,6.74140024 L22.4045013,5.65519601 L22.3707755,5.62071949 C21.9660032,5.7069108 21.9491087,5.7069108 21.5611993,5.75865787 L21.5274735,5.79310211 L21.5274735,5.84484918 C21.5780937,6.1034554 21.5611993,6.03447007 21.6118195,6.43104695 C21.6286824,6.62070012 21.6624081,6.81038557 21.679271,7.017277 C21.7129968,7.34486855 21.7467541,7.50004519 21.7804799,7.98278111 C21.5274735,8.41383451 21.460022,8.58624942 21.2070156,8.96555576 L21.22391,9 C21.5949566,8.98276174 21.679271,8.98276174 21.9660347,8.98276174 L22.0334863,8.91377641 C22.2358093,8.44834332 23.8380989,5.65519601 23.8380989,5.65519601 L23.8380989,5.65519601 Z M10.3115728,5.93107278 C10.5308218,5.77589613 10.5476847,5.5690047 10.3621614,5.46554284 C10.1766697,5.36211327 9.87307469,5.39658979 9.65379407,5.53452818 C9.43454502,5.67243428 9.41768214,5.89659625 9.58634254,6.00005811 C9.77183424,6.12072594 10.0922922,6.08624942 10.3115728,5.93107278 L10.3115728,5.93107278 Z" id="Shape" fill="#FFFFFF"></path>
                <path d="M22.133751,9 L21.795252,9.62745962 C21.6883786,9.84309838 21.4924107,10 21.1895361,10 L20.6728815,9.98035977 L20.8331915,9.43138767 L20.9400982,9.43138767 C20.9935349,9.43138767 21.0291594,9.43138767 21.0648172,9.41174743 C21.0826294,9.39214391 21.1182539,9.37254038 21.1360995,9.35293686 L21.3320673,9.01964023 L22.133751,9.01964023 L22.133751,9 L22.133751,9 Z" id="Shape" fill="#FFFFFF"></path>
            </g>
        </g>
    </g>
</svg>