<?xml version="1.0" encoding="UTF-8"?>
<svg width="16px" height="16px" viewBox="0 0 16 16" version="1.1" xmlns="http://www.w3.org/2000/svg" xmlns:xlink="http://www.w3.org/1999/xlink">
    <!-- Generator: Sketch 47.1 (45422) - http://www.bohemiancoding.com/sketch -->
    <title>支付宝</title>
    <desc>Created with Sketch.</desc>
    <defs></defs>
    <g id="综合管理_个人体检" stroke="none" stroke-width="1" fill="none" fill-rule="evenodd">
        <g id="图标" transform="translate(-23.000000, -60.000000)" fill-rule="nonzero" fill="#00A8F2">
            <g id="支付宝" transform="translate(23.000000, 60.000000)">
                <path d="M13.1818182,10.0486409 C15.4772727,10.8268956 16,10.8497854 16,10.8497854 L16,2.56366238 C16,1.14449213 14.8636364,0 13.4318182,0 L2.56818182,0 C1.1590909,0 0,1.14449213 0,2.56366238 L0,13.4363376 C0.0227272738,14.8555079 1.15909092,16 2.59090909,16 L13.4318182,16 C14.8409091,16 16,14.8555079 16,13.4363376 L16,13.3218884 C16,13.3218884 11.8409091,11.5822604 9.75000001,10.5751073 C8.34090909,12.3147353 6.52272728,13.3676681 4.63636364,13.3676681 C1.45454546,13.3676681 0.363636366,10.5751073 1.88636363,8.74391989 C2.20454545,8.35479256 2.77272727,7.96566523 3.63636364,7.73676681 C5.00000001,7.39341917 7.15909091,7.94277539 9.18181818,8.60658083 C9.56818182,7.8969957 9.86363636,7.16452075 10.0909091,6.40915594 L3.84090909,6.40915594 L3.84090909,5.76824034 L7.06818182,5.76824034 L7.06818182,4.62374822 L3.15909091,4.62374822 L3.15909091,3.98283263 L7.06818182,3.98283263 L7.06818182,2.3576538 C7.06818182,2.3576538 7.06818182,2.08297569 7.34090909,2.08297567 L8.90909091,2.08297567 L8.90909091,3.98283263 L12.7727273,3.98283263 L12.7727273,4.62374822 L8.90909091,4.62374822 L8.90909091,5.76824034 L12.0681818,5.76824034 C11.7727273,7.00429184 11.3181818,8.14878398 10.7272727,9.1330472 C11.6818182,9.49928469 12.5454545,9.84263233 13.1818182,10.0486409 Z" id="Shape"></path>
                <path d="M4.28008794,8.02332994 C3.84662663,8.07398816 3.05194757,8.25129191 2.61848625,8.65655766 C1.31810232,9.84702577 2.08870021,12 4.73763043,12 C6.27882619,12 7.79594079,10.9868357 9,9.34044359 C7.29023594,8.47925389 5.84536489,7.87135528 4.28008794,8.02332994 L4.28008794,8.02332994 Z" id="Shape"></path>
            </g>
        </g>
    </g>
</svg>