<svg xmlns="http://www.w3.org/2000/svg" viewBox="0 0 24.2 24.19"><defs><style>.cls-1{fill:#999;}</style></defs><title>资源 8</title><g id="图层_2" data-name="图层 2"><g id="图层_1-2" data-name="图层 1"><path class="cls-1" d="M23.41,3.79a2.53,2.53,0,0,0-1.8-.74h-.05a2.6,2.6,0,0,0-2.42,1.67,2.63,2.63,0,0,0,.64,2.81L18.34,10.9A3.19,3.19,0,0,1,14,12.65a3.78,3.78,0,0,1-1.61-4.87l1.09-2.53h.19a2.63,2.63,0,1,0-2-1L10.49,6.88A6.19,6.19,0,0,0,12.18,14L9.25,20.36A2.89,2.89,0,1,1,4,17.93l.54-1.18a1.45,1.45,0,0,0,.59-.13,9.21,9.21,0,0,0,2.21-1.29,6.46,6.46,0,0,0,1.48-1.56,5.09,5.09,0,0,0,.87-2.41,3.59,3.59,0,0,0-3.07-4,3.24,3.24,0,0,0-1.51.2,3.16,3.16,0,0,0-3.8.22A3.76,3.76,0,0,0,0,10.38a5.16,5.16,0,0,0,.43,2.54,6.89,6.89,0,0,0,1.19,1.82,8.61,8.61,0,0,0,1,1L2,17a5.12,5.12,0,0,0,2.5,6.72,5,5,0,0,0,2.12.47,5.1,5.1,0,0,0,4.61-2.9L14.14,15a4.79,4.79,0,0,0,1.19.15,5.33,5.33,0,0,0,4.84-3.36l1.54-3.57A2.6,2.6,0,0,0,24.2,5.62,2.57,2.57,0,0,0,23.41,3.79ZM22.5,5.6a.9.9,0,1,1-.9-.9A.9.9,0,0,1,22.5,5.6ZM13.65,3.4a.95.95,0,1,1,.95-.95A1,1,0,0,1,13.65,3.4Zm-9,6.86.75-.59A.91.91,0,0,1,6,9.47a1.5,1.5,0,0,1,1,1.62,2.1,2.1,0,0,1-.43,1.14,4.07,4.07,0,0,1-.88,1A6.52,6.52,0,0,1,4.4,14a7.26,7.26,0,0,1-1.15-1.07,4.84,4.84,0,0,1-.8-1.15,2.86,2.86,0,0,1-.24-1.36,1.44,1.44,0,0,1,.48-1,.9.9,0,0,1,.59-.22h.09A1,1,0,0,1,4,9.54Z"/></g></g></svg>