<?xml version="1.0" encoding="UTF-8"?>
<svg width="24px" height="24px" viewBox="0 0 24 24" version="1.1" xmlns="http://www.w3.org/2000/svg" xmlns:xlink="http://www.w3.org/1999/xlink">
    <!-- Generator: Sketch 49 (51002) - http://www.bohemiancoding.com/sketch -->
    <title>Group 13 Copy 2</title>
    <desc>Created with Sketch.</desc>
    <defs></defs>
    <g id="登陆图标" stroke="none" stroke-width="1" fill="none" fill-rule="evenodd">
        <g id="Group-16-Copy-2" transform="translate(2.000000, 0.000000)" fill="#999999">
            <path d="M18.7,16.2111298 C20.0419509,16.7008906 21,17.9885631 21,19.5 C21,21.0292637 20.019218,22.3294535 18.6523575,22.8058658 C18.5231336,23.2085442 18.1456034,23.5 17.7,23.5 L17,23.5 C16.5056581,23.5 16.0950949,23.1413005 16.0143879,22.6699791 C14.824163,22.1112138 14,20.9018537 14,19.5 C14,18.103802 14.8175263,16.8985475 16,16.3368156 L16,1 C16,0.44771525 16.4477153,1.01453063e-16 17,0 L17.7,0 C18.2522848,-1.01453063e-16 18.7,0.44771525 18.7,1 L18.7,16.2111298 Z M11.7,8.21112985 C13.0419509,8.70089056 14,9.9885631 14,11.5 C14,13.0114369 13.0419509,14.2991094 11.7,14.7888702 L11.7,22.5 C11.7,23.0522847 11.2522848,23.5 10.7,23.5 L10,23.5 C9.44771525,23.5 9,23.0522847 9,22.5 L9,14.6631844 C7.81752633,14.1014525 7,12.896198 7,11.5 C7,10.103802 7.81752633,8.89854755 9,8.33681558 L9,1 C9,0.44771525 9.44771525,1.01453063e-16 10,0 L10.7,0 C11.2522848,-1.01453063e-16 11.7,0.44771525 11.7,1 L11.7,8.21112985 Z M4.70000005,1.21112985 C6.04195086,1.70089056 7,2.9885631 7,4.5 C7,6.0114369 6.04195086,7.29910944 4.70000005,7.78887015 L4.70000005,22.5 C4.70000005,23.0522847 4.26042507,23.5 3.71818185,23.5 L2.9818182,23.5 C2.43957498,23.5 2,23.0522847 2,22.5 L2,7.66318442 C0.817526333,7.10145245 0,5.89619798 0,4.5 C0,3.10380202 0.817526333,1.89854755 2,1.33681558 L2,1 C2,0.44771525 2.43957498,1.01453063e-16 2.9818182,0 L3.71818185,0 C4.26042507,-1.01453063e-16 4.70000005,0.44771525 4.70000005,1 L4.70000005,1.21112985 Z M3.5,6 C4.32842712,6 5,5.32842712 5,4.5 C5,3.67157288 4.32842712,3 3.5,3 C2.67157288,3 2,3.67157288 2,4.5 C2,5.32842712 2.67157288,6 3.5,6 Z M10.5,13 C11.3284271,13 12,12.3284271 12,11.5 C12,10.6715729 11.3284271,10 10.5,10 C9.67157288,10 9,10.6715729 9,11.5 C9,12.3284271 9.67157288,13 10.5,13 Z M17.5,21 C18.3284271,21 19,20.3284271 19,19.5 C19,18.6715729 18.3284271,18 17.5,18 C16.6715729,18 16,18.6715729 16,19.5 C16,20.3284271 16.6715729,21 17.5,21 Z" id="Combined-Shape"></path>
        </g>
    </g>
</svg>