<?xml version="1.0" encoding="UTF-8"?>
<svg width="24px" height="22px" viewBox="0 0 24 22" version="1.1" xmlns="http://www.w3.org/2000/svg" xmlns:xlink="http://www.w3.org/1999/xlink">
    <!-- Generator: Sketch 49 (51002) - http://www.bohemiancoding.com/sketch -->
    <title>Group 13</title>
    <desc>Created with Sketch.</desc>
    <defs></defs>
    <g id="登陆图标" stroke="none" stroke-width="1" fill="none" fill-rule="evenodd">
        <g id="Group-13" fill="#999999">
            <rect id="Rectangle-17" x="11" y="16" width="3" height="5"></rect>
            <rect id="Rectangle-17-Copy" x="6" y="20" width="13" height="2" rx="1"></rect>
            <rect id="Rectangle-path" fill-rule="nonzero" x="4" y="4" width="12" height="2"></rect>
            <rect id="Rectangle-path-Copy" fill-rule="nonzero" x="4" y="8" width="7" height="2"></rect>
            <rect id="Rectangle-path-Copy-2" fill-rule="nonzero" x="4" y="12" width="7" height="2"></rect>
            <g id="设置-(2)" transform="translate(14.000000, 8.000000)" fill-rule="nonzero">
                <path d="M5.9776266,2.55426102 C5.95410171,2.41474024 5.82823825,2.27267186 5.69765946,2.2412121 L5.60003627,2.21734016 C5.37069452,2.14317681 5.16715702,1.98094702 5.03777023,1.74206211 C4.90838343,1.50195824 4.87781121,1.22912049 4.93429152,0.978937861 L4.96486355,0.8808472 C5.00367449,0.7450378 4.95310108,0.557717578 4.85076256,0.464666943 C4.85076256,0.464666943 4.75904651,0.381697011 4.5002207,0.222015475 C4.2414465,0.0636080637 4.12967727,0.0195751741 4.12967727,0.0195751741 C4.00390368,-0.0294421165 3.82746687,0.0170832008 3.73575081,0.121432841 L3.66750785,0.199362747 C3.49345441,0.375383315 3.25939752,0.482281203 3.00056867,0.482281203 C2.74179447,0.482281203 2.50535359,0.37410984 2.33129773,0.196815149 L2.26543815,0.121432841 C2.17486186,0.0170832008 1.99728528,-0.0294972874 1.87142163,0.0195756285 C1.87142163,0.0195756285 1.75851263,0.0636085181 1.49973844,0.22201593 C1.24096424,0.382971589 1.15038856,0.465941522 1.15038856,0.465941522 C1.04805023,0.557718032 0.997476452,0.74376413 1.03628757,0.880847654 L1.06447599,0.980157268 C1.11976473,1.23039701 1.0903845,1.50196064 0.960945664,1.74206775 C0.831558868,1.98228262 0.625741825,2.14573005 0.395208083,2.21856476 L0.301108651,2.24121814 C0.171721855,2.27267809 0.0446662162,2.4134728 0.0211931244,2.55426706 C0.0211931244,2.55426706 0,2.68005158 0,2.99941465 C0,3.31866673 0.0211931244,3.44445125 0.0211931244,3.44445125 C0.0446662162,3.58530132 0.170581477,3.72615075 0.301108651,3.75750017 L0.392824704,3.78015354 C0.623410061,3.85304342 0.830419097,4.01654668 0.959754278,4.25786886 C1.0891933,4.49808372 1.11971329,4.77092147 1.0632846,5.02105152 L1.03623614,5.11786871 C0.997425202,5.25367811 1.04799861,5.4410535 1.15033713,5.53404896 C1.15033713,5.53404896 1.2421048,5.61701889 1.50082738,5.77675625 C1.75965319,5.93643779 1.87137081,5.97919655 1.87137081,5.97919655 C1.99723445,6.02815893 2.17367127,5.98168898 2.26538732,5.87728417 L2.33010653,5.80312081 C2.50535135,5.62582612 2.74060084,5.51770993 3.00056764,5.51770993 C3.26053444,5.51770993 3.4969741,5.6270996 3.67102875,5.80445011 L3.73574796,5.87855829 C3.82632424,5.9829631 4.00390083,6.02948842 4.12976447,5.9804155 C4.12976447,5.9804155 4.24272569,5.93643798 4.50144767,5.7779752 C4.76022187,5.61840466 4.85079754,5.53532373 4.85079754,5.53532373 C4.95313587,5.44354722 5.00370965,5.256227 4.96489853,5.1191993 L4.93666396,5.01860998 C4.88137523,4.76958854 4.91080731,4.49808008 5.04019429,4.25919192 C5.16963331,4.01903288 5.37659012,3.85431067 5.60712386,3.78136562 L5.69889153,3.75871224 C5.82827833,3.72736302 5.95533397,3.5865134 5.97885867,3.44566332 C5.97885867,3.44566332 6,3.31993397 6,3.00062672 C5.99881894,2.68005073 5.9776266,2.55426102 5.9776266,2.55426102 Z M3.0005711,4.27802792 C2.34073652,4.27802792 1.80432148,3.70598785 1.80432148,2.99941251 C1.80432148,2.29405546 2.33953906,1.72195893 3.0005711,1.72195893 C3.66046034,1.72195893 4.19682072,2.29405417 4.19682072,3.00063276 C4.19563055,3.7059898 3.66046034,4.27802792 3.0005711,4.27802792 Z" id="Shape"></path>
            </g>
            <path d="M3,0 L21,0 C22.6568542,-3.04359188e-16 24,1.34314575 24,3 L24,15 C24,16.6568542 22.6568542,18 21,18 L3,18 C1.34314575,18 2.02906125e-16,16.6568542 0,15 L0,3 C-2.02906125e-16,1.34314575 1.34314575,-5.83819232e-16 3,-8.8817842e-16 Z M3,2 C2.44771525,2 2,2.44771525 2,3 L2,15 C2,15.5522847 2.44771525,16 3,16 L21,16 C21.5522847,16 22,15.5522847 22,15 L22,3 C22,2.44771525 21.5522847,2 21,2 L3,2 Z" id="Combined-Shape"></path>
        </g>
    </g>
</svg>