<?xml version="1.0" encoding="UTF-8"?>
<svg width="14px" height="14px" viewBox="0 0 14 14" version="1.1" xmlns="http://www.w3.org/2000/svg" xmlns:xlink="http://www.w3.org/1999/xlink">
    <!-- Generator: Sketch 47.1 (45422) - http://www.bohemiancoding.com/sketch -->
    <title>关闭_hover</title>
    <desc>Created with Sketch.</desc>
    <defs></defs>
    <g id="11-29" stroke="none" stroke-width="1" fill="none" fill-rule="evenodd">
        <g id="关闭_hover">
            <circle id="Oval" fill="#D9D9D9" cx="7" cy="7" r="7"></circle>
            <path d="M9.99244713,10.4365559 L3.56344411,4.00755287 C3.47885196,3.92296073 3.47885196,3.79607251 3.56344411,3.71148037 L3.71148037,3.56344411 C3.79607251,3.47885196 3.92296073,3.47885196 4.00755287,3.56344411 L10.4365559,9.99244713 C10.521148,10.0770393 10.521148,10.2039275 10.4365559,10.2885196 L10.2885196,10.4365559 C10.2250755,10.521148 10.0770393,10.521148 9.99244713,10.4365559 Z" id="Shape" fill="#FFFFFF" fill-rule="nonzero"></path>
            <path d="M3.56104248,9.99244713 L9.9922714,3.56344411 C10.0768928,3.47885196 10.203825,3.47885196 10.2884464,3.56344411 L10.4365339,3.71148037 C10.5211554,3.79607251 10.5211554,3.92296073 10.4365339,4.00755287 L4.02646036,10.4365559 C3.94183893,10.521148 3.81490679,10.521148 3.73028535,10.4365559 L3.58219784,10.2885196 C3.47642105,10.2039275 3.47642105,10.0770393 3.56104248,9.99244713 Z" id="Shape" fill="#FFFFFF" fill-rule="nonzero"></path>
        </g>
    </g>
</svg>