<?xml version="1.0" encoding="UTF-8"?>
<svg width="50px" height="50px" viewBox="0 0 50 50" version="1.1" xmlns="http://www.w3.org/2000/svg" xmlns:xlink="http://www.w3.org/1999/xlink">
    <!-- Generator: Sketch 47.1 (45422) - http://www.bohemiancoding.com/sketch -->
    <title>刷新</title>
    <desc>Created with Sketch.</desc>
    <defs>
        <radialGradient cx="-21.9075521%" cy="-8.89322917%" fx="-21.9075521%" fy="-8.89322917%" r="163.460046%" id="radialGradient-1">
            <stop stop-color="#1C1081" stop-opacity="0.8" offset="0%"></stop>
            <stop stop-color="#030723" stop-opacity="0.9" offset="100%"></stop>
        </radialGradient>
        <polygon id="path-2" points="0 0 0 22.5 27.5 22.5 27.5 3.86149046e-15"></polygon>
    </defs>
    <g id="1221-UI问题解决" stroke="none" stroke-width="1" fill="none" fill-rule="evenodd">
        <g id="刷新">
            <rect id="Rectangle-2" fill="url(#radialGradient-1)" x="0" y="0" width="50" height="50" rx="8"></rect>
            <g transform="translate(25.758173, 25.508173) rotate(-30.000000) translate(-25.758173, -25.508173) translate(11.758173, 14.008173)">
                <mask id="mask-3" fill="white">
                    <use xlink:href="#path-2"></use>
                </mask>
                <g id="Clip-2"></g>
                <path d="M20.2898014,15.981939 C18.7819321,18.1150396 16.3471116,19.3780325 13.7551865,19.3713751 C9.34145122,19.3713751 5.74402251,15.9176074 5.72173245,11.2812444 L8.34276226,11.2812444 L4.16797384,7.07275142 L0,11.2812444 L2.62797867,11.2812444 C2.65382709,17.4184643 7.62444473,22.4999861 13.7551865,22.4999861 C17.16889,22.5054206 20.3949742,20.9204298 22.5018555,18.2027399 L20.2898014,15.981939 Z M25.7847055,11.2812444 L24.693298,11.2812444 L24.693298,11.3161275 C24.693298,11.2951704 24.7895414,11.2795121 24.7895414,11.2586909 C24.7895414,5.0398506 19.8549772,5.14102554e-06 13.70876,5.14102554e-06 C10.2735385,-0.00332352985 7.03224735,1.609927 4.93798821,4.3650475 L7.16719625,6.59630993 C8.67060079,4.42129524 11.128517,3.12552519 13.7517624,3.12515157 C18.1826852,3.12515157 21.7267386,6.77184637 21.7267386,11.2569586 C21.7267386,11.2777798 21.6614126,11.2934382 21.6614126,11.3142593 L21.6614126,11.2795121 L19.1640523,11.2795121 L23.337263,15.4846763 L27.5,11.2812444 L25.7847055,11.2812444 Z" id="Fill-1" fill="#FFFFFF" mask="url(#mask-3)"></path>
            </g>
        </g>
    </g>
</svg>