<?xml version="1.0" encoding="UTF-8"?>
<svg width="16px" height="14px" viewBox="0 0 16 14" version="1.1" xmlns="http://www.w3.org/2000/svg" xmlns:xlink="http://www.w3.org/1999/xlink">
    <!-- Generator: Sketch 47.1 (45422) - http://www.bohemiancoding.com/sketch -->
    <title>展开</title>
    <desc>Created with Sketch.</desc>
    <defs></defs>
    <g id="基础信息管理-cj" stroke="none" stroke-width="1" fill="none" fill-rule="evenodd">
        <g id="展开" fill="#A5ADBB">
            <rect id="Rectangle-2" x="0" y="0" width="16" height="2" rx="1"></rect>
            <rect id="Rectangle-2-Copy-2" x="7" y="6" width="9" height="2" rx="1"></rect>
            <path d="M0.445406077,6.16805598 L3.64263044,4.03657307 L3.64263044,4.03657307 C4.10215913,3.73022061 4.72302847,3.85439448 5.02938093,4.31392317 C5.13889261,4.47819069 5.19733064,4.67119838 5.19733064,4.86862337 L5.19733064,9.13158918 L5.19733064,9.13158918 C5.19733064,9.68387393 4.74961539,10.1315892 4.19733064,10.1315892 C3.99990565,10.1315892 3.80689796,10.0731512 3.64263044,9.96363948 L0.445406077,7.83215657 L0.445406077,7.83215657 C-0.0141226113,7.52580411 -0.13829648,6.90493477 0.168055979,6.44540608 C0.241290837,6.33555379 0.33555379,6.24129084 0.445406077,6.16805598 Z" id="Triangle" transform="translate(2.598665, 7.000053) rotate(180.000000) translate(-2.598665, -7.000053) "></path>
            <rect id="Rectangle-2-Copy" x="0" y="12" width="16" height="2" rx="1"></rect>
        </g>
    </g>
</svg>