<?xml version="1.0" encoding="UTF-8"?>
<svg width="17px" height="14px" viewBox="0 0 17 14" version="1.1" xmlns="http://www.w3.org/2000/svg" xmlns:xlink="http://www.w3.org/1999/xlink">
    <!-- Generator: Sketch 47.1 (45422) - http://www.bohemiancoding.com/sketch -->
    <title>收起</title>
    <desc>Created with Sketch.</desc>
    <defs></defs>
    <g id="基础信息管理-cj" stroke="none" stroke-width="1" fill="none" fill-rule="evenodd">
        <g id="收起" transform="translate(1.000000, 0.000000)" fill="#A5ADBB">
            <rect id="Rectangle-2" x="0" y="0" width="16" height="2" rx="1"></rect>
            <rect id="Rectangle-2-Copy-2" x="7" y="6" width="9" height="2" rx="1"></rect>
            <path d="M0.248075442,6.16794971 L3.4452998,4.0364668 L3.4452998,4.0364668 C3.90482849,3.73011434 4.52569784,3.85428821 4.83205029,4.3138169 C4.94156197,4.47808441 5,4.67109211 5,4.86851709 L5,9.13148291 L5,9.13148291 C5,9.68376766 4.55228475,10.1314829 4,10.1314829 C3.80257501,10.1314829 3.60956732,10.0730449 3.4452998,9.9635332 L0.248075442,7.83205029 L0.248075442,7.83205029 C-0.211453247,7.52569784 -0.335627116,6.90482849 -0.0292746566,6.4452998 C0.0439602016,6.33544752 0.138223154,6.24118456 0.248075442,6.16794971 Z" id="Triangle"></path>
            <rect id="Rectangle-2-Copy" x="0" y="12" width="16" height="2" rx="1"></rect>
        </g>
    </g>
</svg>