<?xml version="1.0" encoding="UTF-8"?>
<svg width="17px" height="17px" viewBox="0 0 17 17" version="1.1" xmlns="http://www.w3.org/2000/svg" xmlns:xlink="http://www.w3.org/1999/xlink">
    <!-- Generator: Sketch 47.1 (45422) - http://www.bohemiancoding.com/sketch -->
    <title>Artboard</title>
    <desc>Created with Sketch.</desc>
    <defs></defs>
    <g id="Page-1" stroke="none" stroke-width="1" fill="none" fill-rule="evenodd">
        <g id="Artboard" fill="#A9A9A9">
            <g id="Group">
                <g id="Group-2">
                    <path d="M4.5,5 C4.77804878,5 5,4.63941019 5,4.19571046 L5,0.802949062 C5,0.35924933 4.77642276,0 4.5,0 C4.22195122,0 4,0.35924933 4,0.802949062 L4,4.19571046 C4,4.63941019 4.22357724,5 4.5,5" id="Fill-116"></path>
                    <polygon id="Fill-118" points="6 2 11 2 11 1 6 1"></polygon>
                    <path d="M12.5,5 C12.7780488,5 13,4.63921674 13,4.19662017 L13,0.803379828 C13,0.35944206 12.7764228,0 12.5,0 C12.2211382,0 12,0.360783262 12,0.803379828 L12,4.19662017 C12,4.63921674 12.2235772,5 12.5,5" id="Fill-120"></path>
                    <path d="M4.6466628,11 L12.3533372,11 C12.710621,11 13,10.7752902 13,10.4991708 C13,10.2222222 12.710621,10 12.3533372,10 L4.6466628,10 C4.2883343,10 4,10.2230514 4,10.4991708 C4,10.7777778 4.28937899,11 4.6466628,11" id="Fill-121"></path>
                    <path d="M15.0418125,1 L13.7306875,1 L13.7306875,2.36367491 L15.0418125,2.36367491 C15.39775,2.36367491 15.6920625,2.68028269 15.6920625,3.08508834 L15.6920625,14.9160424 C15.6920625,15.3185866 15.3945625,15.6374558 15.034375,15.6374558 L1.9645625,15.6374558 C1.6054375,15.6374558 1.306875,15.3197173 1.306875,14.9160424 L1.306875,3.08508834 C1.306875,2.68028269 1.604375,2.36367491 1.965625,2.36367491 L3.2990625,2.36367491 L3.2990625,1 L1.965625,1 C0.873375,1 0,1.93512367 0,3.08508834 L0,14.9160424 C0,16.0648763 0.8744375,17 1.9645625,17 L15.034375,17 C16.1245,17 17,16.0637456 17,14.9160424 L17,3.08508834 C17,1.93625442 16.1276875,1 15.0418125,1" id="Fill-122"></path>
                    <path d="M4.6466628,8 L12.3533372,8 C12.710621,8 13,7.7761194 13,7.5 C13,7.22222222 12.710621,7 12.3533372,7 L4.6466628,7 C4.2883343,7 4,7.22305141 4,7.5 C4,7.77777778 4.28937899,8 4.6466628,8" id="Fill-123"></path>
                </g>
            </g>
        </g>
    </g>
</svg>