<?xml version="1.0" encoding="UTF-8"?>
<svg width="74px" height="74px" viewBox="0 0 74 74" version="1.1" xmlns="http://www.w3.org/2000/svg" xmlns:xlink="http://www.w3.org/1999/xlink">
    <!-- Generator: Sketch 47.1 (45422) - http://www.bohemiancoding.com/sketch -->
    <title>人像</title>
    <desc>Created with Sketch.</desc>
    <defs></defs>
    <g id="Page-1" stroke="none" stroke-width="1" fill="none" fill-rule="evenodd">
        <g id="综合管理_个人体检_弹窗修改_健康体检" transform="translate(-721.000000, -337.000000)" fill-rule="nonzero" fill="#D1E4FF">
            <g id="Group-10" transform="translate(271.000000, 244.000000)">
                <g id="Group-18" transform="translate(450.000000, 93.000000)">
                    <g id="Group-11">
                        <g id="Group-12">
                            <path d="M52.9218233,6.48847473 C48.5651882,2.29715679 42.7458858,-0.0304100842 36.7003256,0.000305206725 C30.6560683,-0.0306689666 24.8380959,2.29702161 20.4833973,6.48847473 C16.1931796,10.5712476 13.763841,16.2338243 13.761757,22.1560335 C13.761757,28.0684922 16.1470025,33.6336968 20.4833973,37.8190231 C22.0278666,39.3176988 23.7642523,40.5650723 25.6194433,41.5520052 C20.7720838,43.0578722 16.2766795,45.5221789 12.400065,48.7986509 C5.67842468,54.4872221 1.28262723,62.2181959 0.0214629531,70.5614337 C-0.0613236406,71.1526608 0.0974502624,71.7523173 0.46196659,72.2251255 C0.826482918,72.6979338 1.36603479,73.0040645 1.95890379,73.0744571 C3.18989648,73.2699355 4.34908259,72.438799 4.55891289,71.2102506 C6.88018638,55.8808077 20.7027302,44.3026235 36.7003256,44.3026235 C42.7457044,44.3369837 48.5657968,42.0107402 52.9218233,37.8190231 C57.2099946,33.7367207 59.6390587,28.0764348 59.6434636,22.1560335 C59.6472908,16.2326104 57.2169944,10.567801 52.9218233,6.48847473 Z M36.7003256,39.8842714 C26.5881638,39.8842714 18.3494706,31.92941 18.3494707,22.1606026 C18.3494707,12.3826569 26.5835943,4.43236466 36.7003256,4.43236466 C46.8216263,4.43236466 55.0557499,12.3826569 55.0557499,22.1606026 C55.0557499,31.9202718 46.8216263,39.8842714 36.7003256,39.8842714 Z M73.0867443,70.5568645 C72.5497019,66.7706653 71.3901766,63.0993356 69.6550979,59.6914651 C67.9423106,56.3419628 65.7090504,53.2853131 63.0385546,50.6354425 C62.141563,49.7551255 60.7110818,49.7350075 59.7896856,50.5897512 C59.3565789,50.9920492 59.1067334,51.5538797 59.0981046,52.1449175 C59.0894757,52.7359554 59.3228133,53.3048392 59.7439912,53.7196076 C64.5126532,58.4046816 67.5987127,64.5346263 68.5218777,71.155421 C68.681808,72.2611513 69.6642367,73.0653189 70.7974569,73.0653189 C70.8979845,73.0653189 71.0030815,73.0653189 71.1036091,73.0516114 C71.6990619,72.9875006 72.24401,72.6875274 72.6166687,72.2187298 C72.9893274,71.7499321 73.1586312,71.1513898 73.0867443,70.5568645 L73.0867443,70.5568645 Z" id="Shape"></path>
                        </g>
                    </g>
                </g>
            </g>
        </g>
    </g>
</svg>