<?xml version="1.0" encoding="UTF-8"?>
<svg width="9px" height="9px" viewBox="0 0 9 9" version="1.1" xmlns="http://www.w3.org/2000/svg" xmlns:xlink="http://www.w3.org/1999/xlink">
    <!-- Generator: Sketch 47.1 (45422) - http://www.bohemiancoding.com/sketch -->
    <title>关闭</title>
    <desc>Created with Sketch.</desc>
    <defs></defs>
    <g id="Page-1" stroke="none" stroke-width="1" fill="none" fill-rule="evenodd">
        <g id="U-基础信息管理-单项管理-v1.0-1214-张成阳" transform="translate(-1466.000000, -4.000000)" fill="#95C9FF">
            <g id="Group-3" transform="translate(1287.000000, 0.000000)">
                <g id="Group-2" transform="translate(135.000000, 0.000000)">
                    <path d="M49,8 L49,3.5 L49,3.5 C49,3.22385763 48.7761424,3 48.5,3 C48.2238576,3 48,3.22385763 48,3.5 L48,8 L43.5,8 L43.5,8 C43.2238576,8 43,8.22385763 43,8.5 C43,8.77614237 43.2238576,9 43.5,9 L48,9 L48,13.5 C48,13.7761424 48.2238576,14 48.5,14 C48.7761424,14 49,13.7761424 49,13.5 L49,9 L53.5,9 C53.7761424,9 54,8.77614237 54,8.5 C54,8.22385763 53.7761424,8 53.5,8 L49,8 Z" id="关闭" transform="translate(48.500000, 8.500000) rotate(45.000000) translate(-48.500000, -8.500000) "></path>
                </g>
            </g>
        </g>
    </g>
</svg>