<?xml version="1.0" encoding="UTF-8"?>
<svg width="8px" height="10px" viewBox="0 0 8 10" version="1.1" xmlns="http://www.w3.org/2000/svg" xmlns:xlink="http://www.w3.org/1999/xlink">
    <!-- Generator: Sketch 47.1 (45422) - http://www.bohemiancoding.com/sketch -->
    <title>最大化</title>
    <desc>Created with Sketch.</desc>
    <defs></defs>
    <g id="Page-1" stroke="none" stroke-width="1" fill="none" fill-rule="evenodd">
        <g id="U-基础信息管理-单项管理-v1.0-1214-张成阳" transform="translate(-1446.000000, -3.000000)" fill="#95C9FF">
            <g id="Group-3" transform="translate(1287.000000, 0.000000)">
                <g id="Group-2" transform="translate(135.000000, 0.000000)">
                    <path d="M30.3246128,5.08324623 L24.5311111,5.08324623 C24.2720717,5.08324623 24.0620788,4.87325329 24.0620788,4.61421389 C24.0620788,4.35517448 24.2720717,4.14518155 24.5311111,4.14518155 L24.5311111,4.14518155 L31.1084365,4.14518155 C31.1917608,4.01486995 31.3377316,3.92847966 31.5038799,3.92847966 C31.7629193,3.92847966 31.9729123,4.13847259 31.9729123,4.397512 L31.9729123,4.397512 L31.9729123,4.45674576 C31.9904505,4.5059642 32,4.55897384 32,4.61421389 L32,4.61421389 C32,4.66945393 31.9904505,4.72246358 31.9729123,4.77168201 L31.9729123,11.3973685 C31.9729123,11.6564079 31.7629193,11.8664009 31.5038799,11.8664009 C31.2448405,11.8664009 31.0348476,11.6564079 31.0348476,11.3973685 L31.0348476,5.69963523 L24.8032092,11.9312736 C24.6200407,12.1144421 24.3230659,12.1144421 24.1398973,11.9312736 L24.1398973,11.9312736 L24.1398973,11.9312736 C23.9567288,11.7481051 23.9567288,11.4511302 24.1398973,11.2679617 L24.1398973,11.2679617 L30.3246128,5.08324623 Z" id="最大化"></path>
                </g>
            </g>
        </g>
    </g>
</svg>