<svg id="图层_1" data-name="图层 1" xmlns="http://www.w3.org/2000/svg" viewBox="0 0 24 24"><defs><style>.cls-1{fill:#9ca4b4;}</style></defs><title>未标题-1</title><path class="cls-1" d="M10.5,16A1.5,1.5,0,0,0,9,17.5v5a1.5,1.5,0,0,0,3,0v-5A1.5,1.5,0,0,0,10.5,16Z"/><path class="cls-1" d="M16.5,13A1.5,1.5,0,0,0,15,14.5v8a1.5,1.5,0,0,0,3,0v-8A1.5,1.5,0,0,0,16.5,13Z"/><path class="cls-1" d="M22.5,10A1.5,1.5,0,0,0,21,11.5v11a1.5,1.5,0,0,0,3,0v-11A1.5,1.5,0,0,0,22.5,10Z"/><polygon class="cls-1" points="18 1 20.46 3.46 13.77 10.15 12.35 8.73 10.94 7.32 1.04 17.22 2.45 18.63 10.94 10.15 12.35 11.56 13.77 12.97 15.18 11.56 15.18 11.56 21.87 4.87 24 7 24 1 18 1"/><path class="cls-1" d="M4.5,19A1.5,1.5,0,0,0,3,20.5v2a1.5,1.5,0,0,0,3,0v-2A1.5,1.5,0,0,0,4.5,19Z"/></svg>