<svg id="图层_1" data-name="图层 1" xmlns="http://www.w3.org/2000/svg" viewBox="0 0 24 24"><defs><style>.cls-1{fill:#9ca4b4;fill-rule:evenodd;}</style></defs><title>未标题-1</title><path class="cls-1" d="M20.37,10.75H18.46a6,6,0,0,0-1.15-2.84l1.18-1.18A1.13,1.13,0,0,0,16.9,5.14L15.65,6.39a6,6,0,0,0-2.4-.84V3.63a1.13,1.13,0,0,0-2.25,0V5.69a6,6,0,0,0-1.88.85L7.67,5.09a1.13,1.13,0,0,0-1.6,1.6L7.52,8.14a6,6,0,0,0-1,2.61H4.62a1.13,1.13,0,0,0,0,2.25H6.69a6,6,0,0,0,.7,1.65L5.76,16.27a1.13,1.13,0,0,0,1.59,1.59l1.56-1.56a6,6,0,0,0,2.09,1v2.06a1.13,1.13,0,0,0,2.25,0V17.46a6,6,0,0,0,2.61-1l1.45,1.45a1.13,1.13,0,1,0,1.6-1.6l-1.44-1.44A6,6,0,0,0,18.31,13h2.06a1.13,1.13,0,1,0,0-2.25ZM12.5,15.26a3.76,3.76,0,1,1,3.76-3.76A3.76,3.76,0,0,1,12.5,15.26Z"/></svg>